<svg width="407" height="267" viewBox="0 0 407 267" fill="none" xmlns="http://www.w3.org/2000/svg">
<path d="M23.178 104.635H31.1832L53.1302 164H44.9001L39.7731 149.698H14.588L9.37114 164H1.14101L23.178 104.635ZM17.0616 142.773H37.3446L27.2705 114.08H27.1356L17.0616 142.773ZM76.6527 158.603C78.9913 158.603 80.8802 158.228 82.3193 157.479C83.7585 156.729 84.6579 156.19 85.0177 155.86L88.8404 161.481C88.5406 161.751 87.821 162.186 86.6817 162.786C85.5724 163.355 84.1332 163.88 82.3643 164.36C80.6253 164.84 78.6465 165.079 76.4278 165.079C73.0398 165.079 69.8917 164.33 66.9834 162.831C64.0751 161.302 61.7215 159.083 59.9226 156.175C58.1536 153.266 57.2692 149.713 57.2692 145.516C57.2692 141.288 58.1536 137.736 59.9226 134.857C61.7215 131.949 64.0751 129.745 66.9834 128.246C69.8917 126.747 73.0398 125.998 76.4278 125.998C78.6165 125.998 80.5653 126.267 82.2743 126.807C83.9833 127.317 85.3925 127.886 86.5018 128.516C87.6112 129.146 88.3457 129.625 88.7055 129.955L84.8378 135.577C84.598 135.337 84.1332 134.977 83.4436 134.497C82.784 133.988 81.8846 133.523 80.7452 133.103C79.6059 132.684 78.2417 132.474 76.6527 132.474C74.7338 132.474 72.8599 132.998 71.031 134.048C69.2321 135.067 67.7479 136.551 66.5786 138.5C65.4093 140.449 64.8247 142.788 64.8247 145.516C64.8247 148.244 65.4093 150.598 66.5786 152.577C67.7479 154.526 69.2321 156.025 71.031 157.074C72.8599 158.094 74.7338 158.603 76.6527 158.603ZM93.0799 127.077H100.321V111.921H108.101V127.077H117.59V133.778H108.101V152.037C108.101 154.196 108.476 155.785 109.225 156.804C110.005 157.824 111.039 158.333 112.328 158.333C113.468 158.333 114.352 158.123 114.982 157.704C115.612 157.284 115.986 156.999 116.106 156.849L119.209 162.606C119.03 162.756 118.55 163.041 117.77 163.46C116.991 163.88 115.986 164.255 114.757 164.585C113.528 164.914 112.089 165.079 110.44 165.079C107.561 165.079 105.148 164.21 103.199 162.471C101.28 160.702 100.321 157.914 100.321 154.106V133.778H93.0799V127.077ZM126.86 164V127.077H134.685V164H126.86ZM130.862 114.439C129.453 114.439 128.239 113.945 127.22 112.955C126.23 111.936 125.735 110.722 125.735 109.312C125.735 107.903 126.23 106.689 127.22 105.67C128.239 104.65 129.453 104.14 130.862 104.14C131.792 104.14 132.646 104.38 133.426 104.86C134.235 105.34 134.88 105.969 135.36 106.749C135.839 107.498 136.079 108.353 136.079 109.312C136.079 110.722 135.57 111.936 134.55 112.955C133.531 113.945 132.302 114.439 130.862 114.439ZM176.33 164V156.804C176.09 157.554 175.385 158.588 174.216 159.907C173.077 161.227 171.503 162.426 169.494 163.505C167.515 164.555 165.176 165.079 162.478 165.079C159.06 165.079 155.957 164.27 153.168 162.651C150.41 161.032 148.206 158.768 146.557 155.86C144.938 152.922 144.129 149.489 144.129 145.561C144.129 141.633 144.938 138.215 146.557 135.307C148.206 132.369 150.41 130.09 153.168 128.471C155.957 126.822 159.06 125.998 162.478 125.998C165.146 125.998 167.455 126.477 169.404 127.437C171.383 128.396 172.957 129.505 174.126 130.765C175.325 132.024 176.03 133.103 176.24 134.003V127.077H183.975V164H176.33ZM151.864 145.561C151.864 148.229 152.449 150.538 153.618 152.487C154.788 154.436 156.302 155.95 158.161 157.029C160.049 158.079 162.058 158.603 164.187 158.603C166.466 158.603 168.504 158.064 170.303 156.984C172.102 155.905 173.526 154.391 174.576 152.442C175.625 150.463 176.15 148.169 176.15 145.561C176.15 142.952 175.625 140.674 174.576 138.725C173.526 136.746 172.102 135.217 170.303 134.138C168.504 133.028 166.466 132.474 164.187 132.474C162.058 132.474 160.049 133.013 158.161 134.093C156.302 135.172 154.788 136.686 153.618 138.635C152.449 140.584 151.864 142.893 151.864 145.561ZM208.283 125.998C210.202 125.998 211.986 126.192 213.635 126.582C215.314 126.972 216.753 127.437 217.953 127.976C219.182 128.516 220.051 128.996 220.561 129.415L217.458 134.363C216.858 133.823 215.779 133.223 214.22 132.564C212.661 131.874 210.922 131.529 209.003 131.529C206.904 131.529 205.12 131.949 203.651 132.788C202.182 133.598 201.447 134.782 201.447 136.341C201.447 137.9 202.197 139.145 203.696 140.074C205.225 140.974 207.264 141.723 209.812 142.323C211.851 142.803 213.755 143.447 215.524 144.257C217.323 145.066 218.777 146.191 219.886 147.63C220.996 149.039 221.55 150.928 221.55 153.296C221.55 155.455 221.101 157.299 220.201 158.828C219.302 160.327 218.088 161.541 216.558 162.471C215.029 163.37 213.32 164.03 211.431 164.45C209.543 164.869 207.624 165.079 205.675 165.079C203.396 165.079 201.342 164.84 199.514 164.36C197.685 163.91 196.141 163.37 194.881 162.741C193.652 162.081 192.753 161.511 192.183 161.032L195.286 155.455C196.066 156.205 197.34 156.999 199.109 157.839C200.908 158.678 202.946 159.098 205.225 159.098C207.744 159.098 209.782 158.573 211.342 157.524C212.901 156.444 213.68 155.05 213.68 153.341C213.68 152.052 213.305 151.018 212.556 150.238C211.806 149.459 210.802 148.829 209.543 148.349C208.283 147.87 206.904 147.45 205.405 147.09C203.966 146.76 202.557 146.325 201.178 145.786C199.828 145.246 198.584 144.557 197.445 143.717C196.335 142.848 195.451 141.798 194.791 140.569C194.132 139.31 193.802 137.841 193.802 136.161C193.802 134.033 194.477 132.219 195.826 130.72C197.175 129.191 198.944 128.021 201.133 127.212C203.321 126.402 205.705 125.998 208.283 125.998ZM230.846 104.635H238.536V157.029H261.878V164H230.846V104.635ZM279.148 145.696C279.148 149.564 279.972 152.652 281.622 154.96C283.301 157.239 285.864 158.378 289.312 158.378C292.79 158.378 295.353 157.239 297.002 154.96C298.651 152.652 299.476 149.564 299.476 145.696V127.077H307.211V146.775C307.211 150.373 306.507 153.551 305.098 156.31C303.718 159.068 301.695 161.227 299.026 162.786C296.388 164.315 293.15 165.079 289.312 165.079C285.504 165.079 282.266 164.315 279.598 162.786C276.959 161.227 274.935 159.068 273.526 156.31C272.147 153.551 271.458 150.373 271.458 146.775V127.077H279.148V145.696ZM338.487 125.998C340.916 125.998 343.27 126.507 345.548 127.527C347.857 128.546 349.746 130.165 351.215 132.384C352.714 134.572 353.464 137.436 353.464 140.974V164H345.548V142.503C345.548 138.845 344.694 136.191 342.985 134.542C341.276 132.863 339.072 132.024 336.374 132.024C334.605 132.024 332.896 132.534 331.247 133.553C329.628 134.542 328.294 135.922 327.244 137.691C326.195 139.43 325.67 141.408 325.67 143.627V164H317.845V127.077H325.67V133.643C325.94 132.624 326.674 131.514 327.874 130.315C329.073 129.116 330.602 128.096 332.461 127.257C334.32 126.417 336.329 125.998 338.487 125.998ZM393.379 164V156.804C393.139 157.554 392.434 158.588 391.265 159.907C390.126 161.227 388.552 162.426 386.543 163.505C384.564 164.555 382.225 165.079 379.527 165.079C376.109 165.079 373.006 164.27 370.218 162.651C367.459 161.032 365.256 158.768 363.607 155.86C361.987 152.922 361.178 149.489 361.178 145.561C361.178 141.633 361.987 138.215 363.607 135.307C365.256 132.369 367.459 130.09 370.218 128.471C373.006 126.822 376.109 125.998 379.527 125.998C382.196 125.998 384.504 126.477 386.453 127.437C388.432 128.396 390.006 129.505 391.175 130.765C392.374 132.024 393.079 133.103 393.289 134.003V127.077H401.024V164H393.379ZM368.913 145.561C368.913 148.229 369.498 150.538 370.667 152.487C371.837 154.436 373.351 155.95 375.21 157.029C377.099 158.079 379.107 158.603 381.236 158.603C383.515 158.603 385.554 158.064 387.352 156.984C389.151 155.905 390.576 154.391 391.625 152.442C392.674 150.463 393.199 148.169 393.199 145.561C393.199 142.952 392.674 140.674 391.625 138.725C390.576 136.746 389.151 135.217 387.352 134.138C385.554 133.028 383.515 132.474 381.236 132.474C379.107 132.474 377.099 133.013 375.21 134.093C373.351 135.172 371.837 136.686 370.667 138.635C369.498 140.584 368.913 142.893 368.913 145.561Z" fill="white"/>
<line x1="4" y1="62.5" x2="77" y2="62.5" stroke="#FFCC02" stroke-width="21"/>
<line x1="66.5" y1="73" x2="66.5" stroke="#FFCC02" stroke-width="21"/>
<line x1="404" y1="204.5" x2="331" y2="204.5" stroke="#FFCC02" stroke-width="21"/>
<line x1="341.5" y1="194" x2="341.5" y2="267" stroke="#FFCC02" stroke-width="21"/>
<path d="M100.453 177.44H101.829V188H100.453V177.44ZM105.356 178.736L105.444 178.752V188H104.076V177.44H106.004L111.484 186.68L111.396 186.696V177.44H112.764V188H110.82L105.356 178.736ZM117.095 178.68H114.247V177.44H121.319V178.68H118.471V188H117.095V178.68ZM122.826 177.44H129.066V178.68H124.178V182.104H128.97V183.312H124.178V186.76H129.066V188H122.826V177.44ZM131.224 177.44H134.912C135.482 177.44 136 177.56 136.464 177.8C136.933 178.035 137.306 178.381 137.584 178.84C137.866 179.293 138.008 179.848 138.008 180.504C138.008 181.155 137.877 181.693 137.616 182.12C137.36 182.547 137.05 182.869 136.688 183.088C136.325 183.301 135.989 183.419 135.68 183.44L138.296 188H136.744L134.296 183.536H132.592V188H131.224V177.44ZM132.592 182.52H134.432C135.061 182.52 135.581 182.363 135.992 182.048C136.402 181.733 136.608 181.229 136.608 180.536C136.608 179.843 136.402 179.344 135.992 179.04C135.586 178.736 135.069 178.584 134.44 178.584H132.592V182.52ZM141.387 178.736L141.475 178.752V188H140.107V177.44H142.035L147.515 186.68L147.427 186.696V177.44H148.795V188H146.851L141.387 178.736ZM154.143 177.44H155.567L159.47 188H158.007L157.095 185.456H152.615L151.687 188H150.223L154.143 177.44ZM153.055 184.224H156.663L154.871 179.12H154.847L153.055 184.224ZM161.752 178.68H158.904V177.44H165.976V178.68H163.128V188H161.752V178.68ZM167.594 177.44H168.97V188H167.594V177.44ZM172.104 182.712C172.104 183.496 172.267 184.203 172.592 184.832C172.923 185.461 173.376 185.963 173.952 186.336C174.528 186.704 175.189 186.888 175.936 186.888C176.688 186.888 177.349 186.704 177.92 186.336C178.496 185.963 178.947 185.461 179.272 184.832C179.597 184.203 179.76 183.496 179.76 182.712C179.76 181.928 179.597 181.224 179.272 180.6C178.947 179.971 178.496 179.472 177.92 179.104C177.349 178.736 176.688 178.552 175.936 178.552C175.189 178.552 174.528 178.736 173.952 179.104C173.376 179.472 172.923 179.971 172.592 180.6C172.267 181.224 172.104 181.928 172.104 182.712ZM170.688 182.712C170.688 181.944 170.819 181.229 171.08 180.568C171.347 179.901 171.717 179.32 172.192 178.824C172.667 178.328 173.221 177.941 173.856 177.664C174.496 177.387 175.189 177.248 175.936 177.248C176.688 177.248 177.381 177.387 178.016 177.664C178.656 177.941 179.211 178.328 179.68 178.824C180.155 179.32 180.523 179.901 180.784 180.568C181.045 181.229 181.176 181.944 181.176 182.712C181.176 183.485 181.045 184.205 180.784 184.872C180.528 185.533 180.163 186.115 179.688 186.616C179.219 187.112 178.667 187.499 178.032 187.776C177.397 188.053 176.699 188.192 175.936 188.192C175.173 188.192 174.469 188.053 173.824 187.776C173.184 187.499 172.629 187.112 172.16 186.616C171.691 186.115 171.328 185.533 171.072 184.872C170.816 184.205 170.688 183.485 170.688 182.712ZM184.059 178.736L184.147 178.752V188H182.779V177.44H184.707L190.187 186.68L190.099 186.696V177.44H191.467V188H189.523L184.059 178.736ZM196.814 177.44H198.238L202.142 188H200.678L199.766 185.456H195.286L194.358 188H192.894L196.814 177.44ZM195.726 184.224H199.334L197.542 179.12H197.518L195.726 184.224ZM203.271 177.44H204.639V186.76H208.791V188H203.271V177.44ZM219.711 186.84C220.367 186.84 220.935 186.749 221.415 186.568C221.9 186.387 222.244 186.211 222.447 186.04L223.047 187.216C222.807 187.429 222.388 187.645 221.791 187.864C221.199 188.083 220.487 188.192 219.655 188.192C218.876 188.192 218.154 188.053 217.487 187.776C216.82 187.499 216.236 187.112 215.735 186.616C215.239 186.12 214.85 185.541 214.567 184.88C214.29 184.219 214.151 183.504 214.151 182.736C214.151 181.968 214.29 181.251 214.567 180.584C214.844 179.917 215.231 179.336 215.727 178.84C216.228 178.339 216.812 177.949 217.479 177.672C218.151 177.389 218.876 177.248 219.655 177.248C220.487 177.248 221.199 177.357 221.791 177.576C222.388 177.795 222.807 178.011 223.047 178.224L222.447 179.4C222.244 179.224 221.9 179.048 221.415 178.872C220.935 178.691 220.367 178.6 219.711 178.6C219.114 178.6 218.567 178.701 218.071 178.904C217.575 179.107 217.143 179.395 216.775 179.768C216.412 180.136 216.13 180.571 215.927 181.072C215.73 181.573 215.631 182.12 215.631 182.712C215.631 183.309 215.73 183.861 215.927 184.368C216.13 184.869 216.412 185.307 216.775 185.68C217.143 186.048 217.575 186.333 218.071 186.536C218.567 186.739 219.114 186.84 219.711 186.84ZM225.589 182.712C225.589 183.496 225.751 184.203 226.077 184.832C226.407 185.461 226.861 185.963 227.437 186.336C228.013 186.704 228.674 186.888 229.421 186.888C230.173 186.888 230.834 186.704 231.405 186.336C231.981 185.963 232.431 185.461 232.757 184.832C233.082 184.203 233.245 183.496 233.245 182.712C233.245 181.928 233.082 181.224 232.757 180.6C232.431 179.971 231.981 179.472 231.405 179.104C230.834 178.736 230.173 178.552 229.421 178.552C228.674 178.552 228.013 178.736 227.437 179.104C226.861 179.472 226.407 179.971 226.077 180.6C225.751 181.224 225.589 181.928 225.589 182.712ZM224.173 182.712C224.173 181.944 224.303 181.229 224.565 180.568C224.831 179.901 225.202 179.32 225.677 178.824C226.151 178.328 226.706 177.941 227.341 177.664C227.981 177.387 228.674 177.248 229.421 177.248C230.173 177.248 230.866 177.387 231.501 177.664C232.141 177.941 232.695 178.328 233.165 178.824C233.639 179.32 234.007 179.901 234.269 180.568C234.53 181.229 234.661 181.944 234.661 182.712C234.661 183.485 234.53 184.205 234.269 184.872C234.013 185.533 233.647 186.115 233.173 186.616C232.703 187.112 232.151 187.499 231.517 187.776C230.882 188.053 230.183 188.192 229.421 188.192C228.658 188.192 227.954 188.053 227.309 187.776C226.669 187.499 226.114 187.112 225.645 186.616C225.175 186.115 224.813 185.533 224.557 184.872C224.301 184.205 224.173 183.485 224.173 182.712ZM237.543 178.736L237.631 178.752V188H236.263V177.44H238.191L243.671 186.68L243.583 186.696V177.44H244.951V188H243.007L237.543 178.736ZM250.387 177.248C250.995 177.248 251.517 177.317 251.955 177.456C252.397 177.595 252.744 177.741 252.995 177.896C253.251 178.051 253.403 178.152 253.451 178.2L252.747 179.328C252.667 179.259 252.525 179.16 252.323 179.032C252.12 178.899 251.867 178.781 251.563 178.68C251.259 178.573 250.912 178.52 250.523 178.52C249.92 178.52 249.443 178.643 249.091 178.888C248.744 179.128 248.571 179.469 248.571 179.912C248.571 180.211 248.661 180.475 248.843 180.704C249.029 180.928 249.291 181.133 249.627 181.32C249.963 181.507 250.355 181.699 250.803 181.896C251.171 182.051 251.531 182.227 251.883 182.424C252.24 182.621 252.563 182.853 252.851 183.12C253.144 183.387 253.376 183.696 253.547 184.048C253.723 184.4 253.811 184.805 253.811 185.264C253.811 185.717 253.717 186.125 253.531 186.488C253.349 186.851 253.091 187.16 252.755 187.416C252.424 187.667 252.037 187.859 251.595 187.992C251.152 188.125 250.675 188.192 250.163 188.192C249.517 188.192 248.933 188.112 248.411 187.952C247.893 187.792 247.475 187.624 247.155 187.448C246.84 187.272 246.659 187.163 246.611 187.12L247.355 185.944C247.419 185.997 247.536 186.077 247.707 186.184C247.877 186.285 248.088 186.392 248.339 186.504C248.589 186.616 248.872 186.712 249.187 186.792C249.501 186.867 249.837 186.904 250.195 186.904C250.909 186.904 251.451 186.744 251.819 186.424C252.187 186.104 252.371 185.693 252.371 185.192C252.371 184.808 252.253 184.477 252.019 184.2C251.784 183.923 251.472 183.675 251.083 183.456C250.693 183.237 250.264 183.027 249.795 182.824C249.315 182.605 248.875 182.365 248.475 182.104C248.075 181.843 247.752 181.531 247.507 181.168C247.267 180.8 247.147 180.357 247.147 179.84C247.147 179.328 247.291 178.877 247.579 178.488C247.872 178.099 248.264 177.795 248.755 177.576C249.251 177.357 249.795 177.248 250.387 177.248ZM262.152 177.44H263.52V184C263.52 184.869 263.347 185.619 263 186.248C262.653 186.872 262.176 187.352 261.568 187.688C260.965 188.024 260.275 188.192 259.496 188.192C258.717 188.192 258.021 188.024 257.408 187.688C256.8 187.352 256.323 186.872 255.976 186.248C255.629 185.619 255.456 184.869 255.456 184V177.44H256.816V183.928C256.816 184.541 256.933 185.072 257.168 185.52C257.403 185.968 257.723 186.315 258.128 186.56C258.533 186.8 258.989 186.92 259.496 186.92C260.003 186.92 260.456 186.8 260.856 186.56C261.256 186.315 261.571 185.968 261.8 185.52C262.035 185.072 262.152 184.541 262.152 183.928V177.44ZM265.489 177.44H266.857V186.76H271.009V188H265.489V177.44ZM273.627 178.68H270.779V177.44H277.851V178.68H275.003V188H273.627V178.68ZM279.469 177.44H280.845V188H279.469V177.44ZM284.371 178.736L284.459 178.752V188H283.091V177.44H285.019L290.499 186.68L290.411 186.696V177.44H291.779V188H289.835L284.371 178.736ZM298.511 182.264H303.839V182.84C303.839 183.576 303.711 184.269 303.455 184.92C303.199 185.565 302.836 186.133 302.367 186.624C301.903 187.115 301.356 187.499 300.727 187.776C300.098 188.053 299.407 188.192 298.655 188.192C297.887 188.192 297.183 188.051 296.543 187.768C295.903 187.48 295.348 187.085 294.879 186.584C294.41 186.077 294.047 185.493 293.791 184.832C293.535 184.171 293.407 183.464 293.407 182.712C293.407 181.965 293.535 181.261 293.791 180.6C294.047 179.939 294.41 179.357 294.879 178.856C295.348 178.355 295.903 177.963 296.543 177.68C297.183 177.392 297.887 177.248 298.655 177.248C299.178 177.248 299.655 177.307 300.087 177.424C300.524 177.536 300.916 177.696 301.263 177.904C301.615 178.107 301.927 178.339 302.199 178.6C302.471 178.856 302.706 179.128 302.903 179.416L301.663 180.08C301.343 179.637 300.932 179.272 300.431 178.984C299.93 178.696 299.338 178.552 298.655 178.552C298.1 178.552 297.588 178.661 297.119 178.88C296.65 179.099 296.242 179.4 295.895 179.784C295.554 180.168 295.29 180.611 295.103 181.112C294.916 181.613 294.823 182.147 294.823 182.712C294.823 183.277 294.916 183.813 295.103 184.32C295.29 184.821 295.554 185.267 295.895 185.656C296.242 186.04 296.65 186.341 297.119 186.56C297.588 186.779 298.1 186.888 298.655 186.888C299.183 186.888 299.666 186.797 300.103 186.616C300.54 186.435 300.922 186.184 301.247 185.864C301.572 185.544 301.828 185.171 302.015 184.744C302.202 184.317 302.306 183.859 302.327 183.368H298.511V182.264Z" fill="#3A3A3A"/>
</svg>
