<svg width="373" height="270" viewBox="0 0 373 270" fill="none" xmlns="http://www.w3.org/2000/svg">
<path d="M110.847 107V101.019C110.577 101.618 109.888 102.488 108.778 103.627C107.699 104.766 106.26 105.801 104.461 106.73C102.662 107.63 100.563 108.079 98.1645 108.079C94.5667 108.079 91.4185 107.21 88.7201 105.471C86.0217 103.702 83.923 101.348 82.4238 98.4101C80.9247 95.4418 80.1752 92.1588 80.1752 88.5609C80.1752 84.9631 80.9247 81.695 82.4238 78.7567C83.923 75.7885 86.0217 73.4199 88.7201 71.6509C91.4185 69.882 94.5667 68.9975 98.1645 68.9975C100.473 68.9975 102.497 69.3723 104.236 70.1219C105.975 70.8414 107.384 71.7109 108.463 72.7303C109.543 73.7197 110.292 74.6342 110.712 75.4737V70.0769H124.294V107H110.847ZM93.5772 88.5609C93.5772 90.2399 93.967 91.754 94.7465 93.1032C95.5261 94.4225 96.5605 95.4568 97.8497 96.2064C99.1689 96.956 100.623 97.3307 102.212 97.3307C103.861 97.3307 105.315 96.956 106.575 96.2064C107.834 95.4568 108.823 94.4225 109.543 93.1032C110.292 91.754 110.667 90.2399 110.667 88.5609C110.667 86.8819 110.292 85.3828 109.543 84.0636C108.823 82.7144 107.834 81.665 106.575 80.9155C105.315 80.1359 103.861 79.7462 102.212 79.7462C100.623 79.7462 99.1689 80.1359 97.8497 80.9155C96.5605 81.665 95.5261 82.7144 94.7465 84.0636C93.967 85.3828 93.5772 86.8819 93.5772 88.5609ZM152.983 97.3307C154.692 97.3307 156.101 97.0459 157.21 96.4762C158.32 95.8766 159.069 95.3969 159.459 95.0371L165.71 104.302C165.231 104.691 164.406 105.201 163.237 105.831C162.067 106.43 160.598 106.955 158.829 107.405C157.09 107.854 155.097 108.079 152.848 108.079C148.62 108.079 144.903 107.285 141.695 105.696C138.486 104.077 135.983 101.798 134.184 98.8598C132.415 95.9216 131.531 92.4736 131.531 88.516C131.531 84.5283 132.415 81.0804 134.184 78.1721C135.983 75.2638 138.486 73.0151 141.695 71.4261C144.903 69.807 148.62 68.9975 152.848 68.9975C155.067 68.9975 157.045 69.2374 158.784 69.7171C160.553 70.1668 162.037 70.6915 163.237 71.2912C164.436 71.8608 165.276 72.3555 165.755 72.7753L159.369 82.1297C159.159 81.9199 158.769 81.62 158.2 81.2303C157.66 80.8405 156.955 80.4957 156.086 80.1959C155.216 79.8961 154.182 79.7462 152.983 79.7462C151.514 79.7462 150.134 80.1209 148.845 80.8705C147.586 81.62 146.567 82.6544 145.787 83.9736C145.008 85.2929 144.618 86.807 144.618 88.516C144.618 90.2249 145.008 91.754 145.787 93.1032C146.567 94.4225 147.586 95.4568 148.845 96.2064C150.134 96.956 151.514 97.3307 152.983 97.3307ZM167.768 70.0769H174.064V54.9209H187.601V70.0769H195.876V81.3202H187.601V91.6191C187.601 93.1482 187.826 94.3925 188.276 95.3519C188.725 96.2814 189.55 96.7461 190.749 96.7461C191.559 96.7461 192.248 96.5662 192.818 96.2064C193.388 95.8466 193.732 95.6068 193.852 95.4868L198.53 105.201C198.32 105.381 197.66 105.711 196.551 106.19C195.471 106.67 194.092 107.105 192.413 107.495C190.734 107.884 188.86 108.079 186.792 108.079C183.104 108.079 180.061 107.045 177.662 104.976C175.263 102.877 174.064 99.6544 174.064 95.3069V81.3202H167.768V70.0769ZM204.042 107V70.0769H217.714V107H204.042ZM211.057 62.4764C208.899 62.4764 207.07 61.7268 205.571 60.2277C204.072 58.6986 203.322 56.8847 203.322 54.7859C203.322 52.6872 204.072 50.8733 205.571 49.3442C207.1 47.7851 208.929 47.0056 211.057 47.0056C212.467 47.0056 213.756 47.3653 214.925 48.0849C216.094 48.7745 217.039 49.704 217.758 50.8733C218.478 52.0426 218.838 53.3468 218.838 54.7859C218.838 56.8847 218.073 58.6986 216.544 60.2277C215.015 61.7268 213.186 62.4764 211.057 62.4764ZM255.781 107V101.019C255.511 101.618 254.821 102.488 253.712 103.627C252.633 104.766 251.193 105.801 249.394 106.73C247.595 107.63 245.497 108.079 243.098 108.079C239.5 108.079 236.352 107.21 233.654 105.471C230.955 103.702 228.857 101.348 227.357 98.4101C225.858 95.4418 225.109 92.1588 225.109 88.5609C225.109 84.9631 225.858 81.695 227.357 78.7567C228.857 75.7885 230.955 73.4199 233.654 71.6509C236.352 69.882 239.5 68.9975 243.098 68.9975C245.407 68.9975 247.431 69.3723 249.17 70.1219C250.909 70.8414 252.318 71.7109 253.397 72.7303C254.476 73.7197 255.226 74.6342 255.646 75.4737V70.0769H269.228V107H255.781ZM238.511 88.5609C238.511 90.2399 238.901 91.754 239.68 93.1032C240.46 94.4225 241.494 95.4568 242.783 96.2064C244.103 96.956 245.557 97.3307 247.146 97.3307C248.795 97.3307 250.249 96.956 251.508 96.2064C252.767 95.4568 253.757 94.4225 254.476 93.1032C255.226 91.754 255.601 90.2399 255.601 88.5609C255.601 86.8819 255.226 85.3828 254.476 84.0636C253.757 82.7144 252.767 81.665 251.508 80.9155C250.249 80.1359 248.795 79.7462 247.146 79.7462C245.557 79.7462 244.103 80.1359 242.783 80.9155C241.494 81.665 240.46 82.7144 239.68 84.0636C238.901 85.3828 238.511 86.8819 238.511 88.5609ZM294.454 68.9975C296.882 68.9975 299.101 69.2074 301.11 69.6271C303.118 70.0169 304.797 70.4666 306.147 70.9763C307.526 71.486 308.41 71.9058 308.8 72.2356L304.348 80.2858C303.778 79.8661 302.714 79.3264 301.155 78.6668C299.625 78.0072 297.916 77.6774 296.028 77.6774C294.588 77.6774 293.374 77.9022 292.385 78.352C291.395 78.7717 290.901 79.4463 290.901 80.3758C290.901 81.3052 291.44 82.0548 292.52 82.6244C293.629 83.1641 295.218 83.6438 297.287 84.0636C299.086 84.4234 300.915 84.993 302.774 85.7726C304.632 86.5521 306.177 87.7064 307.406 89.2355C308.665 90.7346 309.295 92.7434 309.295 95.262C309.295 97.8404 308.74 99.9692 307.631 101.648C306.521 103.327 305.052 104.631 303.223 105.561C301.394 106.49 299.416 107.135 297.287 107.495C295.158 107.884 293.089 108.079 291.081 108.079C288.262 108.079 285.804 107.825 283.705 107.315C281.636 106.805 279.957 106.22 278.668 105.561C277.379 104.901 276.479 104.377 275.969 103.987L280.377 94.9921C281.156 95.6517 282.431 96.4013 284.2 97.2408C285.969 98.0503 287.842 98.4551 289.821 98.4551C291.74 98.4551 293.224 98.1702 294.274 97.6006C295.323 97.0309 295.848 96.2814 295.848 95.3519C295.848 94.6023 295.593 94.0027 295.083 93.553C294.573 93.1032 293.854 92.7135 292.924 92.3837C291.995 92.0539 290.871 91.754 289.551 91.4842C288.352 91.2443 287.078 90.8696 285.729 90.3599C284.379 89.8502 283.105 89.1606 281.906 88.2911C280.707 87.3916 279.732 86.2673 278.983 84.9181C278.233 83.5689 277.858 81.9349 277.858 80.016C277.858 77.5574 278.653 75.5187 280.242 73.8996C281.831 72.2806 283.885 71.0663 286.403 70.2568C288.922 69.4173 291.605 68.9975 294.454 68.9975ZM139 190H125.283V128.117H139V190ZM160.767 170.167C160.767 173.105 161.321 175.459 162.431 177.228C163.54 178.967 165.399 179.836 168.007 179.836C170.676 179.836 172.55 178.967 173.629 177.228C174.738 175.459 175.293 173.105 175.293 170.167V153.077H188.785V171.606C188.785 175.564 187.961 179.012 186.312 181.95C184.693 184.858 182.339 187.107 179.251 188.696C176.163 190.285 172.415 191.079 168.007 191.079C163.63 191.079 159.897 190.285 156.809 188.696C153.721 187.107 151.367 184.858 149.748 181.95C148.129 179.012 147.32 175.564 147.32 171.606V153.077H160.767V170.167ZM222.502 151.998C225.08 151.998 227.599 152.522 230.057 153.572C232.516 154.621 234.54 156.285 236.129 158.564C237.718 160.812 238.512 163.781 238.512 167.468V190H224.795V169.717C224.795 167.079 224.166 165.1 222.907 163.781C221.647 162.431 219.998 161.757 217.959 161.757C216.61 161.757 215.336 162.117 214.137 162.836C212.967 163.526 212.008 164.515 211.258 165.804C210.539 167.064 210.179 168.518 210.179 170.167V190H196.507V153.077H210.179V158.519C210.539 157.529 211.288 156.54 212.428 155.55C213.597 154.531 215.051 153.692 216.79 153.032C218.559 152.342 220.463 151.998 222.502 151.998ZM275.105 190V184.019C274.835 184.618 274.146 185.488 273.036 186.627C271.957 187.766 270.518 188.801 268.719 189.73C266.92 190.63 264.821 191.079 262.423 191.079C258.825 191.079 255.677 190.21 252.978 188.471C250.28 186.702 248.181 184.348 246.682 181.41C245.183 178.442 244.433 175.159 244.433 171.561C244.433 167.963 245.183 164.695 246.682 161.757C248.181 158.788 250.28 156.42 252.978 154.651C255.677 152.882 258.825 151.998 262.423 151.998C264.731 151.998 266.755 152.372 268.494 153.122C270.233 153.841 271.642 154.711 272.722 155.73C273.801 156.72 274.55 157.634 274.97 158.474V153.077H288.552V190H275.105ZM257.835 171.561C257.835 173.24 258.225 174.754 259.005 176.103C259.784 177.422 260.819 178.457 262.108 179.206C263.427 179.956 264.881 180.331 266.47 180.331C268.119 180.331 269.573 179.956 270.833 179.206C272.092 178.457 273.081 177.422 273.801 176.103C274.55 174.754 274.925 173.24 274.925 171.561C274.925 169.882 274.55 168.383 273.801 167.064C273.081 165.714 272.092 164.665 270.833 163.915C269.573 163.136 268.119 162.746 266.47 162.746C264.881 162.746 263.427 163.136 262.108 163.915C260.819 164.665 259.784 165.714 259.005 167.064C258.225 168.383 257.835 169.882 257.835 171.561Z" fill="black"/>
<line y1="62.5" x2="73" y2="62.5" stroke="#FFCC02" stroke-width="21"/>
<line x1="62.5" y1="73" x2="62.5" stroke="#FFCC02" stroke-width="21"/>
<line x1="373" y1="207.5" x2="300" y2="207.5" stroke="#FFCC02" stroke-width="21"/>
<line x1="310.5" y1="197" x2="310.5" y2="270" stroke="#FFCC02" stroke-width="21"/>
</svg>
