<svg width="407" height="267" viewBox="0 0 407 267" fill="none" xmlns="http://www.w3.org/2000/svg">
<mask id="path-1-outside-1_41_62" maskUnits="userSpaceOnUse" x="0" y="103" width="402" height="63" fill="black">
<rect fill="white" y="103" width="402" height="63"/>
<path d="M23.178 104.635H31.1832L53.1302 164H44.9001L39.7731 149.698H14.588L9.37114 164H1.14101L23.178 104.635ZM17.0616 142.773H37.3446L27.2705 114.08H27.1356L17.0616 142.773ZM76.6527 158.603C78.9913 158.603 80.8802 158.228 82.3193 157.479C83.7585 156.729 84.6579 156.19 85.0177 155.86L88.8404 161.481C88.5406 161.751 87.821 162.186 86.6817 162.786C85.5724 163.355 84.1332 163.88 82.3643 164.36C80.6253 164.84 78.6465 165.079 76.4278 165.079C73.0398 165.079 69.8917 164.33 66.9834 162.831C64.0751 161.302 61.7215 159.083 59.9226 156.175C58.1536 153.266 57.2692 149.713 57.2692 145.516C57.2692 141.288 58.1536 137.736 59.9226 134.857C61.7215 131.949 64.0751 129.745 66.9834 128.246C69.8917 126.747 73.0398 125.998 76.4278 125.998C78.6165 125.998 80.5653 126.267 82.2743 126.807C83.9833 127.317 85.3925 127.886 86.5018 128.516C87.6112 129.146 88.3457 129.625 88.7055 129.955L84.8378 135.577C84.598 135.337 84.1332 134.977 83.4436 134.497C82.784 133.988 81.8846 133.523 80.7452 133.103C79.6059 132.684 78.2417 132.474 76.6527 132.474C74.7338 132.474 72.8599 132.998 71.031 134.048C69.2321 135.067 67.7479 136.551 66.5786 138.5C65.4093 140.449 64.8247 142.788 64.8247 145.516C64.8247 148.244 65.4093 150.598 66.5786 152.577C67.7479 154.526 69.2321 156.025 71.031 157.074C72.8599 158.094 74.7338 158.603 76.6527 158.603ZM93.0799 127.077H100.321V111.921H108.101V127.077H117.59V133.778H108.101V152.037C108.101 154.196 108.476 155.785 109.225 156.804C110.005 157.824 111.039 158.333 112.328 158.333C113.468 158.333 114.352 158.123 114.982 157.704C115.612 157.284 115.986 156.999 116.106 156.849L119.209 162.606C119.03 162.756 118.55 163.041 117.77 163.46C116.991 163.88 115.986 164.255 114.757 164.585C113.528 164.914 112.089 165.079 110.44 165.079C107.561 165.079 105.148 164.21 103.199 162.471C101.28 160.702 100.321 157.914 100.321 154.106V133.778H93.0799V127.077ZM126.86 164V127.077H134.685V164H126.86ZM130.862 114.439C129.453 114.439 128.239 113.945 127.22 112.955C126.23 111.936 125.735 110.722 125.735 109.312C125.735 107.903 126.23 106.689 127.22 105.67C128.239 104.65 129.453 104.14 130.862 104.14C131.792 104.14 132.646 104.38 133.426 104.86C134.235 105.34 134.88 105.969 135.36 106.749C135.839 107.498 136.079 108.353 136.079 109.312C136.079 110.722 135.57 111.936 134.55 112.955C133.531 113.945 132.302 114.439 130.862 114.439ZM176.33 164V156.804C176.09 157.554 175.385 158.588 174.216 159.907C173.077 161.227 171.503 162.426 169.494 163.505C167.515 164.555 165.176 165.079 162.478 165.079C159.06 165.079 155.957 164.27 153.168 162.651C150.41 161.032 148.206 158.768 146.557 155.86C144.938 152.922 144.129 149.489 144.129 145.561C144.129 141.633 144.938 138.215 146.557 135.307C148.206 132.369 150.41 130.09 153.168 128.471C155.957 126.822 159.06 125.998 162.478 125.998C165.146 125.998 167.455 126.477 169.404 127.437C171.383 128.396 172.957 129.505 174.126 130.765C175.325 132.024 176.03 133.103 176.24 134.003V127.077H183.975V164H176.33ZM151.864 145.561C151.864 148.229 152.449 150.538 153.618 152.487C154.788 154.436 156.302 155.95 158.161 157.029C160.049 158.079 162.058 158.603 164.187 158.603C166.466 158.603 168.504 158.064 170.303 156.984C172.102 155.905 173.526 154.391 174.576 152.442C175.625 150.463 176.15 148.169 176.15 145.561C176.15 142.952 175.625 140.674 174.576 138.725C173.526 136.746 172.102 135.217 170.303 134.138C168.504 133.028 166.466 132.474 164.187 132.474C162.058 132.474 160.049 133.013 158.161 134.093C156.302 135.172 154.788 136.686 153.618 138.635C152.449 140.584 151.864 142.893 151.864 145.561ZM208.283 125.998C210.202 125.998 211.986 126.192 213.635 126.582C215.314 126.972 216.753 127.437 217.953 127.976C219.182 128.516 220.051 128.996 220.561 129.415L217.458 134.363C216.858 133.823 215.779 133.223 214.22 132.564C212.661 131.874 210.922 131.529 209.003 131.529C206.904 131.529 205.12 131.949 203.651 132.788C202.182 133.598 201.447 134.782 201.447 136.341C201.447 137.9 202.197 139.145 203.696 140.074C205.225 140.974 207.264 141.723 209.812 142.323C211.851 142.803 213.755 143.447 215.524 144.257C217.323 145.066 218.777 146.191 219.886 147.63C220.996 149.039 221.55 150.928 221.55 153.296C221.55 155.455 221.101 157.299 220.201 158.828C219.302 160.327 218.088 161.541 216.558 162.471C215.029 163.37 213.32 164.03 211.431 164.45C209.543 164.869 207.624 165.079 205.675 165.079C203.396 165.079 201.342 164.84 199.514 164.36C197.685 163.91 196.141 163.37 194.881 162.741C193.652 162.081 192.753 161.511 192.183 161.032L195.286 155.455C196.066 156.205 197.34 156.999 199.109 157.839C200.908 158.678 202.946 159.098 205.225 159.098C207.744 159.098 209.782 158.573 211.342 157.524C212.901 156.444 213.68 155.05 213.68 153.341C213.68 152.052 213.305 151.018 212.556 150.238C211.806 149.459 210.802 148.829 209.543 148.349C208.283 147.87 206.904 147.45 205.405 147.09C203.966 146.76 202.557 146.325 201.178 145.786C199.828 145.246 198.584 144.557 197.445 143.717C196.335 142.848 195.451 141.798 194.791 140.569C194.132 139.31 193.802 137.841 193.802 136.161C193.802 134.033 194.477 132.219 195.826 130.72C197.175 129.191 198.944 128.021 201.133 127.212C203.321 126.402 205.705 125.998 208.283 125.998ZM230.846 104.635H238.536V157.029H261.878V164H230.846V104.635ZM279.148 145.696C279.148 149.564 279.972 152.652 281.622 154.96C283.301 157.239 285.864 158.378 289.312 158.378C292.79 158.378 295.353 157.239 297.002 154.96C298.651 152.652 299.476 149.564 299.476 145.696V127.077H307.211V146.775C307.211 150.373 306.507 153.551 305.098 156.31C303.718 159.068 301.695 161.227 299.026 162.786C296.388 164.315 293.15 165.079 289.312 165.079C285.504 165.079 282.266 164.315 279.598 162.786C276.959 161.227 274.935 159.068 273.526 156.31C272.147 153.551 271.458 150.373 271.458 146.775V127.077H279.148V145.696ZM338.487 125.998C340.916 125.998 343.27 126.507 345.548 127.527C347.857 128.546 349.746 130.165 351.215 132.384C352.714 134.572 353.464 137.436 353.464 140.974V164H345.548V142.503C345.548 138.845 344.694 136.191 342.985 134.542C341.276 132.863 339.072 132.024 336.374 132.024C334.605 132.024 332.896 132.534 331.247 133.553C329.628 134.542 328.294 135.922 327.244 137.691C326.195 139.43 325.67 141.408 325.67 143.627V164H317.845V127.077H325.67V133.643C325.94 132.624 326.674 131.514 327.874 130.315C329.073 129.116 330.602 128.096 332.461 127.257C334.32 126.417 336.329 125.998 338.487 125.998ZM393.379 164V156.804C393.139 157.554 392.434 158.588 391.265 159.907C390.126 161.227 388.552 162.426 386.543 163.505C384.564 164.555 382.225 165.079 379.527 165.079C376.109 165.079 373.006 164.27 370.218 162.651C367.459 161.032 365.256 158.768 363.607 155.86C361.987 152.922 361.178 149.489 361.178 145.561C361.178 141.633 361.987 138.215 363.607 135.307C365.256 132.369 367.459 130.09 370.218 128.471C373.006 126.822 376.109 125.998 379.527 125.998C382.196 125.998 384.504 126.477 386.453 127.437C388.432 128.396 390.006 129.505 391.175 130.765C392.374 132.024 393.079 133.103 393.289 134.003V127.077H401.024V164H393.379ZM368.913 145.561C368.913 148.229 369.498 150.538 370.667 152.487C371.837 154.436 373.351 155.95 375.21 157.029C377.099 158.079 379.107 158.603 381.236 158.603C383.515 158.603 385.554 158.064 387.352 156.984C389.151 155.905 390.576 154.391 391.625 152.442C392.674 150.463 393.199 148.169 393.199 145.561C393.199 142.952 392.674 140.674 391.625 138.725C390.576 136.746 389.151 135.217 387.352 134.138C385.554 133.028 383.515 132.474 381.236 132.474C379.107 132.474 377.099 133.013 375.21 134.093C373.351 135.172 371.837 136.686 370.667 138.635C369.498 140.584 368.913 142.893 368.913 145.561Z"/>
</mask>
<path d="M23.178 104.635H31.1832L53.1302 164H44.9001L39.7731 149.698H14.588L9.37114 164H1.14101L23.178 104.635ZM17.0616 142.773H37.3446L27.2705 114.08H27.1356L17.0616 142.773ZM76.6527 158.603C78.9913 158.603 80.8802 158.228 82.3193 157.479C83.7585 156.729 84.6579 156.19 85.0177 155.86L88.8404 161.481C88.5406 161.751 87.821 162.186 86.6817 162.786C85.5724 163.355 84.1332 163.88 82.3643 164.36C80.6253 164.84 78.6465 165.079 76.4278 165.079C73.0398 165.079 69.8917 164.33 66.9834 162.831C64.0751 161.302 61.7215 159.083 59.9226 156.175C58.1536 153.266 57.2692 149.713 57.2692 145.516C57.2692 141.288 58.1536 137.736 59.9226 134.857C61.7215 131.949 64.0751 129.745 66.9834 128.246C69.8917 126.747 73.0398 125.998 76.4278 125.998C78.6165 125.998 80.5653 126.267 82.2743 126.807C83.9833 127.317 85.3925 127.886 86.5018 128.516C87.6112 129.146 88.3457 129.625 88.7055 129.955L84.8378 135.577C84.598 135.337 84.1332 134.977 83.4436 134.497C82.784 133.988 81.8846 133.523 80.7452 133.103C79.6059 132.684 78.2417 132.474 76.6527 132.474C74.7338 132.474 72.8599 132.998 71.031 134.048C69.2321 135.067 67.7479 136.551 66.5786 138.5C65.4093 140.449 64.8247 142.788 64.8247 145.516C64.8247 148.244 65.4093 150.598 66.5786 152.577C67.7479 154.526 69.2321 156.025 71.031 157.074C72.8599 158.094 74.7338 158.603 76.6527 158.603ZM93.0799 127.077H100.321V111.921H108.101V127.077H117.59V133.778H108.101V152.037C108.101 154.196 108.476 155.785 109.225 156.804C110.005 157.824 111.039 158.333 112.328 158.333C113.468 158.333 114.352 158.123 114.982 157.704C115.612 157.284 115.986 156.999 116.106 156.849L119.209 162.606C119.03 162.756 118.55 163.041 117.77 163.46C116.991 163.88 115.986 164.255 114.757 164.585C113.528 164.914 112.089 165.079 110.44 165.079C107.561 165.079 105.148 164.21 103.199 162.471C101.28 160.702 100.321 157.914 100.321 154.106V133.778H93.0799V127.077ZM126.86 164V127.077H134.685V164H126.86ZM130.862 114.439C129.453 114.439 128.239 113.945 127.22 112.955C126.23 111.936 125.735 110.722 125.735 109.312C125.735 107.903 126.23 106.689 127.22 105.67C128.239 104.65 129.453 104.14 130.862 104.14C131.792 104.14 132.646 104.38 133.426 104.86C134.235 105.34 134.88 105.969 135.36 106.749C135.839 107.498 136.079 108.353 136.079 109.312C136.079 110.722 135.57 111.936 134.55 112.955C133.531 113.945 132.302 114.439 130.862 114.439ZM176.33 164V156.804C176.09 157.554 175.385 158.588 174.216 159.907C173.077 161.227 171.503 162.426 169.494 163.505C167.515 164.555 165.176 165.079 162.478 165.079C159.06 165.079 155.957 164.27 153.168 162.651C150.41 161.032 148.206 158.768 146.557 155.86C144.938 152.922 144.129 149.489 144.129 145.561C144.129 141.633 144.938 138.215 146.557 135.307C148.206 132.369 150.41 130.09 153.168 128.471C155.957 126.822 159.06 125.998 162.478 125.998C165.146 125.998 167.455 126.477 169.404 127.437C171.383 128.396 172.957 129.505 174.126 130.765C175.325 132.024 176.03 133.103 176.24 134.003V127.077H183.975V164H176.33ZM151.864 145.561C151.864 148.229 152.449 150.538 153.618 152.487C154.788 154.436 156.302 155.95 158.161 157.029C160.049 158.079 162.058 158.603 164.187 158.603C166.466 158.603 168.504 158.064 170.303 156.984C172.102 155.905 173.526 154.391 174.576 152.442C175.625 150.463 176.15 148.169 176.15 145.561C176.15 142.952 175.625 140.674 174.576 138.725C173.526 136.746 172.102 135.217 170.303 134.138C168.504 133.028 166.466 132.474 164.187 132.474C162.058 132.474 160.049 133.013 158.161 134.093C156.302 135.172 154.788 136.686 153.618 138.635C152.449 140.584 151.864 142.893 151.864 145.561ZM208.283 125.998C210.202 125.998 211.986 126.192 213.635 126.582C215.314 126.972 216.753 127.437 217.953 127.976C219.182 128.516 220.051 128.996 220.561 129.415L217.458 134.363C216.858 133.823 215.779 133.223 214.22 132.564C212.661 131.874 210.922 131.529 209.003 131.529C206.904 131.529 205.12 131.949 203.651 132.788C202.182 133.598 201.447 134.782 201.447 136.341C201.447 137.9 202.197 139.145 203.696 140.074C205.225 140.974 207.264 141.723 209.812 142.323C211.851 142.803 213.755 143.447 215.524 144.257C217.323 145.066 218.777 146.191 219.886 147.63C220.996 149.039 221.55 150.928 221.55 153.296C221.55 155.455 221.101 157.299 220.201 158.828C219.302 160.327 218.088 161.541 216.558 162.471C215.029 163.37 213.32 164.03 211.431 164.45C209.543 164.869 207.624 165.079 205.675 165.079C203.396 165.079 201.342 164.84 199.514 164.36C197.685 163.91 196.141 163.37 194.881 162.741C193.652 162.081 192.753 161.511 192.183 161.032L195.286 155.455C196.066 156.205 197.34 156.999 199.109 157.839C200.908 158.678 202.946 159.098 205.225 159.098C207.744 159.098 209.782 158.573 211.342 157.524C212.901 156.444 213.68 155.05 213.68 153.341C213.68 152.052 213.305 151.018 212.556 150.238C211.806 149.459 210.802 148.829 209.543 148.349C208.283 147.87 206.904 147.45 205.405 147.09C203.966 146.76 202.557 146.325 201.178 145.786C199.828 145.246 198.584 144.557 197.445 143.717C196.335 142.848 195.451 141.798 194.791 140.569C194.132 139.31 193.802 137.841 193.802 136.161C193.802 134.033 194.477 132.219 195.826 130.72C197.175 129.191 198.944 128.021 201.133 127.212C203.321 126.402 205.705 125.998 208.283 125.998ZM230.846 104.635H238.536V157.029H261.878V164H230.846V104.635ZM279.148 145.696C279.148 149.564 279.972 152.652 281.622 154.96C283.301 157.239 285.864 158.378 289.312 158.378C292.79 158.378 295.353 157.239 297.002 154.96C298.651 152.652 299.476 149.564 299.476 145.696V127.077H307.211V146.775C307.211 150.373 306.507 153.551 305.098 156.31C303.718 159.068 301.695 161.227 299.026 162.786C296.388 164.315 293.15 165.079 289.312 165.079C285.504 165.079 282.266 164.315 279.598 162.786C276.959 161.227 274.935 159.068 273.526 156.31C272.147 153.551 271.458 150.373 271.458 146.775V127.077H279.148V145.696ZM338.487 125.998C340.916 125.998 343.27 126.507 345.548 127.527C347.857 128.546 349.746 130.165 351.215 132.384C352.714 134.572 353.464 137.436 353.464 140.974V164H345.548V142.503C345.548 138.845 344.694 136.191 342.985 134.542C341.276 132.863 339.072 132.024 336.374 132.024C334.605 132.024 332.896 132.534 331.247 133.553C329.628 134.542 328.294 135.922 327.244 137.691C326.195 139.43 325.67 141.408 325.67 143.627V164H317.845V127.077H325.67V133.643C325.94 132.624 326.674 131.514 327.874 130.315C329.073 129.116 330.602 128.096 332.461 127.257C334.32 126.417 336.329 125.998 338.487 125.998ZM393.379 164V156.804C393.139 157.554 392.434 158.588 391.265 159.907C390.126 161.227 388.552 162.426 386.543 163.505C384.564 164.555 382.225 165.079 379.527 165.079C376.109 165.079 373.006 164.27 370.218 162.651C367.459 161.032 365.256 158.768 363.607 155.86C361.987 152.922 361.178 149.489 361.178 145.561C361.178 141.633 361.987 138.215 363.607 135.307C365.256 132.369 367.459 130.09 370.218 128.471C373.006 126.822 376.109 125.998 379.527 125.998C382.196 125.998 384.504 126.477 386.453 127.437C388.432 128.396 390.006 129.505 391.175 130.765C392.374 132.024 393.079 133.103 393.289 134.003V127.077H401.024V164H393.379ZM368.913 145.561C368.913 148.229 369.498 150.538 370.667 152.487C371.837 154.436 373.351 155.95 375.21 157.029C377.099 158.079 379.107 158.603 381.236 158.603C383.515 158.603 385.554 158.064 387.352 156.984C389.151 155.905 390.576 154.391 391.625 152.442C392.674 150.463 393.199 148.169 393.199 145.561C393.199 142.952 392.674 140.674 391.625 138.725C390.576 136.746 389.151 135.217 387.352 134.138C385.554 133.028 383.515 132.474 381.236 132.474C379.107 132.474 377.099 133.013 375.21 134.093C373.351 135.172 371.837 136.686 370.667 138.635C369.498 140.584 368.913 142.893 368.913 145.561Z" fill="white"/>
<path d="M23.178 104.635V104.006H22.7405L22.5883 104.416L23.178 104.635ZM31.1832 104.635L31.7732 104.417L31.6213 104.006H31.1832V104.635ZM53.1302 164V164.629H54.0333L53.7202 163.782L53.1302 164ZM44.9001 164L44.308 164.212L44.4574 164.629H44.9001V164ZM39.7731 149.698L40.3652 149.486L40.2158 149.069H39.7731V149.698ZM14.588 149.698V149.069H14.148L13.9971 149.483L14.588 149.698ZM9.37114 164V164.629H9.81123L9.96205 164.216L9.37114 164ZM1.14101 164L0.551333 163.781L0.236585 164.629H1.14101V164ZM17.0616 142.773L16.4681 142.564L16.1741 143.402H17.0616V142.773ZM37.3446 142.773V143.402H38.232L37.938 142.564L37.3446 142.773ZM27.2705 114.08L27.864 113.871L27.7163 113.451H27.2705V114.08ZM27.1356 114.08V113.451H26.6898L26.5421 113.871L27.1356 114.08ZM23.178 105.264H31.1832V104.006H23.178V105.264ZM30.5932 104.853L52.5402 164.218L53.7202 163.782L31.7732 104.417L30.5932 104.853ZM53.1302 163.371H44.9001V164.629H53.1302V163.371ZM45.4922 163.788L40.3652 149.486L39.181 149.911L44.308 164.212L45.4922 163.788ZM39.7731 149.069H14.588V150.327H39.7731V149.069ZM13.9971 149.483L8.78023 163.784L9.96205 164.216L15.179 149.914L13.9971 149.483ZM9.37114 163.371H1.14101V164.629H9.37114V163.371ZM1.73069 164.219L23.7676 104.854L22.5883 104.416L0.551333 163.781L1.73069 164.219ZM17.0616 143.402H37.3446V142.144H17.0616V143.402ZM37.938 142.564L27.864 113.871L26.677 114.288L36.7511 142.981L37.938 142.564ZM27.2705 113.451H27.1356V114.709H27.2705V113.451ZM26.5421 113.871L16.4681 142.564L17.6551 142.981L27.7291 114.288L26.5421 113.871ZM82.3193 157.479L82.0288 156.921L82.0288 156.921L82.3193 157.479ZM85.0177 155.86L85.5378 155.506L85.1288 154.905L84.5927 155.396L85.0177 155.86ZM88.8404 161.481L89.2612 161.949L89.6693 161.582L89.3606 161.128L88.8404 161.481ZM86.6817 162.786L86.9691 163.345L86.9747 163.342L86.6817 162.786ZM82.3643 164.36L82.1997 163.753L82.197 163.753L82.3643 164.36ZM66.9834 162.831L66.6907 163.387L66.6952 163.39L66.9834 162.831ZM59.9226 156.175L59.3852 156.502L59.3876 156.506L59.9226 156.175ZM59.9226 134.857L59.3876 134.526L59.3867 134.528L59.9226 134.857ZM66.9834 128.246L67.2716 128.805L67.2716 128.805L66.9834 128.246ZM82.2743 126.807L82.0849 127.407L82.0946 127.41L82.2743 126.807ZM88.7055 129.955L89.2237 130.312L89.5337 129.861L89.1306 129.492L88.7055 129.955ZM84.8378 135.577L84.393 136.022L84.9276 136.556L85.356 135.933L84.8378 135.577ZM83.4436 134.497L83.059 134.995L83.0715 135.005L83.0844 135.014L83.4436 134.497ZM80.7452 133.103L80.5278 133.694L80.5278 133.694L80.7452 133.103ZM71.031 134.048L71.3411 134.595L71.344 134.593L71.031 134.048ZM66.5786 138.5L66.0393 138.176L66.0393 138.176L66.5786 138.5ZM66.5786 152.577L66.0371 152.897L66.0393 152.9L66.5786 152.577ZM71.031 157.074L70.714 157.618L70.7248 157.624L71.031 157.074ZM76.6527 159.232C79.0508 159.232 81.0502 158.849 82.6099 158.037L82.0288 156.921C80.7101 157.608 78.9317 157.974 76.6527 157.974V159.232ZM82.6099 158.037C83.3353 157.659 83.9322 157.33 84.3969 157.051C84.8514 156.779 85.2129 156.534 85.4427 156.323L84.5927 155.396C84.4627 155.515 84.1946 155.706 83.7497 155.973C83.3149 156.233 82.7425 156.549 82.0288 156.921L82.6099 158.037ZM84.4976 156.214L88.3203 161.835L89.3606 161.128L85.5378 155.506L84.4976 156.214ZM88.4197 161.014C88.1888 161.222 87.5434 161.621 86.3888 162.229L86.9747 163.342C88.0987 162.751 88.8924 162.281 89.2612 161.949L88.4197 161.014ZM86.3944 162.226C85.3378 162.769 83.944 163.28 82.1997 163.753L82.5289 164.967C84.3225 164.48 85.807 163.942 86.9691 163.345L86.3944 162.226ZM82.197 163.753C80.5233 164.215 78.6024 164.45 76.4278 164.45V165.708C78.6906 165.708 80.7273 165.464 82.5316 164.966L82.197 163.753ZM76.4278 164.45C73.1364 164.45 70.0875 163.723 67.2716 162.272L66.6952 163.39C69.6958 164.936 72.9432 165.708 76.4278 165.708V164.45ZM67.2761 162.274C64.4715 160.799 62.1999 158.661 60.4575 155.844L59.3876 156.506C61.2432 159.505 63.6788 161.804 66.6907 163.387L67.2761 162.274ZM60.46 155.848C58.7635 153.059 57.8982 149.625 57.8982 145.516H56.6402C56.6402 149.802 57.5438 153.474 59.3852 156.502L60.46 155.848ZM57.8982 145.516C57.8982 141.376 58.764 137.944 60.4585 135.187L59.3867 134.528C57.5433 137.527 56.6402 141.201 56.6402 145.516H57.8982ZM60.4575 135.188C62.1993 132.372 64.4694 130.25 67.2716 128.805L66.6952 127.687C63.6808 129.241 61.2438 131.526 59.3876 134.526L60.4575 135.188ZM67.2716 128.805C70.0875 127.354 73.1364 126.627 76.4278 126.627V125.369C72.9432 125.369 69.6958 126.14 66.6952 127.687L67.2716 128.805ZM76.4278 126.627C78.5659 126.627 80.449 126.89 82.0849 127.407L82.4637 126.207C80.6817 125.644 78.6671 125.369 76.4278 125.369V126.627ZM82.0946 127.41C83.7745 127.911 85.136 128.464 86.1914 129.063L86.8123 127.969C85.6489 127.309 84.1921 126.723 82.4541 126.204L82.0946 127.41ZM86.1914 129.063C87.3049 129.695 87.9801 130.143 88.2805 130.419L89.1306 129.492C88.7114 129.107 87.9175 128.596 86.8123 127.969L86.1914 129.063ZM88.1873 129.599L84.3196 135.22L85.356 135.933L89.2237 130.312L88.1873 129.599ZM85.2826 135.132C84.9987 134.848 84.4914 134.46 83.8028 133.981L83.0844 135.014C83.7751 135.494 84.1973 135.826 84.393 136.022L85.2826 135.132ZM83.8282 134C83.1006 133.437 82.1373 132.946 80.9627 132.513L80.5278 133.694C81.6319 134.1 82.4675 134.538 83.059 134.995L83.8282 134ZM80.9627 132.513C79.736 132.061 78.2943 131.845 76.6527 131.845V133.103C78.1892 133.103 79.4759 133.306 80.5278 133.694L80.9627 132.513ZM76.6527 131.845C74.6133 131.845 72.6325 132.404 70.718 133.502L71.344 134.593C73.0874 133.593 74.8543 133.103 76.6527 133.103V131.845ZM70.7209 133.501C68.8184 134.579 67.2587 136.144 66.0393 138.176L67.118 138.824C68.2371 136.958 69.6458 135.556 71.3411 134.595L70.7209 133.501ZM66.0393 138.176C64.8005 140.241 64.1957 142.697 64.1957 145.516H65.4537C65.4537 142.879 66.0181 140.657 67.118 138.824L66.0393 138.176ZM64.1957 145.516C64.1957 148.336 64.8006 150.804 66.0371 152.897L67.1202 152.257C66.018 150.392 65.4537 148.153 65.4537 145.516H64.1957ZM66.0393 152.9C67.258 154.932 68.8155 156.51 70.7141 157.617L71.3479 156.531C69.6486 155.54 68.2379 154.12 67.118 152.253L66.0393 152.9ZM70.7248 157.624C72.6385 158.69 74.617 159.232 76.6527 159.232V157.974C74.8506 157.974 73.0813 157.497 71.3372 156.525L70.7248 157.624ZM93.0799 127.077V126.448H92.4509V127.077H93.0799ZM100.321 127.077V127.706H100.95V127.077H100.321ZM100.321 111.921V111.292H99.6916V111.921H100.321ZM108.101 111.921H108.73V111.292H108.101V111.921ZM108.101 127.077H107.472V127.706H108.101V127.077ZM117.59 127.077H118.219V126.448H117.59V127.077ZM117.59 133.778V134.407H118.219V133.778H117.59ZM108.101 133.778V133.149H107.472V133.778H108.101ZM109.225 156.804L108.718 157.177L108.726 157.186L109.225 156.804ZM114.982 157.704L114.633 157.18L114.633 157.18L114.982 157.704ZM116.106 156.849L116.66 156.551L116.209 155.714L115.615 156.456L116.106 156.849ZM119.209 162.606L119.612 163.089L120.007 162.76L119.763 162.307L119.209 162.606ZM117.77 163.46L118.068 164.014L118.068 164.014L117.77 163.46ZM114.757 164.585L114.92 165.192L114.92 165.192L114.757 164.585ZM103.199 162.471L102.772 162.933L102.78 162.94L103.199 162.471ZM100.321 133.778H100.95V133.149H100.321V133.778ZM93.0799 133.778H92.4509V134.407H93.0799V133.778ZM93.0799 127.706H100.321V126.448H93.0799V127.706ZM100.95 127.077V111.921H99.6916V127.077H100.95ZM100.321 112.55H108.101V111.292H100.321V112.55ZM107.472 111.921V127.077H108.73V111.921H107.472ZM108.101 127.706H117.59V126.448H108.101V127.706ZM116.961 127.077V133.778H118.219V127.077H116.961ZM117.59 133.149H108.101V134.407H117.59V133.149ZM107.472 133.778V152.037H108.73V133.778H107.472ZM107.472 152.037C107.472 154.245 107.851 155.997 108.719 157.177L109.732 156.432C109.101 155.573 108.73 154.147 108.73 152.037H107.472ZM108.726 157.186C109.625 158.362 110.844 158.962 112.328 158.962V157.704C111.234 157.704 110.385 157.285 109.725 156.422L108.726 157.186ZM112.328 158.962C113.533 158.962 114.558 158.742 115.331 158.227L114.633 157.18C114.147 157.505 113.402 157.704 112.328 157.704V158.962ZM115.331 158.227C115.651 158.014 115.914 157.83 116.116 157.676C116.302 157.535 116.483 157.385 116.597 157.242L115.615 156.456C115.619 156.452 115.604 156.47 115.553 156.514C115.506 156.556 115.441 156.609 115.355 156.675C115.182 156.806 114.943 156.974 114.633 157.18L115.331 158.227ZM115.553 157.148L118.656 162.904L119.763 162.307L116.66 156.551L115.553 157.148ZM118.807 162.123C118.686 162.223 118.271 162.477 117.472 162.907L118.068 164.014C118.829 163.605 119.373 163.288 119.612 163.089L118.807 162.123ZM117.472 162.907C116.749 163.296 115.795 163.655 114.594 163.977L114.92 165.192C116.178 164.855 117.232 164.465 118.068 164.014L117.472 162.907ZM114.594 163.977C113.431 164.289 112.049 164.45 110.44 164.45V165.708C112.128 165.708 113.625 165.54 114.92 165.192L114.594 163.977ZM110.44 164.45C107.699 164.45 105.439 163.627 103.618 162.002L102.78 162.94C104.856 164.793 107.424 165.708 110.44 165.708V164.45ZM103.625 162.008C101.885 160.404 100.95 157.82 100.95 154.106H99.6916C99.6916 158.008 100.675 160.999 102.773 162.933L103.625 162.008ZM100.95 154.106V133.778H99.6916V154.106H100.95ZM100.321 133.149H93.0799V134.407H100.321V133.149ZM93.7089 133.778V127.077H92.4509V133.778H93.7089ZM126.86 164H126.231V164.629H126.86V164ZM126.86 127.077V126.448H126.231V127.077H126.86ZM134.685 127.077H135.314V126.448H134.685V127.077ZM134.685 164V164.629H135.314V164H134.685ZM127.22 112.955L126.768 113.393L126.775 113.4L126.781 113.407L127.22 112.955ZM127.22 105.67L126.775 105.225L126.768 105.231L127.22 105.67ZM133.426 104.86L133.096 105.396L133.105 105.401L133.426 104.86ZM135.36 106.749L134.824 107.079L134.83 107.088L135.36 106.749ZM134.55 112.955L134.988 113.407L134.995 113.4L134.55 112.955ZM127.489 164V127.077H126.231V164H127.489ZM126.86 127.706H134.685V126.448H126.86V127.706ZM134.056 127.077V164H135.314V127.077H134.056ZM134.685 163.371H126.86V164.629H134.685V163.371ZM130.862 113.81C129.618 113.81 128.561 113.38 127.658 112.504L126.781 113.407C127.917 114.509 129.288 115.068 130.862 115.068V113.81ZM127.671 112.517C126.794 111.614 126.364 110.557 126.364 109.312H125.106C125.106 110.887 125.666 112.258 126.768 113.393L127.671 112.517ZM126.364 109.312C126.364 108.068 126.794 107.011 127.671 106.108L126.768 105.231C125.666 106.367 125.106 107.738 125.106 109.312H126.364ZM127.664 106.114C128.569 105.21 129.624 104.769 130.862 104.769V103.511C129.282 103.511 127.909 104.09 126.775 105.225L127.664 106.114ZM130.862 104.769C131.677 104.769 132.417 104.978 133.096 105.396L133.756 104.324C132.875 103.783 131.906 103.511 130.862 103.511V104.769ZM133.105 105.401C133.83 105.83 134.399 106.388 134.824 107.079L135.895 106.419C135.361 105.55 134.641 104.849 133.747 104.319L133.105 105.401ZM134.83 107.088C135.24 107.728 135.45 108.463 135.45 109.312H136.708C136.708 108.243 136.439 107.269 135.89 106.41L134.83 107.088ZM135.45 109.312C135.45 110.55 135.01 111.606 134.105 112.51L134.995 113.4C136.129 112.266 136.708 110.893 136.708 109.312H135.45ZM134.112 112.504C133.212 113.378 132.14 113.81 130.862 113.81V115.068C132.463 115.068 133.85 114.512 134.988 113.407L134.112 112.504ZM176.33 164H175.701V164.629H176.33V164ZM176.33 156.804H176.959L175.731 156.613L176.33 156.804ZM174.216 159.907L173.745 159.49L173.74 159.496L174.216 159.907ZM169.494 163.505L169.789 164.061L169.792 164.059L169.494 163.505ZM153.168 162.651L152.85 163.193L152.853 163.195L153.168 162.651ZM146.557 155.86L146.006 156.163L146.01 156.17L146.557 155.86ZM146.557 135.307L146.009 134.999L146.008 135.001L146.557 135.307ZM153.168 128.471L153.487 129.014L153.489 129.012L153.168 128.471ZM169.404 127.437L169.126 128.001L169.129 128.003L169.404 127.437ZM174.126 130.765L173.665 131.193L173.671 131.198L174.126 130.765ZM176.24 134.003L175.627 134.146L176.869 134.003H176.24ZM176.24 127.077V126.448H175.611V127.077H176.24ZM183.975 127.077H184.604V126.448H183.975V127.077ZM183.975 164V164.629H184.604V164H183.975ZM158.161 157.029L157.845 157.573L157.855 157.579L158.161 157.029ZM174.576 152.442L175.13 152.74L175.132 152.737L174.576 152.442ZM174.576 138.725L174.02 139.02L174.022 139.023L174.576 138.725ZM170.303 134.138L169.973 134.673L169.98 134.677L170.303 134.138ZM158.161 134.093L157.848 133.547L157.845 133.549L158.161 134.093ZM176.959 164V156.804H175.701V164H176.959ZM175.731 156.613C175.534 157.226 174.911 158.175 173.745 159.49L174.687 160.325C175.86 159.001 176.645 157.882 176.929 156.996L175.731 156.613ZM173.74 159.496C172.664 160.743 171.157 161.898 169.196 162.951L169.792 164.059C171.848 162.954 173.49 161.711 174.692 160.319L173.74 159.496ZM169.199 162.95C167.328 163.942 165.095 164.45 162.478 164.45V165.708C165.258 165.708 167.702 165.167 169.789 164.061L169.199 162.95ZM162.478 164.45C159.164 164.45 156.171 163.667 153.484 162.107L152.853 163.195C155.743 164.873 158.956 165.708 162.478 165.708V164.45ZM153.487 162.108C150.828 160.548 148.702 158.366 147.105 155.55L146.01 156.17C147.711 159.17 149.992 161.516 152.85 163.193L153.487 162.108ZM147.108 155.556C145.549 152.726 144.758 149.401 144.758 145.561H143.5C143.5 149.577 144.328 153.117 146.007 156.163L147.108 155.556ZM144.758 145.561C144.758 141.721 145.549 138.412 147.107 135.613L146.008 135.001C144.328 138.018 143.5 141.546 143.5 145.561H144.758ZM147.106 135.615C148.703 132.768 150.83 130.573 153.487 129.014L152.85 127.929C149.99 129.607 147.709 131.969 146.009 134.999L147.106 135.615ZM153.489 129.012C156.175 127.424 159.166 126.627 162.478 126.627V125.369C158.954 125.369 155.739 126.22 152.848 127.93L153.489 129.012ZM162.478 126.627C165.072 126.627 167.281 127.093 169.126 128.001L169.682 126.872C167.629 125.862 165.221 125.369 162.478 125.369V126.627ZM169.129 128.003C171.057 128.937 172.561 130.004 173.665 131.193L174.587 130.337C173.352 129.007 171.709 127.855 169.678 126.871L169.129 128.003ZM173.671 131.198C174.85 132.437 175.457 133.415 175.627 134.146L176.852 133.86C176.603 132.792 175.801 131.611 174.582 130.331L173.671 131.198ZM176.869 134.003V127.077H175.611V134.003H176.869ZM176.24 127.706H183.975V126.448H176.24V127.706ZM183.346 127.077V164H184.604V127.077H183.346ZM183.975 163.371H176.33V164.629H183.975V163.371ZM151.235 145.561C151.235 148.323 151.841 150.748 153.079 152.81L154.158 152.163C153.056 150.328 152.493 148.135 152.493 145.561H151.235ZM153.079 152.81C154.3 154.845 155.889 156.437 157.845 157.573L158.476 156.485C156.715 155.462 155.275 154.026 154.158 152.163L153.079 152.81ZM157.855 157.579C159.836 158.679 161.95 159.232 164.187 159.232V157.974C162.167 157.974 160.263 157.478 158.466 156.479L157.855 157.579ZM164.187 159.232C166.569 159.232 168.722 158.667 170.627 157.524L169.98 156.445C168.287 157.46 166.362 157.974 164.187 157.974V159.232ZM170.627 157.524C172.528 156.383 174.03 154.783 175.13 152.74L174.022 152.144C173.023 153.999 171.676 155.427 169.98 156.445L170.627 157.524ZM175.132 152.737C176.236 150.653 176.779 148.255 176.779 145.561H175.521C175.521 148.084 175.014 150.273 174.02 152.147L175.132 152.737ZM176.779 145.561C176.779 142.867 176.236 140.482 175.13 138.427L174.022 139.023C175.014 140.865 175.521 143.038 175.521 145.561H176.779ZM175.132 138.43C174.032 136.357 172.531 134.741 170.627 133.598L169.98 134.677C171.674 135.693 173.021 137.135 174.02 139.02L175.132 138.43ZM170.633 133.602C168.728 132.427 166.573 131.845 164.187 131.845V133.103C166.358 133.103 168.281 133.63 169.973 134.673L170.633 133.602ZM164.187 131.845C161.946 131.845 159.83 132.414 157.848 133.547L158.473 134.639C160.269 133.613 162.17 133.103 164.187 133.103V131.845ZM157.845 133.549C155.889 134.685 154.3 136.277 153.079 138.311L154.158 138.959C155.275 137.096 156.715 135.66 158.476 134.637L157.845 133.549ZM153.079 138.311C151.841 140.374 151.235 142.799 151.235 145.561H152.493C152.493 142.986 153.056 140.794 154.158 138.959L153.079 138.311ZM213.635 126.582L213.49 127.194L213.493 127.195L213.635 126.582ZM217.953 127.976L217.694 128.55L217.7 128.552L217.953 127.976ZM220.561 129.415L221.094 129.75L221.388 129.281L220.961 128.93L220.561 129.415ZM217.458 134.363L217.037 134.83L217.593 135.331L217.991 134.697L217.458 134.363ZM214.22 132.564L213.965 133.139L213.975 133.143L214.22 132.564ZM203.651 132.788L203.955 133.339L203.963 133.335L203.651 132.788ZM203.696 140.074L203.365 140.609L203.371 140.613L203.377 140.616L203.696 140.074ZM209.812 142.323L209.668 142.935L209.668 142.935L209.812 142.323ZM215.524 144.257L215.262 144.829L215.266 144.83L215.524 144.257ZM219.886 147.63L219.388 148.014L219.392 148.019L219.886 147.63ZM220.201 158.828L220.741 159.152L220.743 159.147L220.201 158.828ZM216.558 162.471L216.877 163.013L216.885 163.008L216.558 162.471ZM211.431 164.45L211.568 165.064L211.431 164.45ZM199.514 164.36L199.673 163.751L199.664 163.749L199.514 164.36ZM194.881 162.741L194.584 163.295L194.592 163.299L194.6 163.303L194.881 162.741ZM192.183 161.032L191.633 160.726L191.381 161.179L191.778 161.513L192.183 161.032ZM195.286 155.455L195.722 155.002L195.133 154.436L194.736 155.149L195.286 155.455ZM199.109 157.839L198.839 158.407L198.843 158.409L199.109 157.839ZM211.342 157.524L211.693 158.046L211.7 158.041L211.342 157.524ZM212.556 150.238L212.102 150.674L212.102 150.674L212.556 150.238ZM205.405 147.09L205.552 146.478L205.546 146.477L205.405 147.09ZM201.178 145.786L200.944 146.37L200.948 146.372L201.178 145.786ZM197.445 143.717L197.057 144.212L197.064 144.218L197.072 144.223L197.445 143.717ZM194.791 140.569L194.234 140.861L194.237 140.866L194.791 140.569ZM195.826 130.72L196.293 131.141L196.297 131.136L195.826 130.72ZM201.133 127.212L200.914 126.622L200.914 126.622L201.133 127.212ZM208.283 126.627C210.16 126.627 211.895 126.817 213.49 127.194L213.78 125.97C212.078 125.568 210.245 125.369 208.283 125.369V126.627ZM213.493 127.195C215.144 127.578 216.542 128.031 217.694 128.55L218.211 127.403C216.965 126.842 215.485 126.366 213.777 125.969L213.493 127.195ZM217.7 128.552C218.919 129.087 219.722 129.539 220.161 129.901L220.961 128.93C220.381 128.452 219.445 127.945 218.205 127.4L217.7 128.552ZM220.028 129.081L216.925 134.028L217.991 134.697L221.094 129.75L220.028 129.081ZM217.879 133.895C217.196 133.281 216.034 132.648 214.465 131.984L213.975 133.143C215.524 133.798 216.52 134.365 217.037 134.83L217.879 133.895ZM214.474 131.988C212.826 131.259 210.998 130.9 209.003 130.9V132.158C210.845 132.158 212.496 132.489 213.965 133.139L214.474 131.988ZM209.003 130.9C206.821 130.9 204.923 131.337 203.339 132.242L203.963 133.335C205.317 132.561 206.988 132.158 209.003 132.158V130.9ZM203.348 132.238C202.538 132.684 201.898 133.251 201.464 133.952C201.028 134.656 200.818 135.459 200.818 136.341H202.076C202.076 135.665 202.234 135.096 202.533 134.615C202.833 134.132 203.295 133.703 203.955 133.339L203.348 132.238ZM200.818 136.341C200.818 138.15 201.709 139.582 203.365 140.609L204.027 139.54C202.685 138.707 202.076 137.651 202.076 136.341H200.818ZM203.377 140.616C204.98 141.559 207.085 142.327 209.668 142.935L209.956 141.711C207.443 141.119 205.47 140.388 204.015 139.532L203.377 140.616ZM209.668 142.935C211.67 143.406 213.534 144.038 215.262 144.829L215.786 143.685C213.976 142.857 212.033 142.199 209.956 141.711L209.668 142.935ZM215.266 144.83C216.979 145.601 218.347 146.663 219.388 148.014L220.385 147.246C219.207 145.718 217.667 144.531 215.782 143.683L215.266 144.83ZM219.392 148.019C220.39 149.286 220.921 151.024 220.921 153.296H222.179C222.179 150.832 221.602 148.792 220.381 147.241L219.392 148.019ZM220.921 153.296C220.921 155.367 220.491 157.096 219.659 158.509L220.743 159.147C221.711 157.502 222.179 155.543 222.179 153.296H220.921ZM219.662 158.504C218.816 159.914 217.676 161.056 216.232 161.933L216.885 163.008C218.499 162.027 219.787 160.74 220.741 159.152L219.662 158.504ZM216.24 161.929C214.772 162.792 213.125 163.429 211.295 163.836L211.568 165.064C213.515 164.631 215.287 163.949 216.877 163.013L216.24 161.929ZM211.295 163.836C209.451 164.245 207.578 164.45 205.675 164.45V165.708C207.669 165.708 209.634 165.494 211.568 165.064L211.295 163.836ZM205.675 164.45C203.439 164.45 201.441 164.215 199.673 163.751L199.354 164.968C201.244 165.464 203.353 165.708 205.675 165.708V164.45ZM199.664 163.749C197.866 163.307 196.369 162.781 195.163 162.178L194.6 163.303C195.912 163.96 197.503 164.513 199.363 164.971L199.664 163.749ZM195.179 162.186C193.961 161.533 193.107 160.988 192.588 160.551L191.778 161.513C192.398 162.035 193.343 162.629 194.584 163.295L195.179 162.186ZM192.733 161.338L195.836 155.761L194.736 155.149L191.633 160.726L192.733 161.338ZM194.85 155.908C195.703 156.729 197.05 157.558 198.839 158.407L199.378 157.27C197.63 156.44 196.428 155.681 195.722 155.002L194.85 155.908ZM198.843 158.409C200.736 159.292 202.868 159.727 205.225 159.727V158.469C203.025 158.469 201.079 158.064 199.375 157.269L198.843 158.409ZM205.225 159.727C207.827 159.727 210 159.185 211.693 158.046L210.99 157.002C209.565 157.961 207.66 158.469 205.225 158.469V159.727ZM211.7 158.041C213.407 156.859 214.309 155.282 214.309 153.341H213.051C213.051 154.819 212.395 156.03 210.983 157.007L211.7 158.041ZM214.309 153.341C214.309 151.923 213.893 150.721 213.009 149.802L212.102 150.674C212.718 151.314 213.051 152.181 213.051 153.341H214.309ZM213.009 149.802C212.181 148.941 211.092 148.266 209.767 147.761L209.319 148.937C210.512 149.392 211.431 149.976 212.102 150.674L213.009 149.802ZM209.767 147.761C208.479 147.271 207.073 146.844 205.552 146.478L205.258 147.702C206.735 148.056 208.088 148.468 209.319 148.937L209.767 147.761ZM205.546 146.477C204.137 146.154 202.757 145.728 201.407 145.2L200.948 146.372C202.356 146.922 203.795 147.366 205.265 147.703L205.546 146.477ZM201.411 145.202C200.11 144.681 198.913 144.018 197.818 143.211L197.072 144.223C198.255 145.095 199.546 145.811 200.944 146.37L201.411 145.202ZM197.833 143.222C196.791 142.406 195.964 141.423 195.346 140.271L194.237 140.866C194.938 142.173 195.88 143.289 197.057 144.212L197.833 143.222ZM195.349 140.277C194.744 139.123 194.431 137.757 194.431 136.161H193.173C193.173 137.924 193.52 139.496 194.234 140.861L195.349 140.277ZM194.431 136.161C194.431 134.179 195.054 132.517 196.293 131.141L195.358 130.299C193.899 131.92 193.173 133.887 193.173 136.161H194.431ZM196.297 131.136C197.568 129.695 199.245 128.58 201.351 127.802L200.914 126.622C198.642 127.462 196.781 128.686 195.354 130.304L196.297 131.136ZM201.351 127.802C203.463 127.021 205.772 126.627 208.283 126.627V125.369C205.638 125.369 203.18 125.784 200.914 126.622L201.351 127.802ZM230.846 104.635V104.006H230.217V104.635H230.846ZM238.536 104.635H239.165V104.006H238.536V104.635ZM238.536 157.029H237.907V157.658H238.536V157.029ZM261.878 157.029H262.507V156.4H261.878V157.029ZM261.878 164V164.629H262.507V164H261.878ZM230.846 164H230.217V164.629H230.846V164ZM230.846 105.264H238.536V104.006H230.846V105.264ZM237.907 104.635V157.029H239.165V104.635H237.907ZM238.536 157.658H261.878V156.4H238.536V157.658ZM261.249 157.029V164H262.507V157.029H261.249ZM261.878 163.371H230.846V164.629H261.878V163.371ZM231.475 164V104.635H230.217V164H231.475ZM281.622 154.96L281.11 155.326L281.115 155.333L281.622 154.96ZM297.002 154.96L297.512 155.329L297.514 155.326L297.002 154.96ZM299.476 127.077V126.448H298.847V127.077H299.476ZM307.211 127.077H307.84V126.448H307.211V127.077ZM305.098 156.31L304.537 156.023L304.535 156.028L305.098 156.31ZM299.026 162.786L299.342 163.33L299.344 163.329L299.026 162.786ZM279.598 162.786L279.278 163.327L279.285 163.331L279.598 162.786ZM273.526 156.31L272.964 156.591L272.966 156.596L273.526 156.31ZM271.458 127.077V126.448H270.829V127.077H271.458ZM279.148 127.077H279.777V126.448H279.148V127.077ZM278.519 145.696C278.519 149.648 279.361 152.878 281.11 155.326L282.133 154.595C280.584 152.425 279.777 149.479 279.777 145.696H278.519ZM281.115 155.333C282.939 157.809 285.713 159.007 289.312 159.007V157.749C286.015 157.749 283.662 156.669 282.128 154.587L281.115 155.333ZM289.312 159.007C292.938 159.007 295.716 157.81 297.512 155.329L296.493 154.592C294.99 156.668 292.642 157.749 289.312 157.749V159.007ZM297.514 155.326C299.263 152.878 300.105 149.648 300.105 145.696H298.847C298.847 149.479 298.04 152.425 296.491 154.595L297.514 155.326ZM300.105 145.696V127.077H298.847V145.696H300.105ZM299.476 127.706H307.211V126.448H299.476V127.706ZM306.582 127.077V146.775H307.84V127.077H306.582ZM306.582 146.775C306.582 150.29 305.895 153.367 304.537 156.023L305.658 156.596C307.119 153.735 307.84 150.456 307.84 146.775H306.582ZM304.535 156.028C303.211 158.677 301.272 160.745 298.709 162.243L299.344 163.329C302.117 161.708 304.226 159.459 305.66 156.591L304.535 156.028ZM298.711 162.242C296.19 163.702 293.067 164.45 289.312 164.45V165.708C293.232 165.708 296.586 164.927 299.342 163.33L298.711 162.242ZM289.312 164.45C285.588 164.45 282.463 163.703 279.91 162.24L279.285 163.331C282.069 164.927 285.42 165.708 289.312 165.708V164.45ZM279.918 162.244C277.383 160.746 275.442 158.677 274.086 156.023L272.966 156.596C274.429 159.459 276.535 161.707 279.278 163.327L279.918 162.244ZM274.089 156.028C272.76 153.371 272.087 150.292 272.087 146.775H270.829C270.829 150.454 271.534 153.732 272.964 156.591L274.089 156.028ZM272.087 146.775V127.077H270.829V146.775H272.087ZM271.458 127.706H279.148V126.448H271.458V127.706ZM278.519 127.077V145.696H279.777V127.077H278.519ZM345.548 127.527L345.291 128.101L345.294 128.102L345.548 127.527ZM351.215 132.384L350.69 132.731L350.696 132.739L351.215 132.384ZM353.464 164V164.629H354.093V164H353.464ZM345.548 164H344.919V164.629H345.548V164ZM342.985 134.542L342.544 134.991L342.548 134.995L342.985 134.542ZM331.247 133.553L331.575 134.09L331.578 134.088L331.247 133.553ZM327.244 137.691L327.783 138.016L327.785 138.012L327.244 137.691ZM325.67 164V164.629H326.299V164H325.67ZM317.845 164H317.216V164.629H317.845V164ZM317.845 127.077V126.448H317.216V127.077H317.845ZM325.67 127.077H326.299V126.448H325.67V127.077ZM325.67 133.643H325.041L326.278 133.804L325.67 133.643ZM327.874 130.315L328.319 130.76L328.319 130.76L327.874 130.315ZM332.461 127.257L332.202 126.684L332.202 126.684L332.461 127.257ZM338.487 126.627C340.825 126.627 343.091 127.116 345.291 128.101L345.805 126.952C343.448 125.898 341.007 125.369 338.487 125.369V126.627ZM345.294 128.102C347.487 129.07 349.284 130.607 350.691 132.731L351.739 132.036C350.208 129.723 348.227 128.022 345.802 126.951L345.294 128.102ZM350.696 132.739C352.103 134.793 352.835 137.521 352.835 140.974H354.093C354.093 137.35 353.325 134.351 351.734 132.028L350.696 132.739ZM352.835 140.974V164H354.093V140.974H352.835ZM353.464 163.371H345.548V164.629H353.464V163.371ZM346.177 164V142.503H344.919V164H346.177ZM346.177 142.503C346.177 138.765 345.306 135.908 343.422 134.09L342.548 134.995C344.081 136.475 344.919 138.925 344.919 142.503H346.177ZM343.426 134.094C341.584 132.284 339.214 131.395 336.374 131.395V132.653C338.93 132.653 340.968 133.443 342.544 134.991L343.426 134.094ZM336.374 131.395C334.477 131.395 332.655 131.943 330.916 133.018L331.578 134.088C333.137 133.124 334.733 132.653 336.374 132.653V131.395ZM330.919 133.016C329.205 134.064 327.8 135.52 326.703 137.37L327.785 138.012C328.787 136.323 330.05 135.021 331.575 134.09L330.919 133.016ZM326.706 137.366C325.592 139.212 325.041 141.305 325.041 143.627H326.299C326.299 141.512 326.798 139.648 327.783 138.016L326.706 137.366ZM325.041 143.627V164H326.299V143.627H325.041ZM325.67 163.371H317.845V164.629H325.67V163.371ZM318.474 164V127.077H317.216V164H318.474ZM317.845 127.706H325.67V126.448H317.845V127.706ZM325.041 127.077V133.643H326.299V127.077H325.041ZM326.278 133.804C326.507 132.938 327.155 131.924 328.319 130.76L327.429 129.87C326.194 131.105 325.373 132.309 325.062 133.482L326.278 133.804ZM328.319 130.76C329.454 129.624 330.917 128.644 332.72 127.83L332.202 126.684C330.288 127.548 328.692 128.608 327.429 129.87L328.319 130.76ZM332.72 127.83C334.493 127.029 336.413 126.627 338.487 126.627V125.369C336.245 125.369 334.147 125.805 332.202 126.684L332.72 127.83ZM393.379 164H392.75V164.629H393.379V164ZM393.379 156.804H394.008L392.78 156.613L393.379 156.804ZM391.265 159.907L390.794 159.49L390.789 159.496L391.265 159.907ZM386.543 163.505L386.838 164.061L386.841 164.059L386.543 163.505ZM370.218 162.651L369.899 163.193L369.902 163.195L370.218 162.651ZM363.607 155.86L363.056 156.163L363.059 156.17L363.607 155.86ZM363.607 135.307L363.058 134.999L363.057 135.001L363.607 135.307ZM370.218 128.471L370.536 129.014L370.538 129.012L370.218 128.471ZM386.453 127.437L386.175 128.001L386.179 128.003L386.453 127.437ZM391.175 130.765L390.714 131.193L390.72 131.198L391.175 130.765ZM393.289 134.003L392.676 134.146L393.918 134.003H393.289ZM393.289 127.077V126.448H392.66V127.077H393.289ZM401.024 127.077H401.653V126.448H401.024V127.077ZM401.024 164V164.629H401.653V164H401.024ZM375.21 157.029L374.894 157.573L374.904 157.579L375.21 157.029ZM391.625 152.442L392.179 152.74L392.181 152.737L391.625 152.442ZM391.625 138.725L391.069 139.02L391.071 139.023L391.625 138.725ZM387.352 134.138L387.022 134.673L387.029 134.677L387.352 134.138ZM375.21 134.093L374.898 133.547L374.894 133.549L375.21 134.093ZM394.008 164V156.804H392.75V164H394.008ZM392.78 156.613C392.584 157.226 391.96 158.175 390.794 159.49L391.736 160.325C392.909 159.001 393.694 157.882 393.978 156.996L392.78 156.613ZM390.789 159.496C389.713 160.743 388.206 161.898 386.245 162.951L386.841 164.059C388.897 162.954 390.539 161.711 391.741 160.319L390.789 159.496ZM386.248 162.95C384.377 163.942 382.144 164.45 379.527 164.45V165.708C382.307 165.708 384.751 165.167 386.838 164.061L386.248 162.95ZM379.527 164.45C376.213 164.45 373.22 163.667 370.533 162.107L369.902 163.195C372.792 164.873 376.005 165.708 379.527 165.708V164.45ZM370.536 162.108C367.877 160.548 365.751 158.366 364.154 155.55L363.059 156.17C364.76 159.17 367.041 161.516 369.899 163.193L370.536 162.108ZM364.157 155.556C362.598 152.726 361.807 149.401 361.807 145.561H360.549C360.549 149.577 361.377 153.117 363.056 156.163L364.157 155.556ZM361.807 145.561C361.807 141.721 362.598 138.412 364.156 135.613L363.057 135.001C361.377 138.018 360.549 141.546 360.549 145.561H361.807ZM364.155 135.615C365.753 132.768 367.879 130.573 370.536 129.014L369.899 127.929C367.039 129.607 364.759 131.969 363.058 134.999L364.155 135.615ZM370.538 129.012C373.224 127.424 376.215 126.627 379.527 126.627V125.369C376.003 125.369 372.788 126.22 369.897 127.93L370.538 129.012ZM379.527 126.627C382.121 126.627 384.33 127.093 386.175 128.001L386.731 126.872C384.678 125.862 382.27 125.369 379.527 125.369V126.627ZM386.179 128.003C388.106 128.937 389.611 130.004 390.714 131.193L391.636 130.337C390.401 129.007 388.758 127.855 386.727 126.871L386.179 128.003ZM390.72 131.198C391.899 132.437 392.506 133.415 392.676 134.146L393.901 133.86C393.652 132.792 392.85 131.611 391.631 130.331L390.72 131.198ZM393.918 134.003V127.077H392.66V134.003H393.918ZM393.289 127.706H401.024V126.448H393.289V127.706ZM400.395 127.077V164H401.653V127.077H400.395ZM401.024 163.371H393.379V164.629H401.024V163.371ZM368.284 145.561C368.284 148.323 368.89 150.748 370.128 152.81L371.207 152.163C370.106 150.328 369.542 148.135 369.542 145.561H368.284ZM370.128 152.81C371.349 154.845 372.938 156.437 374.894 157.573L375.525 156.485C373.764 155.462 372.325 154.026 371.207 152.163L370.128 152.81ZM374.904 157.579C376.885 158.679 378.999 159.232 381.236 159.232V157.974C379.216 157.974 377.312 157.478 375.515 156.479L374.904 157.579ZM381.236 159.232C383.619 159.232 385.771 158.667 387.676 157.524L387.029 156.445C385.336 157.46 383.411 157.974 381.236 157.974V159.232ZM387.676 157.524C389.577 156.383 391.079 154.783 392.179 152.74L391.071 152.144C390.072 153.999 388.725 155.427 387.029 156.445L387.676 157.524ZM392.181 152.737C393.285 150.653 393.828 148.255 393.828 145.561H392.57C392.57 148.084 392.063 150.273 391.069 152.147L392.181 152.737ZM393.828 145.561C393.828 142.867 393.286 140.482 392.179 138.427L391.071 139.023C392.063 140.865 392.57 143.038 392.57 145.561H393.828ZM392.181 138.43C391.081 136.357 389.58 134.741 387.676 133.598L387.029 134.677C388.723 135.693 390.07 137.135 391.069 139.02L392.181 138.43ZM387.683 133.602C385.777 132.427 383.622 131.845 381.236 131.845V133.103C383.408 133.103 385.33 133.63 387.022 134.673L387.683 133.602ZM381.236 131.845C378.995 131.845 376.879 132.414 374.898 133.547L375.522 134.639C377.318 133.613 379.219 133.103 381.236 133.103V131.845ZM374.894 133.549C372.938 134.685 371.349 136.277 370.128 138.311L371.207 138.959C372.325 137.096 373.764 135.66 375.525 134.637L374.894 133.549ZM370.128 138.311C368.89 140.374 368.284 142.799 368.284 145.561H369.542C369.542 142.986 370.106 140.794 371.207 138.959L370.128 138.311Z" fill="white" mask="url(#path-1-outside-1_41_62)"/>
<line x1="4" y1="62.5001" x2="77" y2="62.5001" stroke="#FFCC02" stroke-width="21"/>
<line x1="66.5" y1="73" x2="66.5" stroke="#FFCC02" stroke-width="21"/>
<line x1="404" y1="204.5" x2="331" y2="204.5" stroke="#FFCC02" stroke-width="21"/>
<line x1="341.5" y1="194" x2="341.5" y2="267" stroke="#FFCC02" stroke-width="21"/>
</svg>
