<svg width="458" height="265" viewBox="0 0 458 265" fill="none" xmlns="http://www.w3.org/2000/svg">
<path d="M55.3681 104.635H68.7252L92.1563 164H77.8098L73.4924 152.082H50.6459L46.2835 164H31.892L55.3681 104.635ZM55.1433 140.299H69.04L62.1591 120.826H62.0242L55.1433 140.299ZM116.962 154.331C118.671 154.331 120.08 154.046 121.189 153.476C122.299 152.877 123.048 152.397 123.438 152.037L129.689 161.302C129.21 161.691 128.385 162.201 127.216 162.831C126.047 163.43 124.577 163.955 122.808 164.405C121.07 164.854 119.076 165.079 116.827 165.079C112.6 165.079 108.882 164.285 105.674 162.696C102.466 161.077 99.962 158.798 98.1631 155.86C96.3941 152.922 95.5097 149.474 95.5097 145.516C95.5097 141.528 96.3941 138.08 98.1631 135.172C99.962 132.264 102.466 130.015 105.674 128.426C108.882 126.807 112.6 125.998 116.827 125.998C119.046 125.998 121.025 126.237 122.764 126.717C124.532 127.167 126.017 127.692 127.216 128.291C128.415 128.861 129.255 129.356 129.734 129.775L123.348 139.13C123.138 138.92 122.749 138.62 122.179 138.23C121.639 137.841 120.935 137.496 120.065 137.196C119.196 136.896 118.161 136.746 116.962 136.746C115.493 136.746 114.114 137.121 112.824 137.87C111.565 138.62 110.546 139.654 109.766 140.974C108.987 142.293 108.597 143.807 108.597 145.516C108.597 147.225 108.987 148.754 109.766 150.103C110.546 151.422 111.565 152.457 112.824 153.206C114.114 153.956 115.493 154.331 116.962 154.331ZM131.747 127.077H138.043V111.921H151.58V127.077H159.855V138.32H151.58V148.619C151.58 150.148 151.805 151.392 152.255 152.352C152.705 153.281 153.529 153.746 154.728 153.746C155.538 153.746 156.227 153.566 156.797 153.206C157.367 152.847 157.712 152.607 157.831 152.487L162.509 162.201C162.299 162.381 161.639 162.711 160.53 163.19C159.451 163.67 158.071 164.105 156.392 164.495C154.713 164.884 152.839 165.079 150.771 165.079C147.083 165.079 144.04 164.045 141.641 161.976C139.242 159.877 138.043 156.654 138.043 152.307V138.32H131.747V127.077ZM168.021 164V127.077H181.693V164H168.021ZM175.037 119.476C172.878 119.476 171.049 118.727 169.55 117.228C168.051 115.699 167.301 113.885 167.301 111.786C167.301 109.687 168.051 107.873 169.55 106.344C171.079 104.785 172.908 104.006 175.037 104.006C176.446 104.006 177.735 104.365 178.904 105.085C180.074 105.775 181.018 106.704 181.738 107.873C182.457 109.043 182.817 110.347 182.817 111.786C182.817 113.885 182.052 115.699 180.523 117.228C178.994 118.727 177.165 119.476 175.037 119.476ZM219.76 164V158.019C219.49 158.618 218.8 159.488 217.691 160.627C216.612 161.766 215.172 162.801 213.374 163.73C211.575 164.63 209.476 165.079 207.077 165.079C203.479 165.079 200.331 164.21 197.633 162.471C194.934 160.702 192.836 158.348 191.337 155.41C189.838 152.442 189.088 149.159 189.088 145.561C189.088 141.963 189.838 138.695 191.337 135.757C192.836 132.788 194.934 130.42 197.633 128.651C200.331 126.882 203.479 125.998 207.077 125.998C209.386 125.998 211.41 126.372 213.149 127.122C214.888 127.841 216.297 128.711 217.376 129.73C218.456 130.72 219.205 131.634 219.625 132.474V127.077H233.207V164H219.76ZM202.49 145.561C202.49 147.24 202.88 148.754 203.659 150.103C204.439 151.422 205.473 152.457 206.762 153.206C208.082 153.956 209.536 154.331 211.125 154.331C212.774 154.331 214.228 153.956 215.487 153.206C216.747 152.457 217.736 151.422 218.456 150.103C219.205 148.754 219.58 147.24 219.58 145.561C219.58 143.882 219.205 142.383 218.456 141.064C217.736 139.714 216.747 138.665 215.487 137.915C214.228 137.136 212.774 136.746 211.125 136.746C209.536 136.746 208.082 137.136 206.762 137.915C205.473 138.665 204.439 139.714 203.659 141.064C202.88 142.383 202.49 143.882 202.49 145.561ZM258.433 125.998C260.861 125.998 263.08 126.207 265.089 126.627C267.097 127.017 268.776 127.467 270.126 127.976C271.505 128.486 272.389 128.906 272.779 129.236L268.327 137.286C267.757 136.866 266.693 136.326 265.134 135.667C263.605 135.007 261.896 134.677 260.007 134.677C258.568 134.677 257.353 134.902 256.364 135.352C255.374 135.772 254.88 136.446 254.88 137.376C254.88 138.305 255.419 139.055 256.499 139.624C257.608 140.164 259.197 140.644 261.266 141.064C263.065 141.423 264.894 141.993 266.753 142.773C268.612 143.552 270.156 144.706 271.385 146.236C272.644 147.735 273.274 149.743 273.274 152.262C273.274 154.84 272.719 156.969 271.61 158.648C270.5 160.327 269.031 161.631 267.202 162.561C265.374 163.49 263.395 164.135 261.266 164.495C259.137 164.884 257.068 165.079 255.06 165.079C252.241 165.079 249.783 164.825 247.684 164.315C245.615 163.805 243.936 163.22 242.647 162.561C241.358 161.901 240.458 161.377 239.949 160.987L244.356 151.992C245.136 152.652 246.41 153.401 248.179 154.241C249.948 155.05 251.822 155.455 253.8 155.455C255.719 155.455 257.203 155.17 258.253 154.601C259.302 154.031 259.827 153.281 259.827 152.352C259.827 151.602 259.572 151.003 259.062 150.553C258.553 150.103 257.833 149.713 256.904 149.384C255.974 149.054 254.85 148.754 253.531 148.484C252.331 148.244 251.057 147.87 249.708 147.36C248.359 146.85 247.084 146.161 245.885 145.291C244.686 144.392 243.711 143.267 242.962 141.918C242.212 140.569 241.837 138.935 241.837 137.016C241.837 134.557 242.632 132.519 244.221 130.9C245.81 129.281 247.864 128.066 250.382 127.257C252.901 126.417 255.584 125.998 258.433 125.998ZM281.701 104.635H289.391V157.029H312.732V164H281.701V104.635ZM330.003 145.696C330.003 149.564 330.827 152.652 332.476 154.96C334.155 157.239 336.719 158.378 340.167 158.378C343.645 158.378 346.208 157.239 347.857 154.96C349.506 152.652 350.331 149.564 350.331 145.696V127.077H358.066V146.775C358.066 150.373 357.362 153.551 355.952 156.31C354.573 159.068 352.549 161.227 349.881 162.786C347.243 164.315 344.005 165.079 340.167 165.079C336.359 165.079 333.121 164.315 330.453 162.786C327.814 161.227 325.79 159.068 324.381 156.31C323.002 153.551 322.312 150.373 322.312 146.775V127.077H330.003V145.696ZM389.342 125.998C391.771 125.998 394.124 126.507 396.403 127.527C398.712 128.546 400.601 130.165 402.07 132.384C403.569 134.572 404.318 137.436 404.318 140.974V164H396.403V142.503C396.403 138.845 395.549 136.191 393.84 134.542C392.131 132.863 389.927 132.024 387.229 132.024C385.46 132.024 383.751 132.534 382.102 133.553C380.483 134.542 379.148 135.922 378.099 137.691C377.05 139.43 376.525 141.408 376.525 143.627V164H368.7V127.077H376.525V133.643C376.795 132.624 377.529 131.514 378.729 130.315C379.928 129.116 381.457 128.096 383.316 127.257C385.175 126.417 387.184 125.998 389.342 125.998ZM444.234 164V156.804C443.994 157.554 443.289 158.588 442.12 159.907C440.981 161.227 439.407 162.426 437.398 163.505C435.419 164.555 433.08 165.079 430.382 165.079C426.964 165.079 423.861 164.27 421.072 162.651C418.314 161.032 416.11 158.768 414.461 155.86C412.842 152.922 412.033 149.489 412.033 145.561C412.033 141.633 412.842 138.215 414.461 135.307C416.11 132.369 418.314 130.09 421.072 128.471C423.861 126.822 426.964 125.998 430.382 125.998C433.05 125.998 435.359 126.477 437.308 127.437C439.287 128.396 440.861 129.505 442.03 130.765C443.229 132.024 443.934 133.103 444.144 134.003V127.077H451.879V164H444.234ZM419.768 145.561C419.768 148.229 420.353 150.538 421.522 152.487C422.691 154.436 424.206 155.95 426.064 157.029C427.953 158.079 429.962 158.603 432.091 158.603C434.37 158.603 436.408 158.064 438.207 156.984C440.006 155.905 441.43 154.391 442.48 152.442C443.529 150.463 444.054 148.169 444.054 145.561C444.054 142.952 443.529 140.674 442.48 138.725C441.43 136.746 440.006 135.217 438.207 134.138C436.408 133.028 434.37 132.474 432.091 132.474C429.962 132.474 427.953 133.013 426.064 134.093C424.206 135.172 422.691 136.686 421.522 138.635C420.353 140.584 419.768 142.893 419.768 145.561Z" fill="black"/>
<line x1="46" y1="62.5" x2="119" y2="62.5" stroke="#FFCC02" stroke-width="21"/>
<line x1="108.5" y1="73" x2="108.5" stroke="#FFCC02" stroke-width="21"/>
<line x1="446" y1="202.5" x2="373" y2="202.5" stroke="#FFCC02" stroke-width="21"/>
<line x1="383.5" y1="192" x2="383.5" y2="265" stroke="#FFCC02" stroke-width="21"/>
<path d="M47.9395 193.5H49.352V210H47.9395V193.5ZM54.4719 194.875L54.5469 194.887V210H53.1469V193.5H55.2094L64.6344 208.612L64.5719 208.625V193.5H65.9594V210H63.8844L54.4719 194.875ZM73.14 194.812H68.44V193.5H79.2525V194.812H74.5525V210H73.14V194.812ZM81.7602 193.5H91.1602V194.812H83.1477V201.075H90.9602V202.375H83.1477V208.687H91.1602V210H81.7602V193.5ZM94.7979 193.5H100.123C100.981 193.5 101.769 193.679 102.485 194.037C103.21 194.396 103.79 194.921 104.223 195.612C104.665 196.304 104.885 197.158 104.885 198.175C104.885 199.183 104.673 200.025 104.248 200.7C103.831 201.367 103.327 201.871 102.735 202.212C102.152 202.546 101.606 202.721 101.098 202.737L105.223 210H103.623L99.6729 202.837H96.1979V210H94.7979V193.5ZM96.1979 201.7H99.6479C100.773 201.7 101.685 201.417 102.385 200.85C103.094 200.283 103.448 199.4 103.448 198.2C103.448 196.992 103.098 196.117 102.398 195.575C101.698 195.025 100.781 194.75 99.6479 194.75H96.1979V201.7ZM109.526 194.875L109.601 194.887V210H108.201V193.5H110.263L119.688 208.612L119.626 208.625V193.5H121.013V210H118.938L109.526 194.875ZM129.456 193.5H130.994L136.906 210H135.419L133.881 205.725H126.581L125.031 210H123.519L129.456 193.5ZM127.006 204.412H133.469L130.244 195.262H130.206L127.006 204.412ZM140.84 194.812H136.14V193.5H146.953V194.812H142.253V210H140.84V194.812ZM149.673 193.5H151.085V210H149.673V193.5ZM155.368 201.737C155.368 203.096 155.651 204.321 156.218 205.412C156.793 206.496 157.58 207.354 158.58 207.987C159.58 208.621 160.722 208.937 162.005 208.937C163.297 208.937 164.439 208.621 165.43 207.987C166.422 207.354 167.201 206.496 167.768 205.412C168.334 204.321 168.618 203.096 168.618 201.737C168.618 200.379 168.334 199.158 167.768 198.075C167.201 196.992 166.422 196.137 165.43 195.512C164.439 194.879 163.297 194.562 162.005 194.562C160.722 194.562 159.58 194.879 158.58 195.512C157.58 196.137 156.793 196.992 156.218 198.075C155.651 199.158 155.368 200.379 155.368 201.737ZM153.918 201.737C153.918 200.537 154.122 199.421 154.53 198.387C154.939 197.346 155.505 196.437 156.23 195.662C156.964 194.887 157.822 194.283 158.805 193.85C159.789 193.417 160.855 193.2 162.005 193.2C163.164 193.2 164.23 193.417 165.205 193.85C166.18 194.283 167.03 194.887 167.755 195.662C168.489 196.437 169.055 197.346 169.455 198.387C169.855 199.421 170.055 200.537 170.055 201.737C170.055 202.946 169.855 204.071 169.455 205.112C169.064 206.146 168.501 207.054 167.768 207.837C167.043 208.612 166.189 209.217 165.205 209.65C164.23 210.083 163.164 210.3 162.005 210.3C160.839 210.3 159.764 210.083 158.78 209.65C157.797 209.217 156.943 208.612 156.218 207.837C155.493 207.054 154.926 206.146 154.518 205.112C154.118 204.071 153.918 202.946 153.918 201.737ZM174.028 194.875L174.103 194.887V210H172.703V193.5H174.765L184.19 208.612L184.128 208.625V193.5H185.515V210H183.44L174.028 194.875ZM193.958 193.5H195.496L201.408 210H199.921L198.383 205.725H191.083L189.533 210H188.021L193.958 193.5ZM191.508 204.412H197.971L194.746 195.262H194.708L191.508 204.412ZM203.341 193.5H204.741V208.687H211.466V210H203.341V193.5ZM228.229 208.925C229.379 208.925 230.354 208.771 231.154 208.462C231.962 208.154 232.533 207.854 232.867 207.562L233.479 208.775C233.121 209.108 232.479 209.446 231.554 209.787C230.637 210.129 229.529 210.3 228.229 210.3C227.012 210.3 225.887 210.083 224.854 209.65C223.829 209.208 222.933 208.6 222.167 207.825C221.4 207.042 220.804 206.137 220.379 205.112C219.954 204.079 219.742 202.967 219.742 201.775C219.742 200.583 219.95 199.471 220.367 198.437C220.792 197.396 221.387 196.483 222.154 195.7C222.921 194.917 223.821 194.304 224.854 193.862C225.887 193.421 227.012 193.2 228.229 193.2C229.529 193.2 230.637 193.371 231.554 193.712C232.479 194.054 233.121 194.392 233.479 194.725L232.867 195.938C232.533 195.646 231.962 195.346 231.154 195.037C230.354 194.729 229.379 194.575 228.229 194.575C227.262 194.575 226.358 194.75 225.517 195.1C224.675 195.442 223.933 195.929 223.292 196.562C222.65 197.196 222.146 197.954 221.779 198.837C221.421 199.712 221.242 200.679 221.242 201.737C221.242 202.804 221.421 203.779 221.779 204.662C222.146 205.546 222.65 206.304 223.292 206.937C223.933 207.571 224.675 208.062 225.517 208.412C226.358 208.754 227.262 208.925 228.229 208.925ZM236.691 201.737C236.691 203.096 236.974 204.321 237.541 205.412C238.116 206.496 238.904 207.354 239.904 207.987C240.904 208.621 242.045 208.937 243.329 208.937C244.62 208.937 245.762 208.621 246.754 207.987C247.745 207.354 248.524 206.496 249.091 205.412C249.658 204.321 249.941 203.096 249.941 201.737C249.941 200.379 249.658 199.158 249.091 198.075C248.524 196.992 247.745 196.137 246.754 195.512C245.762 194.879 244.62 194.562 243.329 194.562C242.045 194.562 240.904 194.879 239.904 195.512C238.904 196.137 238.116 196.992 237.541 198.075C236.974 199.158 236.691 200.379 236.691 201.737ZM235.241 201.737C235.241 200.537 235.445 199.421 235.854 198.387C236.262 197.346 236.829 196.437 237.554 195.662C238.287 194.887 239.145 194.283 240.129 193.85C241.112 193.417 242.179 193.2 243.329 193.2C244.487 193.2 245.554 193.417 246.529 193.85C247.504 194.283 248.354 194.887 249.079 195.662C249.812 196.437 250.379 197.346 250.779 198.387C251.179 199.421 251.379 200.537 251.379 201.737C251.379 202.946 251.179 204.071 250.779 205.112C250.387 206.146 249.824 207.054 249.091 207.837C248.366 208.612 247.512 209.217 246.529 209.65C245.554 210.083 244.487 210.3 243.329 210.3C242.162 210.3 241.087 210.083 240.104 209.65C239.12 209.217 238.266 208.612 237.541 207.837C236.816 207.054 236.249 206.146 235.841 205.112C235.441 204.071 235.241 202.946 235.241 201.737ZM255.351 194.875L255.426 194.887V210H254.026V193.5H256.088L265.513 208.612L265.451 208.625V193.5H266.838V210H264.763L255.351 194.875ZM275.194 193.2C276.111 193.2 276.89 193.308 277.531 193.525C278.181 193.742 278.69 193.971 279.056 194.212C279.423 194.446 279.636 194.596 279.694 194.662L278.919 195.837C278.794 195.729 278.573 195.571 278.256 195.362C277.948 195.154 277.548 194.967 277.056 194.8C276.565 194.625 275.981 194.537 275.306 194.537C274.231 194.537 273.386 194.762 272.769 195.212C272.152 195.662 271.844 196.287 271.844 197.088C271.844 197.629 272.006 198.104 272.331 198.512C272.656 198.912 273.098 199.275 273.656 199.6C274.223 199.925 274.861 200.25 275.569 200.575C276.127 200.825 276.686 201.104 277.244 201.412C277.811 201.721 278.327 202.083 278.794 202.5C279.269 202.917 279.648 203.4 279.931 203.95C280.223 204.5 280.369 205.137 280.369 205.862C280.369 206.521 280.236 207.121 279.969 207.662C279.702 208.204 279.323 208.675 278.831 209.075C278.348 209.467 277.773 209.771 277.106 209.987C276.44 210.196 275.706 210.3 274.906 210.3C273.956 210.3 273.094 210.179 272.319 209.937C271.544 209.687 270.919 209.433 270.444 209.175C269.969 208.908 269.706 208.75 269.656 208.7L270.494 207.462C270.594 207.546 270.769 207.671 271.019 207.837C271.277 207.996 271.598 208.162 271.981 208.337C272.365 208.512 272.806 208.658 273.306 208.775C273.815 208.892 274.365 208.95 274.956 208.95C276.24 208.95 277.211 208.65 277.869 208.05C278.536 207.45 278.869 206.696 278.869 205.787C278.869 205.079 278.656 204.475 278.231 203.975C277.806 203.467 277.261 203.021 276.594 202.637C275.927 202.254 275.231 201.892 274.506 201.55C273.74 201.192 273.044 200.808 272.419 200.4C271.794 199.992 271.294 199.517 270.919 198.975C270.544 198.433 270.356 197.783 270.356 197.025C270.356 196.283 270.569 195.625 270.994 195.05C271.427 194.475 272.006 194.025 272.731 193.7C273.465 193.367 274.286 193.2 275.194 193.2ZM293.973 193.5H295.373V203.8C295.373 205.158 295.098 206.325 294.548 207.3C294.007 208.267 293.273 209.008 292.348 209.525C291.423 210.042 290.386 210.3 289.236 210.3C288.094 210.3 287.057 210.042 286.123 209.525C285.19 209.008 284.448 208.267 283.898 207.3C283.348 206.325 283.073 205.158 283.073 203.8V193.5H284.473V203.725C284.473 204.783 284.686 205.704 285.111 206.487C285.536 207.271 286.107 207.879 286.823 208.312C287.548 208.746 288.352 208.962 289.236 208.962C290.119 208.962 290.915 208.746 291.623 208.312C292.34 207.879 292.911 207.271 293.336 206.487C293.761 205.704 293.973 204.783 293.973 203.725V193.5ZM298.629 193.5H300.029V208.687H306.754V210H298.629V193.5ZM311.079 194.812H306.379V193.5H317.192V194.812H312.492V210H311.079V194.812ZM319.912 193.5H321.325V210H319.912V193.5ZM326.445 194.875L326.52 194.887V210H325.12V193.5H327.182L336.607 208.612L336.545 208.625V193.5H337.932V210H335.857L326.445 194.875ZM348.4 201.162H356.688V201.987C356.688 203.129 356.484 204.2 356.075 205.2C355.675 206.2 355.113 207.083 354.388 207.85C353.663 208.617 352.813 209.217 351.838 209.65C350.871 210.083 349.817 210.3 348.675 210.3C347.509 210.3 346.434 210.075 345.45 209.625C344.467 209.175 343.613 208.554 342.888 207.762C342.163 206.971 341.596 206.062 341.188 205.037C340.788 204.004 340.588 202.904 340.588 201.737C340.588 200.579 340.788 199.487 341.188 198.462C341.596 197.429 342.163 196.517 342.888 195.725C343.613 194.933 344.467 194.317 345.45 193.875C346.434 193.425 347.509 193.2 348.675 193.2C349.384 193.2 350.05 193.279 350.675 193.437C351.3 193.596 351.879 193.821 352.413 194.112C352.946 194.404 353.429 194.746 353.863 195.137C354.304 195.529 354.688 195.954 355.013 196.412L353.825 197.15C353.25 196.375 352.525 195.75 351.65 195.275C350.775 194.8 349.784 194.562 348.675 194.562C347.717 194.562 346.829 194.754 346.013 195.137C345.204 195.512 344.5 196.029 343.9 196.687C343.309 197.346 342.85 198.108 342.525 198.975C342.2 199.842 342.038 200.762 342.038 201.737C342.038 202.712 342.2 203.633 342.525 204.5C342.85 205.367 343.309 206.133 343.9 206.8C344.5 207.467 345.204 207.992 346.013 208.375C346.829 208.75 347.717 208.937 348.675 208.937C349.6 208.937 350.45 208.767 351.225 208.425C352.009 208.083 352.688 207.612 353.263 207.012C353.838 206.404 354.292 205.704 354.625 204.912C354.959 204.121 355.146 203.275 355.188 202.375H348.4V201.162Z" fill="#3A3A3A"/>
</svg>
