<svg width="407" height="267" viewBox="0 0 407 267" fill="none" xmlns="http://www.w3.org/2000/svg">
<path d="M23.178 104.635H31.1832L53.1302 164H44.9001L39.7731 149.698H14.588L9.37114 164H1.14101L23.178 104.635ZM17.0616 142.773H37.3446L27.2705 114.08H27.1356L17.0616 142.773ZM76.6527 158.603C78.9913 158.603 80.8802 158.228 82.3193 157.479C83.7585 156.729 84.6579 156.19 85.0177 155.86L88.8404 161.481C88.5406 161.751 87.821 162.186 86.6817 162.786C85.5724 163.355 84.1332 163.88 82.3643 164.36C80.6253 164.84 78.6465 165.079 76.4278 165.079C73.0398 165.079 69.8917 164.33 66.9834 162.831C64.0751 161.302 61.7215 159.083 59.9226 156.175C58.1536 153.266 57.2692 149.713 57.2692 145.516C57.2692 141.288 58.1536 137.736 59.9226 134.857C61.7215 131.949 64.0751 129.745 66.9834 128.246C69.8917 126.747 73.0398 125.998 76.4278 125.998C78.6165 125.998 80.5653 126.267 82.2743 126.807C83.9833 127.317 85.3925 127.886 86.5018 128.516C87.6112 129.146 88.3457 129.625 88.7055 129.955L84.8378 135.577C84.598 135.337 84.1332 134.977 83.4436 134.497C82.784 133.988 81.8846 133.523 80.7452 133.103C79.6059 132.684 78.2417 132.474 76.6527 132.474C74.7338 132.474 72.8599 132.998 71.031 134.048C69.2321 135.067 67.7479 136.551 66.5786 138.5C65.4093 140.449 64.8247 142.788 64.8247 145.516C64.8247 148.244 65.4093 150.598 66.5786 152.577C67.7479 154.526 69.2321 156.025 71.031 157.074C72.8599 158.094 74.7338 158.603 76.6527 158.603ZM93.0799 127.077H100.321V111.921H108.101V127.077H117.59V133.778H108.101V152.037C108.101 154.196 108.476 155.785 109.225 156.804C110.005 157.824 111.039 158.333 112.328 158.333C113.468 158.333 114.352 158.123 114.982 157.704C115.612 157.284 115.986 156.999 116.106 156.849L119.209 162.606C119.03 162.756 118.55 163.041 117.77 163.46C116.991 163.88 115.986 164.255 114.757 164.585C113.528 164.914 112.089 165.079 110.44 165.079C107.561 165.079 105.148 164.21 103.199 162.471C101.28 160.702 100.321 157.914 100.321 154.106V133.778H93.0799V127.077ZM126.86 164V127.077H134.685V164H126.86ZM130.862 114.439C129.453 114.439 128.239 113.945 127.22 112.955C126.23 111.936 125.735 110.722 125.735 109.312C125.735 107.903 126.23 106.689 127.22 105.67C128.239 104.65 129.453 104.14 130.862 104.14C131.792 104.14 132.646 104.38 133.426 104.86C134.235 105.34 134.88 105.969 135.36 106.749C135.839 107.498 136.079 108.353 136.079 109.312C136.079 110.722 135.57 111.936 134.55 112.955C133.531 113.945 132.302 114.439 130.862 114.439ZM176.33 164V156.804C176.09 157.554 175.385 158.588 174.216 159.907C173.077 161.227 171.503 162.426 169.494 163.505C167.515 164.555 165.176 165.079 162.478 165.079C159.06 165.079 155.957 164.27 153.168 162.651C150.41 161.032 148.206 158.768 146.557 155.86C144.938 152.922 144.129 149.489 144.129 145.561C144.129 141.633 144.938 138.215 146.557 135.307C148.206 132.369 150.41 130.09 153.168 128.471C155.957 126.822 159.06 125.998 162.478 125.998C165.146 125.998 167.455 126.477 169.404 127.437C171.383 128.396 172.957 129.505 174.126 130.765C175.325 132.024 176.03 133.103 176.24 134.003V127.077H183.975V164H176.33ZM151.864 145.561C151.864 148.229 152.449 150.538 153.618 152.487C154.788 154.436 156.302 155.95 158.161 157.029C160.049 158.079 162.058 158.603 164.187 158.603C166.466 158.603 168.504 158.064 170.303 156.984C172.102 155.905 173.526 154.391 174.576 152.442C175.625 150.463 176.15 148.169 176.15 145.561C176.15 142.952 175.625 140.674 174.576 138.725C173.526 136.746 172.102 135.217 170.303 134.138C168.504 133.028 166.466 132.474 164.187 132.474C162.058 132.474 160.049 133.013 158.161 134.093C156.302 135.172 154.788 136.686 153.618 138.635C152.449 140.584 151.864 142.893 151.864 145.561ZM208.283 125.998C210.202 125.998 211.986 126.192 213.635 126.582C215.314 126.972 216.753 127.437 217.953 127.976C219.182 128.516 220.051 128.996 220.561 129.415L217.458 134.363C216.858 133.823 215.779 133.223 214.22 132.564C212.661 131.874 210.922 131.529 209.003 131.529C206.904 131.529 205.12 131.949 203.651 132.788C202.182 133.598 201.447 134.782 201.447 136.341C201.447 137.9 202.197 139.145 203.696 140.074C205.225 140.974 207.264 141.723 209.812 142.323C211.851 142.803 213.755 143.447 215.524 144.257C217.323 145.066 218.777 146.191 219.886 147.63C220.996 149.039 221.55 150.928 221.55 153.296C221.55 155.455 221.101 157.299 220.201 158.828C219.302 160.327 218.088 161.541 216.558 162.471C215.029 163.37 213.32 164.03 211.431 164.45C209.543 164.869 207.624 165.079 205.675 165.079C203.396 165.079 201.342 164.84 199.514 164.36C197.685 163.91 196.141 163.37 194.881 162.741C193.652 162.081 192.753 161.511 192.183 161.032L195.286 155.455C196.066 156.205 197.34 156.999 199.109 157.839C200.908 158.678 202.946 159.098 205.225 159.098C207.744 159.098 209.782 158.573 211.342 157.524C212.901 156.444 213.68 155.05 213.68 153.341C213.68 152.052 213.305 151.018 212.556 150.238C211.806 149.459 210.802 148.829 209.543 148.349C208.283 147.87 206.904 147.45 205.405 147.09C203.966 146.76 202.557 146.325 201.178 145.786C199.828 145.246 198.584 144.557 197.445 143.717C196.335 142.848 195.451 141.798 194.791 140.569C194.132 139.31 193.802 137.841 193.802 136.161C193.802 134.033 194.477 132.219 195.826 130.72C197.175 129.191 198.944 128.021 201.133 127.212C203.321 126.402 205.705 125.998 208.283 125.998ZM230.846 104.635H238.536V157.029H261.878V164H230.846V104.635ZM279.148 145.696C279.148 149.564 279.972 152.652 281.622 154.96C283.301 157.239 285.864 158.378 289.312 158.378C292.79 158.378 295.353 157.239 297.002 154.96C298.651 152.652 299.476 149.564 299.476 145.696V127.077H307.211V146.775C307.211 150.373 306.507 153.551 305.098 156.31C303.718 159.068 301.695 161.227 299.026 162.786C296.388 164.315 293.15 165.079 289.312 165.079C285.504 165.079 282.266 164.315 279.598 162.786C276.959 161.227 274.935 159.068 273.526 156.31C272.147 153.551 271.458 150.373 271.458 146.775V127.077H279.148V145.696ZM338.487 125.998C340.916 125.998 343.27 126.507 345.548 127.527C347.857 128.546 349.746 130.165 351.215 132.384C352.714 134.572 353.464 137.436 353.464 140.974V164H345.548V142.503C345.548 138.845 344.694 136.191 342.985 134.542C341.276 132.863 339.072 132.024 336.374 132.024C334.605 132.024 332.896 132.534 331.247 133.553C329.628 134.542 328.294 135.922 327.244 137.691C326.195 139.43 325.67 141.408 325.67 143.627V164H317.845V127.077H325.67V133.643C325.94 132.624 326.674 131.514 327.874 130.315C329.073 129.116 330.602 128.096 332.461 127.257C334.32 126.417 336.329 125.998 338.487 125.998ZM393.379 164V156.804C393.139 157.554 392.434 158.588 391.265 159.907C390.126 161.227 388.552 162.426 386.543 163.505C384.564 164.555 382.225 165.079 379.527 165.079C376.109 165.079 373.006 164.27 370.218 162.651C367.459 161.032 365.256 158.768 363.607 155.86C361.987 152.922 361.178 149.489 361.178 145.561C361.178 141.633 361.987 138.215 363.607 135.307C365.256 132.369 367.459 130.09 370.218 128.471C373.006 126.822 376.109 125.998 379.527 125.998C382.196 125.998 384.504 126.477 386.453 127.437C388.432 128.396 390.006 129.505 391.175 130.765C392.374 132.024 393.079 133.103 393.289 134.003V127.077H401.024V164H393.379ZM368.913 145.561C368.913 148.229 369.498 150.538 370.667 152.487C371.837 154.436 373.351 155.95 375.21 157.029C377.099 158.079 379.107 158.603 381.236 158.603C383.515 158.603 385.554 158.064 387.352 156.984C389.151 155.905 390.576 154.391 391.625 152.442C392.674 150.463 393.199 148.169 393.199 145.561C393.199 142.952 392.674 140.674 391.625 138.725C390.576 136.746 389.151 135.217 387.352 134.138C385.554 133.028 383.515 132.474 381.236 132.474C379.107 132.474 377.099 133.013 375.21 134.093C373.351 135.172 371.837 136.686 370.667 138.635C369.498 140.584 368.913 142.893 368.913 145.561Z" fill="black"/>
<line x1="4" y1="62.5001" x2="77" y2="62.5001" stroke="black" stroke-width="21"/>
<line x1="66.5" y1="73" x2="66.5" stroke="black" stroke-width="21"/>
<line x1="404" y1="204.5" x2="331" y2="204.5" stroke="black" stroke-width="21"/>
<line x1="341.5" y1="194" x2="341.5" y2="267" stroke="black" stroke-width="21"/>
</svg>
