<svg width="230" height="145" viewBox="0 0 230 145" fill="none" xmlns="http://www.w3.org/2000/svg">
<mask id="path-1-outside-1_6_41" maskUnits="userSpaceOnUse" x="0" y="-1" width="231" height="146" fill="black">
<rect fill="white" y="-1" width="231" height="146"/>
<path d="M31.4258 60V54.0185C31.1559 54.6182 30.4664 55.4877 29.357 56.627C28.2777 57.7663 26.8385 58.8007 25.0396 59.7302C23.2406 60.6296 21.1419 61.0794 18.7433 61.0794C15.1454 61.0794 11.9973 60.2099 9.2989 58.4709C6.6005 56.702 4.50174 54.3483 3.00263 51.4101C1.50352 48.4418 0.753961 45.1588 0.753961 41.5609C0.753961 37.9631 1.50352 34.695 3.00263 31.7567C4.50174 28.7885 6.6005 26.4199 9.2989 24.6509C11.9973 22.882 15.1454 21.9975 18.7433 21.9975C21.0519 21.9975 23.0757 22.3723 24.8147 23.1219C26.5537 23.8414 27.9628 24.7109 29.0422 25.7303C30.1216 26.7197 30.8711 27.6342 31.2909 28.4737V23.0769H44.8728V60H31.4258ZM14.156 41.5609C14.156 43.2399 14.5458 44.754 15.3253 46.1032C16.1049 47.4225 17.1393 48.4568 18.4285 49.2064C19.7477 49.956 21.2018 50.3307 22.7909 50.3307C24.4399 50.3307 25.8941 49.956 27.1533 49.2064C28.4126 48.4568 29.402 47.4225 30.1216 46.1032C30.8711 44.754 31.2459 43.2399 31.2459 41.5609C31.2459 39.8819 30.8711 38.3828 30.1216 37.0636C29.402 35.7144 28.4126 34.665 27.1533 33.9155C25.8941 33.1359 24.4399 32.7462 22.7909 32.7462C21.2018 32.7462 19.7477 33.1359 18.4285 33.9155C17.1393 34.665 16.1049 35.7144 15.3253 37.0636C14.5458 38.3828 14.156 39.8819 14.156 41.5609ZM73.5616 50.3307C75.2706 50.3307 76.6797 50.0459 77.7891 49.4762C78.8984 48.8766 79.648 48.3969 80.0378 48.0371L86.2891 57.3016C85.8093 57.6914 84.9848 58.2011 83.8155 58.8307C82.6462 59.4303 81.1771 59.955 79.4081 60.4048C77.6692 60.8545 75.6753 61.0794 73.4267 61.0794C69.1992 61.0794 65.4814 60.2848 62.2733 58.6958C59.0652 57.0767 56.5617 54.7981 54.7627 51.8598C52.9938 48.9216 52.1093 45.4736 52.1093 41.516C52.1093 37.5283 52.9938 34.0804 54.7627 31.1721C56.5617 28.2638 59.0652 26.0151 62.2733 24.4261C65.4814 22.807 69.1992 21.9975 73.4267 21.9975C75.6454 21.9975 77.6242 22.2374 79.3632 22.7171C81.1321 23.1668 82.6162 23.6915 83.8155 24.2912C85.0148 24.8608 85.8543 25.3555 86.334 25.7753L79.9478 35.1297C79.7379 34.9199 79.3482 34.62 78.7785 34.2303C78.2388 33.8405 77.5342 33.4957 76.6648 33.1959C75.7953 32.8961 74.7609 32.7462 73.5616 32.7462C72.0925 32.7462 70.7133 33.1209 69.424 33.8705C68.1648 34.62 67.1454 35.6544 66.3659 36.9736C65.5863 38.2929 65.1965 39.807 65.1965 41.516C65.1965 43.2249 65.5863 44.754 66.3659 46.1032C67.1454 47.4225 68.1648 48.4568 69.424 49.2064C70.7133 49.956 72.0925 50.3307 73.5616 50.3307ZM88.3466 23.0769H94.6428V7.92086H108.18V23.0769H116.455V34.3202H108.18V44.6191C108.18 46.1482 108.405 47.3925 108.854 48.3519C109.304 49.2814 110.129 49.7461 111.328 49.7461C112.137 49.7461 112.827 49.5662 113.397 49.2064C113.966 48.8466 114.311 48.6068 114.431 48.4868L119.108 58.2011C118.898 58.381 118.239 58.7108 117.13 59.1905C116.05 59.6702 114.671 60.1049 112.992 60.4947C111.313 60.8845 109.439 61.0794 107.37 61.0794C103.682 61.0794 100.639 60.045 98.2407 57.9762C95.8421 55.8774 94.6428 52.6544 94.6428 48.3069V34.3202H88.3466V23.0769ZM124.62 60V23.0769H138.292V60H124.62ZM131.636 15.4764C129.478 15.4764 127.649 14.7268 126.149 13.2277C124.65 11.6986 123.901 9.8847 123.901 7.78594C123.901 5.68719 124.65 3.87326 126.149 2.34417C127.679 0.785089 129.507 0.00555051 131.636 0.00555051C133.045 0.00555051 134.335 0.365338 135.504 1.08491C136.673 1.7745 137.618 2.70395 138.337 3.87326C139.057 5.04257 139.417 6.34679 139.417 7.78594C139.417 9.8847 138.652 11.6986 137.123 13.2277C135.594 14.7268 133.765 15.4764 131.636 15.4764ZM176.359 60V54.0185C176.09 54.6182 175.4 55.4877 174.291 56.627C173.211 57.7663 171.772 58.8007 169.973 59.7302C168.174 60.6296 166.076 61.0794 163.677 61.0794C160.079 61.0794 156.931 60.2099 154.233 58.4709C151.534 56.702 149.435 54.3483 147.936 51.4101C146.437 48.4418 145.688 45.1588 145.688 41.5609C145.688 37.9631 146.437 34.695 147.936 31.7567C149.435 28.7885 151.534 26.4199 154.233 24.6509C156.931 22.882 160.079 21.9975 163.677 21.9975C165.986 21.9975 168.009 22.3723 169.748 23.1219C171.487 23.8414 172.896 24.7109 173.976 25.7303C175.055 26.7197 175.805 27.6342 176.225 28.4737V23.0769H189.806V60H176.359ZM159.09 41.5609C159.09 43.2399 159.479 44.754 160.259 46.1032C161.039 47.4225 162.073 48.4568 163.362 49.2064C164.681 49.956 166.135 50.3307 167.725 50.3307C169.374 50.3307 170.828 49.956 172.087 49.2064C173.346 48.4568 174.336 47.4225 175.055 46.1032C175.805 44.754 176.18 43.2399 176.18 41.5609C176.18 39.8819 175.805 38.3828 175.055 37.0636C174.336 35.7144 173.346 34.665 172.087 33.9155C170.828 33.1359 169.374 32.7462 167.725 32.7462C166.135 32.7462 164.681 33.1359 163.362 33.9155C162.073 34.665 161.039 35.7144 160.259 37.0636C159.479 38.3828 159.09 39.8819 159.09 41.5609ZM215.032 21.9975C217.461 21.9975 219.68 22.2074 221.688 22.6271C223.697 23.0169 225.376 23.4666 226.725 23.9763C228.105 24.486 228.989 24.9058 229.379 25.2356L224.926 33.2858C224.357 32.8661 223.292 32.3264 221.733 31.6668C220.204 31.0072 218.495 30.6774 216.606 30.6774C215.167 30.6774 213.953 30.9022 212.964 31.352C211.974 31.7717 211.479 32.4463 211.479 33.3758C211.479 34.3052 212.019 35.0548 213.098 35.6244C214.208 36.1641 215.797 36.6438 217.866 37.0636C219.665 37.4234 221.493 37.993 223.352 38.7726C225.211 39.5521 226.755 40.7064 227.985 42.2355C229.244 43.7346 229.873 45.7434 229.873 48.262C229.873 50.8404 229.319 52.9692 228.209 54.6482C227.1 56.3272 225.631 57.6314 223.802 58.5609C221.973 59.4903 219.994 60.1349 217.866 60.4947C215.737 60.8845 213.668 61.0794 211.659 61.0794C208.841 61.0794 206.382 60.8245 204.284 60.3148C202.215 59.8051 200.536 59.2205 199.247 58.5609C197.957 57.9012 197.058 57.3766 196.548 56.9868L200.956 47.9921C201.735 48.6517 203.009 49.4013 204.778 50.2408C206.547 51.0503 208.421 51.4551 210.4 51.4551C212.319 51.4551 213.803 51.1702 214.852 50.6006C215.902 50.0309 216.426 49.2814 216.426 48.3519C216.426 47.6023 216.172 47.0027 215.662 46.553C215.152 46.1032 214.433 45.7135 213.503 45.3837C212.574 45.0539 211.449 44.754 210.13 44.4842C208.931 44.2443 207.657 43.8696 206.307 43.3599C204.958 42.8502 203.684 42.1606 202.485 41.2911C201.285 40.3916 200.311 39.2673 199.561 37.9181C198.812 36.5689 198.437 34.9349 198.437 33.016C198.437 30.5574 199.232 28.5187 200.821 26.8996C202.41 25.2806 204.464 24.0663 206.982 23.2568C209.501 22.4173 212.184 21.9975 215.032 21.9975ZM16.4497 143H2.73279V81.1167H16.4497V143ZM38.2168 123.167C38.2168 126.105 38.7714 128.459 39.8808 130.228C40.9901 131.967 42.849 132.836 45.4575 132.836C48.1259 132.836 49.9998 131.967 51.0791 130.228C52.1885 128.459 52.7432 126.105 52.7432 123.167V106.077H66.2352V124.606C66.2352 128.564 65.4106 132.012 63.7616 134.95C62.1426 137.858 59.789 140.107 56.7008 141.696C53.6126 143.285 49.8649 144.079 45.4575 144.079C41.0801 144.079 37.3473 143.285 34.2591 141.696C31.1709 140.107 28.8173 137.858 27.1983 134.95C25.5792 132.012 24.7697 128.564 24.7697 124.606V106.077H38.2168V123.167ZM99.9518 104.998C102.53 104.998 105.049 105.522 107.507 106.572C109.966 107.621 111.99 109.285 113.579 111.564C115.168 113.812 115.962 116.781 115.962 120.468V143H102.245V122.717C102.245 120.079 101.616 118.1 100.357 116.781C99.0973 115.431 97.4483 114.757 95.4095 114.757C94.0603 114.757 92.7861 115.117 91.5868 115.836C90.4175 116.526 89.458 117.515 88.7085 118.804C87.9889 120.064 87.6291 121.518 87.6291 123.167V143H73.9572V106.077H87.6291V111.519C87.9889 110.529 88.7385 109.54 89.8778 108.55C91.0471 107.531 92.5012 106.692 94.2402 106.032C96.0091 105.342 97.913 104.998 99.9518 104.998ZM152.555 143V137.019C152.285 137.618 151.596 138.488 150.486 139.627C149.407 140.766 147.968 141.801 146.169 142.73C144.37 143.63 142.271 144.079 139.873 144.079C136.275 144.079 133.127 143.21 130.428 141.471C127.73 139.702 125.631 137.348 124.132 134.41C122.633 131.442 121.883 128.159 121.883 124.561C121.883 120.963 122.633 117.695 124.132 114.757C125.631 111.788 127.73 109.42 130.428 107.651C133.127 105.882 136.275 104.998 139.873 104.998C142.181 104.998 144.205 105.372 145.944 106.122C147.683 106.841 149.092 107.711 150.172 108.73C151.251 109.72 152.001 110.634 152.42 111.474V106.077H166.002V143H152.555ZM135.285 124.561C135.285 126.24 135.675 127.754 136.455 129.103C137.234 130.422 138.269 131.457 139.558 132.206C140.877 132.956 142.331 133.331 143.92 133.331C145.569 133.331 147.023 132.956 148.283 132.206C149.542 131.457 150.531 130.422 151.251 129.103C152 127.754 152.375 126.24 152.375 124.561C152.375 122.882 152 121.383 151.251 120.064C150.531 118.714 149.542 117.665 148.283 116.915C147.023 116.136 145.569 115.746 143.92 115.746C142.331 115.746 140.877 116.136 139.558 116.915C138.269 117.665 137.234 118.714 136.455 120.064C135.675 121.383 135.285 122.882 135.285 124.561Z"/>
</mask>
<path d="M31.4258 60V54.0185C31.1559 54.6182 30.4664 55.4877 29.357 56.627C28.2777 57.7663 26.8385 58.8007 25.0396 59.7302C23.2406 60.6296 21.1419 61.0794 18.7433 61.0794C15.1454 61.0794 11.9973 60.2099 9.2989 58.4709C6.6005 56.702 4.50174 54.3483 3.00263 51.4101C1.50352 48.4418 0.753961 45.1588 0.753961 41.5609C0.753961 37.9631 1.50352 34.695 3.00263 31.7567C4.50174 28.7885 6.6005 26.4199 9.2989 24.6509C11.9973 22.882 15.1454 21.9975 18.7433 21.9975C21.0519 21.9975 23.0757 22.3723 24.8147 23.1219C26.5537 23.8414 27.9628 24.7109 29.0422 25.7303C30.1216 26.7197 30.8711 27.6342 31.2909 28.4737V23.0769H44.8728V60H31.4258ZM14.156 41.5609C14.156 43.2399 14.5458 44.754 15.3253 46.1032C16.1049 47.4225 17.1393 48.4568 18.4285 49.2064C19.7477 49.956 21.2018 50.3307 22.7909 50.3307C24.4399 50.3307 25.8941 49.956 27.1533 49.2064C28.4126 48.4568 29.402 47.4225 30.1216 46.1032C30.8711 44.754 31.2459 43.2399 31.2459 41.5609C31.2459 39.8819 30.8711 38.3828 30.1216 37.0636C29.402 35.7144 28.4126 34.665 27.1533 33.9155C25.8941 33.1359 24.4399 32.7462 22.7909 32.7462C21.2018 32.7462 19.7477 33.1359 18.4285 33.9155C17.1393 34.665 16.1049 35.7144 15.3253 37.0636C14.5458 38.3828 14.156 39.8819 14.156 41.5609ZM73.5616 50.3307C75.2706 50.3307 76.6797 50.0459 77.7891 49.4762C78.8984 48.8766 79.648 48.3969 80.0378 48.0371L86.2891 57.3016C85.8093 57.6914 84.9848 58.2011 83.8155 58.8307C82.6462 59.4303 81.1771 59.955 79.4081 60.4048C77.6692 60.8545 75.6753 61.0794 73.4267 61.0794C69.1992 61.0794 65.4814 60.2848 62.2733 58.6958C59.0652 57.0767 56.5617 54.7981 54.7627 51.8598C52.9938 48.9216 52.1093 45.4736 52.1093 41.516C52.1093 37.5283 52.9938 34.0804 54.7627 31.1721C56.5617 28.2638 59.0652 26.0151 62.2733 24.4261C65.4814 22.807 69.1992 21.9975 73.4267 21.9975C75.6454 21.9975 77.6242 22.2374 79.3632 22.7171C81.1321 23.1668 82.6162 23.6915 83.8155 24.2912C85.0148 24.8608 85.8543 25.3555 86.334 25.7753L79.9478 35.1297C79.7379 34.9199 79.3482 34.62 78.7785 34.2303C78.2388 33.8405 77.5342 33.4957 76.6648 33.1959C75.7953 32.8961 74.7609 32.7462 73.5616 32.7462C72.0925 32.7462 70.7133 33.1209 69.424 33.8705C68.1648 34.62 67.1454 35.6544 66.3659 36.9736C65.5863 38.2929 65.1965 39.807 65.1965 41.516C65.1965 43.2249 65.5863 44.754 66.3659 46.1032C67.1454 47.4225 68.1648 48.4568 69.424 49.2064C70.7133 49.956 72.0925 50.3307 73.5616 50.3307ZM88.3466 23.0769H94.6428V7.92086H108.18V23.0769H116.455V34.3202H108.18V44.6191C108.18 46.1482 108.405 47.3925 108.854 48.3519C109.304 49.2814 110.129 49.7461 111.328 49.7461C112.137 49.7461 112.827 49.5662 113.397 49.2064C113.966 48.8466 114.311 48.6068 114.431 48.4868L119.108 58.2011C118.898 58.381 118.239 58.7108 117.13 59.1905C116.05 59.6702 114.671 60.1049 112.992 60.4947C111.313 60.8845 109.439 61.0794 107.37 61.0794C103.682 61.0794 100.639 60.045 98.2407 57.9762C95.8421 55.8774 94.6428 52.6544 94.6428 48.3069V34.3202H88.3466V23.0769ZM124.62 60V23.0769H138.292V60H124.62ZM131.636 15.4764C129.478 15.4764 127.649 14.7268 126.149 13.2277C124.65 11.6986 123.901 9.8847 123.901 7.78594C123.901 5.68719 124.65 3.87326 126.149 2.34417C127.679 0.785089 129.507 0.00555051 131.636 0.00555051C133.045 0.00555051 134.335 0.365338 135.504 1.08491C136.673 1.7745 137.618 2.70395 138.337 3.87326C139.057 5.04257 139.417 6.34679 139.417 7.78594C139.417 9.8847 138.652 11.6986 137.123 13.2277C135.594 14.7268 133.765 15.4764 131.636 15.4764ZM176.359 60V54.0185C176.09 54.6182 175.4 55.4877 174.291 56.627C173.211 57.7663 171.772 58.8007 169.973 59.7302C168.174 60.6296 166.076 61.0794 163.677 61.0794C160.079 61.0794 156.931 60.2099 154.233 58.4709C151.534 56.702 149.435 54.3483 147.936 51.4101C146.437 48.4418 145.688 45.1588 145.688 41.5609C145.688 37.9631 146.437 34.695 147.936 31.7567C149.435 28.7885 151.534 26.4199 154.233 24.6509C156.931 22.882 160.079 21.9975 163.677 21.9975C165.986 21.9975 168.009 22.3723 169.748 23.1219C171.487 23.8414 172.896 24.7109 173.976 25.7303C175.055 26.7197 175.805 27.6342 176.225 28.4737V23.0769H189.806V60H176.359ZM159.09 41.5609C159.09 43.2399 159.479 44.754 160.259 46.1032C161.039 47.4225 162.073 48.4568 163.362 49.2064C164.681 49.956 166.135 50.3307 167.725 50.3307C169.374 50.3307 170.828 49.956 172.087 49.2064C173.346 48.4568 174.336 47.4225 175.055 46.1032C175.805 44.754 176.18 43.2399 176.18 41.5609C176.18 39.8819 175.805 38.3828 175.055 37.0636C174.336 35.7144 173.346 34.665 172.087 33.9155C170.828 33.1359 169.374 32.7462 167.725 32.7462C166.135 32.7462 164.681 33.1359 163.362 33.9155C162.073 34.665 161.039 35.7144 160.259 37.0636C159.479 38.3828 159.09 39.8819 159.09 41.5609ZM215.032 21.9975C217.461 21.9975 219.68 22.2074 221.688 22.6271C223.697 23.0169 225.376 23.4666 226.725 23.9763C228.105 24.486 228.989 24.9058 229.379 25.2356L224.926 33.2858C224.357 32.8661 223.292 32.3264 221.733 31.6668C220.204 31.0072 218.495 30.6774 216.606 30.6774C215.167 30.6774 213.953 30.9022 212.964 31.352C211.974 31.7717 211.479 32.4463 211.479 33.3758C211.479 34.3052 212.019 35.0548 213.098 35.6244C214.208 36.1641 215.797 36.6438 217.866 37.0636C219.665 37.4234 221.493 37.993 223.352 38.7726C225.211 39.5521 226.755 40.7064 227.985 42.2355C229.244 43.7346 229.873 45.7434 229.873 48.262C229.873 50.8404 229.319 52.9692 228.209 54.6482C227.1 56.3272 225.631 57.6314 223.802 58.5609C221.973 59.4903 219.994 60.1349 217.866 60.4947C215.737 60.8845 213.668 61.0794 211.659 61.0794C208.841 61.0794 206.382 60.8245 204.284 60.3148C202.215 59.8051 200.536 59.2205 199.247 58.5609C197.957 57.9012 197.058 57.3766 196.548 56.9868L200.956 47.9921C201.735 48.6517 203.009 49.4013 204.778 50.2408C206.547 51.0503 208.421 51.4551 210.4 51.4551C212.319 51.4551 213.803 51.1702 214.852 50.6006C215.902 50.0309 216.426 49.2814 216.426 48.3519C216.426 47.6023 216.172 47.0027 215.662 46.553C215.152 46.1032 214.433 45.7135 213.503 45.3837C212.574 45.0539 211.449 44.754 210.13 44.4842C208.931 44.2443 207.657 43.8696 206.307 43.3599C204.958 42.8502 203.684 42.1606 202.485 41.2911C201.285 40.3916 200.311 39.2673 199.561 37.9181C198.812 36.5689 198.437 34.9349 198.437 33.016C198.437 30.5574 199.232 28.5187 200.821 26.8996C202.41 25.2806 204.464 24.0663 206.982 23.2568C209.501 22.4173 212.184 21.9975 215.032 21.9975ZM16.4497 143H2.73279V81.1167H16.4497V143ZM38.2168 123.167C38.2168 126.105 38.7714 128.459 39.8808 130.228C40.9901 131.967 42.849 132.836 45.4575 132.836C48.1259 132.836 49.9998 131.967 51.0791 130.228C52.1885 128.459 52.7432 126.105 52.7432 123.167V106.077H66.2352V124.606C66.2352 128.564 65.4106 132.012 63.7616 134.95C62.1426 137.858 59.789 140.107 56.7008 141.696C53.6126 143.285 49.8649 144.079 45.4575 144.079C41.0801 144.079 37.3473 143.285 34.2591 141.696C31.1709 140.107 28.8173 137.858 27.1983 134.95C25.5792 132.012 24.7697 128.564 24.7697 124.606V106.077H38.2168V123.167ZM99.9518 104.998C102.53 104.998 105.049 105.522 107.507 106.572C109.966 107.621 111.99 109.285 113.579 111.564C115.168 113.812 115.962 116.781 115.962 120.468V143H102.245V122.717C102.245 120.079 101.616 118.1 100.357 116.781C99.0973 115.431 97.4483 114.757 95.4095 114.757C94.0603 114.757 92.7861 115.117 91.5868 115.836C90.4175 116.526 89.458 117.515 88.7085 118.804C87.9889 120.064 87.6291 121.518 87.6291 123.167V143H73.9572V106.077H87.6291V111.519C87.9889 110.529 88.7385 109.54 89.8778 108.55C91.0471 107.531 92.5012 106.692 94.2402 106.032C96.0091 105.342 97.913 104.998 99.9518 104.998ZM152.555 143V137.019C152.285 137.618 151.596 138.488 150.486 139.627C149.407 140.766 147.968 141.801 146.169 142.73C144.37 143.63 142.271 144.079 139.873 144.079C136.275 144.079 133.127 143.21 130.428 141.471C127.73 139.702 125.631 137.348 124.132 134.41C122.633 131.442 121.883 128.159 121.883 124.561C121.883 120.963 122.633 117.695 124.132 114.757C125.631 111.788 127.73 109.42 130.428 107.651C133.127 105.882 136.275 104.998 139.873 104.998C142.181 104.998 144.205 105.372 145.944 106.122C147.683 106.841 149.092 107.711 150.172 108.73C151.251 109.72 152.001 110.634 152.42 111.474V106.077H166.002V143H152.555ZM135.285 124.561C135.285 126.24 135.675 127.754 136.455 129.103C137.234 130.422 138.269 131.457 139.558 132.206C140.877 132.956 142.331 133.331 143.92 133.331C145.569 133.331 147.023 132.956 148.283 132.206C149.542 131.457 150.531 130.422 151.251 129.103C152 127.754 152.375 126.24 152.375 124.561C152.375 122.882 152 121.383 151.251 120.064C150.531 118.714 149.542 117.665 148.283 116.915C147.023 116.136 145.569 115.746 143.92 115.746C142.331 115.746 140.877 116.136 139.558 116.915C138.269 117.665 137.234 118.714 136.455 120.064C135.675 121.383 135.285 122.882 135.285 124.561Z" fill="#0F0F0F"/>
<path d="M31.4258 60H30.7968V60.629H31.4258V60ZM31.4258 54.0185H32.0548L30.8522 53.7604L31.4258 54.0185ZM29.357 56.627L28.9063 56.1882L28.9004 56.1944L29.357 56.627ZM25.0396 59.7302L25.3209 60.2928L25.3283 60.289L25.0396 59.7302ZM9.2989 58.4709L8.95404 58.997L8.95817 58.9996L9.2989 58.4709ZM3.00263 51.4101L2.44117 51.6937L2.44234 51.696L3.00263 51.4101ZM3.00263 31.7567L3.56292 32.0426L3.56408 32.0403L3.00263 31.7567ZM9.2989 24.6509L9.64375 25.177L9.64375 25.177L9.2989 24.6509ZM24.8147 23.1219L24.5657 23.6995L24.5742 23.7031L24.8147 23.1219ZM29.0422 25.7303L28.6103 26.1876L28.6172 26.194L29.0422 25.7303ZM31.2909 28.4737L30.7283 28.755L31.9199 28.4737H31.2909ZM31.2909 23.0769V22.4479H30.6619V23.0769H31.2909ZM44.8728 23.0769H45.5018V22.4479H44.8728V23.0769ZM44.8728 60V60.629H45.5018V60H44.8728ZM15.3253 46.1032L14.7807 46.4179L14.7838 46.4232L15.3253 46.1032ZM18.4285 49.2064L18.1123 49.7502L18.1178 49.7533L18.4285 49.2064ZM30.1216 46.1032L29.5717 45.7978L29.5694 45.802L30.1216 46.1032ZM30.1216 37.0636L29.5666 37.3596L29.5705 37.367L29.5747 37.3743L30.1216 37.0636ZM27.1533 33.9155L26.8222 34.4504L26.8316 34.456L27.1533 33.9155ZM18.4285 33.9155L18.7446 34.4592L18.7485 34.457L18.4285 33.9155ZM15.3253 37.0636L15.8669 37.3836L15.87 37.3783L15.3253 37.0636ZM32.0548 60V54.0185H30.7968V60H32.0548ZM30.8522 53.7604C30.6327 54.2482 30.0168 55.0477 28.9064 56.1882L29.8077 57.0658C30.9159 55.9276 31.6792 54.9882 31.9994 54.2767L30.8522 53.7604ZM28.9004 56.1944C27.8813 57.2701 26.5044 58.2654 24.7508 59.1713L25.3283 60.289C27.1726 59.3361 28.674 58.2625 29.8136 57.0596L28.9004 56.1944ZM24.7583 59.1676C23.062 60.0157 21.0629 60.4504 18.7433 60.4504V61.7084C21.2209 61.7084 23.4193 61.2435 25.3209 60.2928L24.7583 59.1676ZM18.7433 60.4504C15.2512 60.4504 12.2245 59.608 9.63963 57.9422L8.95817 58.9996C11.7701 60.8118 15.0396 61.7084 18.7433 61.7084V60.4504ZM9.64375 57.9449C7.03893 56.2373 5.01348 53.9673 3.56292 51.1242L2.44234 51.696C3.99 54.7294 6.16206 57.1666 8.95405 58.9969L9.64375 57.9449ZM3.56408 51.1265C2.11295 48.2533 1.38296 45.0685 1.38296 41.5609H0.124963C0.124963 45.2491 0.894082 48.6304 2.44117 51.6937L3.56408 51.1265ZM1.38296 41.5609C1.38296 38.0532 2.11297 34.8845 3.56292 32.0426L2.44234 31.4709C0.894065 34.5055 0.124963 37.8729 0.124963 41.5609H1.38296ZM3.56408 32.0403C5.01508 29.1673 7.04046 26.8836 9.64375 25.177L8.95405 24.1249C6.16054 25.9562 3.9884 28.4097 2.44117 31.4732L3.56408 32.0403ZM9.64375 25.177C12.2281 23.4828 15.2534 22.6265 18.7433 22.6265V21.3685C15.0375 21.3685 11.7665 22.2812 8.95405 24.1249L9.64375 25.177ZM18.7433 22.6265C20.9846 22.6265 22.9206 22.9904 24.5657 23.6995L25.0637 22.5442C23.2308 21.7542 21.1192 21.3685 18.7433 21.3685V22.6265ZM24.5742 23.7031C26.2605 24.4008 27.5994 25.2328 28.6103 26.1876L29.4741 25.273C28.3263 24.189 26.8468 23.282 25.0552 22.5406L24.5742 23.7031ZM28.6172 26.194C29.6681 27.1573 30.3566 28.0116 30.7283 28.755L31.8535 28.1924C31.3857 27.2568 30.575 26.2821 29.4672 25.2666L28.6172 26.194ZM31.9199 28.4737V23.0769H30.6619V28.4737H31.9199ZM31.2909 23.7059H44.8728V22.4479H31.2909V23.7059ZM44.2438 23.0769V60H45.5018V23.0769H44.2438ZM44.8728 59.371H31.4258V60.629H44.8728V59.371ZM13.527 41.5609C13.527 43.3416 13.9416 44.9657 14.7807 46.4179L15.87 45.7886C15.15 44.5424 14.785 43.1383 14.785 41.5609H13.527ZM14.7838 46.4232C15.6165 47.8324 16.7274 48.945 18.1123 49.7502L18.7446 48.6626C17.5511 47.9687 16.5932 47.0125 15.8668 45.7832L14.7838 46.4232ZM18.1178 49.7533C19.5362 50.5592 21.0983 50.9597 22.7909 50.9597V49.7017C21.3054 49.7017 19.9592 49.3527 18.7392 48.6595L18.1178 49.7533ZM22.7909 50.9597C24.5387 50.9597 26.1067 50.5614 27.475 49.7469L26.8316 48.6659C25.6814 49.3505 24.3412 49.7017 22.7909 49.7017V50.9597ZM27.475 49.7469C28.8337 48.9381 29.9016 47.82 30.6738 46.4044L29.5694 45.802C28.9023 47.0249 27.9914 47.9755 26.8316 48.6659L27.475 49.7469ZM30.6714 46.4087C31.4774 44.958 31.8749 43.3372 31.8749 41.5609H30.6169C30.6169 43.1427 30.2649 44.5501 29.5717 45.7978L30.6714 46.4087ZM31.8749 41.5609C31.8749 39.7849 31.4774 38.1766 30.6684 36.7529L29.5747 37.3743C30.2648 38.589 30.6169 39.979 30.6169 41.5609H31.8749ZM30.6766 36.7676C29.9054 35.3217 28.8373 34.1858 27.475 33.375L26.8316 34.456C27.9879 35.1442 28.8985 36.107 29.5666 37.3596L30.6766 36.7676ZM27.4844 33.3806C26.1147 32.5327 24.5432 32.1172 22.7909 32.1172V33.3751C24.3366 33.3751 25.6735 33.7391 26.8222 34.4503L27.4844 33.3806ZM22.7909 32.1172C21.0936 32.1172 19.5283 32.535 18.1085 33.3739L18.7485 34.457C19.9671 33.7369 21.3101 33.3751 22.7909 33.3751V32.1172ZM18.1123 33.3717C16.7239 34.1789 15.6126 35.3092 14.7807 36.7489L15.87 37.3783C16.5972 36.1196 17.5546 35.1511 18.7446 34.4592L18.1123 33.3717ZM14.7838 36.7436C13.9416 38.1689 13.527 39.7805 13.527 41.5609H14.785C14.785 39.9834 15.15 38.5968 15.8668 37.3836L14.7838 36.7436ZM77.7891 49.4762L78.0765 50.0359L78.0882 50.0296L77.7891 49.4762ZM80.0378 48.0371L80.5592 47.6853L80.1494 47.078L79.6111 47.5749L80.0378 48.0371ZM86.2891 57.3016L86.6857 57.7898L87.1324 57.4269L86.8105 56.9498L86.2891 57.3016ZM83.8155 58.8307L84.1026 59.3905L84.1137 59.3845L83.8155 58.8307ZM79.4081 60.4048L79.2531 59.7952L79.2506 59.7958L79.4081 60.4048ZM62.2733 58.6958L61.9899 59.2573L61.9941 59.2594L62.2733 58.6958ZM54.7627 51.8598L54.2238 52.1843L54.2263 52.1883L54.7627 51.8598ZM54.7627 31.1721L54.2278 30.8412L54.2253 30.8452L54.7627 31.1721ZM62.2733 24.4261L62.5525 24.9897L62.5567 24.9876L62.2733 24.4261ZM79.3632 22.7171L79.1959 23.3236L79.2082 23.3267L79.3632 22.7171ZM83.8155 24.2912L83.5342 24.8539L83.5456 24.8593L83.8155 24.2912ZM86.334 25.7753L86.8535 26.1299L87.168 25.6692L86.7482 25.3019L86.334 25.7753ZM79.9478 35.1297L79.503 35.5745L80.0395 36.111L80.4673 35.4844L79.9478 35.1297ZM78.7785 34.2303L78.4102 34.7402L78.4167 34.7449L78.4233 34.7494L78.7785 34.2303ZM76.6648 33.1959L76.8698 32.6012L76.8698 32.6012L76.6648 33.1959ZM69.424 33.8705L69.1079 33.3267L69.1023 33.33L69.424 33.8705ZM66.3659 36.9736L66.9074 37.2936L66.9074 37.2936L66.3659 36.9736ZM66.3659 46.1032L65.8212 46.4179L65.8243 46.4232L66.3659 46.1032ZM69.424 49.2064L69.1023 49.7469L69.1079 49.7502L69.424 49.2064ZM73.5616 50.9597C75.3354 50.9597 76.8515 50.6648 78.0764 50.0358L77.5018 48.9167C76.508 49.427 75.2058 49.7017 73.5616 49.7017V50.9597ZM78.0882 50.0296C79.1979 49.4297 80.0108 48.918 80.4644 48.4993L79.6111 47.5749C79.2852 47.8758 78.599 48.3235 77.49 48.9229L78.0882 50.0296ZM79.5164 48.3889L85.7676 57.6534L86.8105 56.9498L80.5592 47.6853L79.5164 48.3889ZM85.8924 56.8134C85.4618 57.1633 84.682 57.6497 83.5173 58.2769L84.1137 59.3845C85.2876 58.7524 86.1569 58.2194 86.6857 57.7898L85.8924 56.8134ZM83.5285 58.271C82.4139 58.8426 80.9926 59.3529 79.2531 59.7952L79.5631 61.0144C81.3616 60.5571 82.8786 60.0181 84.1025 59.3904L83.5285 58.271ZM79.2506 59.7958C77.5741 60.2294 75.6349 60.4504 73.4267 60.4504V61.7084C75.7158 61.7084 77.7642 61.4796 79.5656 61.0137L79.2506 59.7958ZM73.4267 60.4504C69.2786 60.4504 65.6594 59.6711 62.5525 58.1321L61.9941 59.2594C65.3033 60.8986 69.1197 61.7084 73.4267 61.7084V60.4504ZM62.5567 58.1342C59.4482 56.5655 57.0344 54.3655 55.2992 51.5314L54.2263 52.1883C56.089 55.2306 58.6821 57.588 61.9899 59.2573L62.5567 58.1342ZM55.3016 51.5354C53.6002 48.7094 52.7383 45.3772 52.7383 41.516H51.4803C51.4803 45.57 52.3873 49.1338 54.2239 52.1842L55.3016 51.5354ZM52.7383 41.516C52.7383 37.6236 53.6007 34.2929 55.3001 31.499L54.2253 30.8452C52.3869 33.8678 51.4803 37.4331 51.4803 41.516H52.7383ZM55.2977 31.503C57.0318 28.6995 59.4445 26.5292 62.5525 24.9897L61.9941 23.8624C58.6859 25.5011 56.0915 27.8282 54.2278 30.8412L55.2977 31.503ZM62.5567 24.9876C65.6626 23.4201 69.2803 22.6265 73.4267 22.6265V21.3685C69.118 21.3685 65.3001 22.194 61.9899 23.8645L62.5567 24.9876ZM73.4267 22.6265C75.6013 22.6265 77.5222 22.8617 79.1959 23.3234L79.5304 22.1107C77.7262 21.613 75.6895 21.3685 73.4267 21.3685V22.6265ZM79.2082 23.3267C80.948 23.769 82.3867 24.28 83.5342 24.8538L84.0968 23.7286C82.8457 23.103 81.3163 22.5646 79.5181 22.1075L79.2082 23.3267ZM83.5456 24.8593C84.7364 25.4249 85.5092 25.8893 85.9198 26.2487L86.7482 25.3019C86.1994 24.8217 85.2932 24.2967 84.0854 23.723L83.5456 24.8593ZM85.8145 25.4206L79.4283 34.7751L80.4673 35.4844L86.8535 26.1299L85.8145 25.4206ZM80.3926 34.685C80.1375 34.4299 79.7046 34.1018 79.1337 33.7112L78.4233 34.7494C78.9917 35.1383 79.3383 35.4098 79.503 35.5745L80.3926 34.685ZM79.1468 33.7204C78.5422 33.2837 77.7771 32.9141 76.8698 32.6012L76.4597 33.7905C77.2914 34.0773 77.9355 34.3973 78.4102 34.7402L79.1468 33.7204ZM76.8698 32.6012C75.9177 32.273 74.8106 32.1172 73.5616 32.1172V33.3751C74.7111 33.3751 75.6728 33.5192 76.4597 33.7905L76.8698 32.6012ZM73.5616 32.1172C71.9797 32.1172 70.4916 32.5222 69.1079 33.3267L69.7402 34.4143C70.9349 33.7196 72.2053 33.3751 73.5616 33.3751V32.1172ZM69.1023 33.33C67.7483 34.136 66.655 35.248 65.8243 36.6537L66.9074 37.2936C67.6358 36.0609 68.5813 35.1041 69.7458 34.411L69.1023 33.33ZM65.8243 36.6537C64.9811 38.0806 64.5676 39.7077 64.5676 41.516H65.8255C65.8255 39.9062 66.1915 38.5051 66.9074 37.2936L65.8243 36.6537ZM64.5676 41.516C64.5676 43.3244 64.9812 44.964 65.8212 46.4179L66.9105 45.7886C66.1915 44.5441 65.8255 43.1255 65.8255 41.516H64.5676ZM65.8243 46.4232C66.655 47.8289 67.7483 48.9409 69.1023 49.7469L69.7458 48.6659C68.5813 47.9728 67.6358 47.016 66.9074 45.7832L65.8243 46.4232ZM69.1079 49.7502C70.4916 50.5547 71.9797 50.9597 73.5616 50.9597V49.7017C72.2053 49.7017 70.9349 49.3572 69.7402 48.6626L69.1079 49.7502ZM88.3466 23.0769V22.4479H87.7176V23.0769H88.3466ZM94.6428 23.0769V23.7059H95.2718V23.0769H94.6428ZM94.6428 7.92086V7.29186H94.0138V7.92086H94.6428ZM108.18 7.92086H108.809V7.29186H108.18V7.92086ZM108.18 23.0769H107.551V23.7059H108.18V23.0769ZM116.455 23.0769H117.084V22.4479H116.455V23.0769ZM116.455 34.3202V34.9492H117.084V34.3202H116.455ZM108.18 34.3202V33.6912H107.551V34.3202H108.18ZM108.854 48.3519L108.285 48.6189L108.288 48.6259L108.854 48.3519ZM114.431 48.4868L114.998 48.214L114.613 47.4152L113.986 48.0421L114.431 48.4868ZM119.108 58.2011L119.518 58.6786L119.885 58.3639L119.675 57.9282L119.108 58.2011ZM117.13 59.1905L116.88 58.6131L116.874 58.6157L117.13 59.1905ZM112.992 60.4947L113.134 61.1074L113.134 61.1074L112.992 60.4947ZM98.2407 57.9762L97.8265 58.4496L97.8299 58.4525L98.2407 57.9762ZM94.6428 34.3202H95.2718V33.6912H94.6428V34.3202ZM88.3466 34.3202H87.7176V34.9492H88.3466V34.3202ZM88.3466 23.7059H94.6428V22.4479H88.3466V23.7059ZM95.2718 23.0769V7.92086H94.0138V23.0769H95.2718ZM94.6428 8.54986H108.18V7.29186H94.6428V8.54986ZM107.551 7.92086V23.0769H108.809V7.92086H107.551ZM108.18 23.7059H116.455V22.4479H108.18V23.7059ZM115.826 23.0769V34.3202H117.084V23.0769H115.826ZM116.455 33.6912H108.18V34.9492H116.455V33.6912ZM107.551 34.3202V44.6191H108.809V34.3202H107.551ZM107.551 44.6191C107.551 46.2027 107.783 47.5473 108.285 48.6189L109.424 48.0849C109.027 47.2376 108.809 46.0938 108.809 44.6191H107.551ZM108.288 48.6259C108.564 49.195 108.967 49.6444 109.501 49.9455C110.03 50.2434 110.648 50.3751 111.328 50.3751V49.1171C110.808 49.1171 110.415 49.0164 110.119 48.8496C109.829 48.6859 109.595 48.4382 109.421 48.0779L108.288 48.6259ZM111.328 50.3751C112.232 50.3751 113.044 50.1733 113.733 49.7382L113.061 48.6746C112.61 48.9591 112.043 49.1171 111.328 49.1171V50.3751ZM113.733 49.7382C114.021 49.5559 114.259 49.4005 114.442 49.273C114.613 49.1538 114.772 49.0356 114.876 48.9316L113.986 48.0421C113.987 48.0418 113.981 48.047 113.968 48.0584C113.955 48.0694 113.937 48.0838 113.914 48.1019C113.867 48.1382 113.804 48.1841 113.723 48.2403C113.562 48.3527 113.342 48.4971 113.061 48.6746L113.733 49.7382ZM113.864 48.7597L118.542 58.4739L119.675 57.9282L114.998 48.214L113.864 48.7597ZM118.699 57.7235C118.661 57.7562 118.511 57.8529 118.175 58.0207C117.86 58.1782 117.43 58.3754 116.88 58.6131L117.379 59.7678C117.939 59.5258 118.393 59.3183 118.738 59.1459C119.061 58.984 119.346 58.8258 119.518 58.6786L118.699 57.7235ZM116.874 58.6157C115.844 59.0737 114.506 59.4975 112.85 59.882L113.134 61.1074C114.836 60.7123 116.257 60.2667 117.385 59.7653L116.874 58.6157ZM112.85 59.882C111.226 60.259 109.4 60.4504 107.37 60.4504V61.7084C109.478 61.7084 111.4 61.5099 113.134 61.1074L112.85 59.882ZM107.37 60.4504C103.807 60.4504 100.918 59.4543 98.6515 57.4999L97.8299 58.4525C100.361 60.6356 103.558 61.7084 107.37 61.7084V60.4504ZM98.6549 57.5028C96.4374 55.5625 95.2718 52.5421 95.2718 48.3069H94.0138C94.0138 52.7666 95.2468 56.1923 97.8265 58.4496L98.6549 57.5028ZM95.2718 48.3069V34.3202H94.0138V48.3069H95.2718ZM94.6428 33.6912H88.3466V34.9492H94.6428V33.6912ZM88.9756 34.3202V23.0769H87.7176V34.3202H88.9756ZM124.62 60H123.991V60.629H124.62V60ZM124.62 23.0769V22.4479H123.991V23.0769H124.62ZM138.292 23.0769H138.921V22.4479H138.292V23.0769ZM138.292 60V60.629H138.921V60H138.292ZM126.149 13.2277L125.7 13.6681L125.705 13.6725L126.149 13.2277ZM126.149 2.34417L125.7 1.90374L125.7 1.90382L126.149 2.34417ZM135.504 1.08491L135.174 1.6207L135.184 1.62671L135.504 1.08491ZM138.337 3.87326L137.802 4.20292L137.802 4.20292L138.337 3.87326ZM137.123 13.2277L137.563 13.6769L137.568 13.6725L137.123 13.2277ZM125.249 60V23.0769H123.991V60H125.249ZM124.62 23.7059H138.292V22.4479H124.62V23.7059ZM137.663 23.0769V60H138.921V23.0769H137.663ZM138.292 59.371H124.62V60.629H138.292V59.371ZM131.636 14.8474C129.641 14.8474 127.973 14.1617 126.594 12.7829L125.705 13.6725C127.324 15.2919 129.314 16.1054 131.636 16.1054V14.8474ZM126.599 12.7874C125.212 11.3732 124.53 9.71633 124.53 7.78594H123.272C123.272 10.0531 124.089 12.0241 125.7 13.6681L126.599 12.7874ZM124.53 7.78594C124.53 5.85555 125.212 4.19869 126.599 2.78451L125.7 1.90382C124.089 3.54783 123.272 5.51882 123.272 7.78594H124.53ZM126.599 2.7846C128.013 1.34263 129.681 0.634548 131.636 0.634548V-0.623447C129.334 -0.623447 127.344 0.22755 125.7 1.90374L126.599 2.7846ZM131.636 0.634548C132.932 0.634548 134.107 0.963706 135.174 1.6206L135.834 0.549222C134.562 -0.23303 133.159 -0.623447 131.636 -0.623447V0.634548ZM135.184 1.62671C136.264 2.26364 137.135 3.11984 137.802 4.20292L138.873 3.54361C138.1 2.28807 137.082 1.28537 135.823 0.543116L135.184 1.62671ZM137.802 4.20292C138.457 5.2682 138.788 6.45732 138.788 7.78594H140.046C140.046 6.23627 139.657 4.81693 138.873 3.54361L137.802 4.20292ZM138.788 7.78594C138.788 9.7123 138.093 11.3678 136.678 12.7829L137.568 13.6725C139.211 12.0294 140.046 10.0571 140.046 7.78594H138.788ZM136.683 12.7786C135.27 14.1632 133.599 14.8474 131.636 14.8474V16.1054C133.931 16.1054 135.917 15.2905 137.563 13.6769L136.683 12.7786ZM176.359 60H175.73V60.629H176.359V60ZM176.359 54.0185H176.988L175.786 53.7604L176.359 54.0185ZM174.291 56.627L173.84 56.1882L173.834 56.1944L174.291 56.627ZM169.973 59.7302L170.255 60.2928L170.262 60.289L169.973 59.7302ZM154.233 58.4709L153.888 58.997L153.892 58.9996L154.233 58.4709ZM147.936 51.4101L147.375 51.6937L147.376 51.696L147.936 51.4101ZM147.936 31.7567L148.497 32.0426L148.498 32.0403L147.936 31.7567ZM154.233 24.6509L154.577 25.177L154.577 25.177L154.233 24.6509ZM169.748 23.1219L169.499 23.6995L169.508 23.7031L169.748 23.1219ZM173.976 25.7303L173.544 26.1876L173.551 26.194L173.976 25.7303ZM176.225 28.4737L175.662 28.755L176.854 28.4737H176.225ZM176.225 23.0769V22.4479H175.596V23.0769H176.225ZM189.806 23.0769H190.435V22.4479H189.806V23.0769ZM189.806 60V60.629H190.435V60H189.806ZM160.259 46.1032L159.714 46.4179L159.717 46.4232L160.259 46.1032ZM163.362 49.2064L163.046 49.7502L163.051 49.7533L163.362 49.2064ZM175.055 46.1032L174.505 45.7978L174.503 45.802L175.055 46.1032ZM175.055 37.0636L174.5 37.3596L174.504 37.367L174.508 37.3743L175.055 37.0636ZM172.087 33.9155L171.756 34.4504L171.765 34.456L172.087 33.9155ZM163.362 33.9155L163.678 34.4592L163.682 34.457L163.362 33.9155ZM160.259 37.0636L160.801 37.3836L160.804 37.3783L160.259 37.0636ZM176.988 60V54.0185H175.73V60H176.988ZM175.786 53.7604C175.566 54.2482 174.95 55.0477 173.84 56.1882L174.741 57.0658C175.85 55.9276 176.613 54.9882 176.933 54.2767L175.786 53.7604ZM173.834 56.1944C172.815 57.2701 171.438 58.2654 169.684 59.1713L170.262 60.289C172.106 59.3361 173.608 58.2625 174.747 57.0596L173.834 56.1944ZM169.692 59.1676C167.996 60.0157 165.997 60.4504 163.677 60.4504V61.7084C166.155 61.7084 168.353 61.2435 170.255 60.2928L169.692 59.1676ZM163.677 60.4504C160.185 60.4504 157.158 59.608 154.573 57.9422L153.892 58.9996C156.704 60.8118 159.973 61.7084 163.677 61.7084V60.4504ZM154.577 57.9449C151.973 56.2373 149.947 53.9673 148.497 51.1242L147.376 51.696C148.924 54.7294 151.096 57.1666 153.888 58.9969L154.577 57.9449ZM148.498 51.1265C147.047 48.2533 146.317 45.0685 146.317 41.5609H145.059C145.059 45.2491 145.828 48.6304 147.375 51.6937L148.498 51.1265ZM146.317 41.5609C146.317 38.0532 147.047 34.8845 148.497 32.0426L147.376 31.4709C145.828 34.5055 145.059 37.8729 145.059 41.5609H146.317ZM148.498 32.0403C149.949 29.1673 151.974 26.8836 154.577 25.177L153.888 24.1249C151.094 25.9562 148.922 28.4097 147.375 31.4732L148.498 32.0403ZM154.577 25.177C157.162 23.4828 160.187 22.6265 163.677 22.6265V21.3685C159.971 21.3685 156.7 22.2812 153.888 24.1249L154.577 25.177ZM163.677 22.6265C165.918 22.6265 167.854 22.9904 169.499 23.6995L169.997 22.5442C168.164 21.7542 166.053 21.3685 163.677 21.3685V22.6265ZM169.508 23.7031C171.194 24.4008 172.533 25.2328 173.544 26.1876L174.408 25.273C173.26 24.189 171.78 23.282 169.989 22.5406L169.508 23.7031ZM173.551 26.194C174.602 27.1573 175.29 28.0116 175.662 28.755L176.787 28.1924C176.319 27.2568 175.509 26.2821 174.401 25.2666L173.551 26.194ZM176.854 28.4737V23.0769H175.596V28.4737H176.854ZM176.225 23.7059H189.806V22.4479H176.225V23.7059ZM189.177 23.0769V60H190.435V23.0769H189.177ZM189.806 59.371H176.359V60.629H189.806V59.371ZM158.461 41.5609C158.461 43.3416 158.875 44.9657 159.714 46.4179L160.804 45.7886C160.084 44.5424 159.719 43.1383 159.719 41.5609H158.461ZM159.717 46.4232C160.55 47.8324 161.661 48.945 163.046 49.7502L163.678 48.6626C162.485 47.9687 161.527 47.0125 160.8 45.7832L159.717 46.4232ZM163.051 49.7533C164.47 50.5592 166.032 50.9597 167.725 50.9597V49.7017C166.239 49.7017 164.893 49.3527 163.673 48.6595L163.051 49.7533ZM167.725 50.9597C169.472 50.9597 171.04 50.5614 172.409 49.7469L171.765 48.6659C170.615 49.3505 169.275 49.7017 167.725 49.7017V50.9597ZM172.409 49.7469C173.767 48.9381 174.835 47.82 175.607 46.4044L174.503 45.802C173.836 47.0249 172.925 47.9755 171.765 48.6659L172.409 49.7469ZM175.605 46.4087C176.411 44.958 176.809 43.3372 176.809 41.5609H175.551C175.551 43.1427 175.199 44.5501 174.505 45.7978L175.605 46.4087ZM176.809 41.5609C176.809 39.7849 176.411 38.1766 175.602 36.7529L174.508 37.3743C175.198 38.589 175.551 39.979 175.551 41.5609H176.809ZM175.61 36.7676C174.839 35.3217 173.771 34.1858 172.409 33.375L171.765 34.456C172.921 35.1442 173.832 36.107 174.5 37.3596L175.61 36.7676ZM172.418 33.3806C171.048 32.5327 169.477 32.1172 167.725 32.1172V33.3751C169.27 33.3751 170.607 33.7391 171.756 34.4503L172.418 33.3806ZM167.725 32.1172C166.027 32.1172 164.462 32.535 163.042 33.3739L163.682 34.457C164.901 33.7369 166.244 33.3751 167.725 33.3751V32.1172ZM163.046 33.3717C161.658 34.1789 160.546 35.3092 159.714 36.7489L160.804 37.3783C161.531 36.1196 162.488 35.1511 163.678 34.4592L163.046 33.3717ZM159.717 36.7436C158.875 38.1689 158.461 39.7805 158.461 41.5609H159.719C159.719 39.9834 160.084 38.5968 160.8 37.3836L159.717 36.7436ZM221.688 22.6271L221.56 23.2429L221.569 23.2446L221.688 22.6271ZM226.725 23.9763L226.503 24.5648L226.507 24.5663L226.725 23.9763ZM229.379 25.2356L229.929 25.54L230.179 25.0886L229.785 24.7554L229.379 25.2356ZM224.926 33.2858L224.553 33.7922L225.13 34.2172L225.477 33.5903L224.926 33.2858ZM221.733 31.6668L221.484 32.2444L221.488 32.2461L221.733 31.6668ZM212.964 31.352L213.209 31.931L213.217 31.9279L213.224 31.9246L212.964 31.352ZM213.098 35.6244L212.805 36.1807L212.814 36.1855L212.823 36.1901L213.098 35.6244ZM217.866 37.0636L217.741 37.68L217.742 37.6804L217.866 37.0636ZM223.352 38.7726L223.596 38.1925L223.596 38.1925L223.352 38.7726ZM227.985 42.2355L227.494 42.6297L227.503 42.6401L227.985 42.2355ZM228.209 54.6482L228.734 54.9949L228.734 54.9949L228.209 54.6482ZM223.802 58.5609L223.517 58.0001L223.517 58.0001L223.802 58.5609ZM217.866 60.4947L217.761 59.8744L217.752 59.876L217.866 60.4947ZM204.284 60.3148L204.133 60.9256L204.135 60.926L204.284 60.3148ZM199.247 58.5609L198.96 59.1208L198.96 59.1208L199.247 58.5609ZM196.548 56.9868L195.983 56.71L195.756 57.1731L196.166 57.4864L196.548 56.9868ZM200.956 47.9921L201.362 47.5119L200.746 46.9907L200.391 47.7153L200.956 47.9921ZM204.778 50.2408L204.509 50.8091L204.517 50.8127L204.778 50.2408ZM214.852 50.6006L215.152 51.1534L215.152 51.1534L214.852 50.6006ZM215.662 46.553L216.078 46.0813L216.078 46.0813L215.662 46.553ZM213.503 45.3837L213.293 45.9764L213.293 45.9764L213.503 45.3837ZM210.13 44.4842L210.256 43.8679L210.254 43.8674L210.13 44.4842ZM206.307 43.3599L206.085 43.9483L206.085 43.9483L206.307 43.3599ZM202.485 41.2911L202.107 41.7944L202.116 41.8003L202.485 41.2911ZM199.561 37.9181L200.111 37.6126L200.111 37.6126L199.561 37.9181ZM200.821 26.8996L200.372 26.459L200.372 26.459L200.821 26.8996ZM206.982 23.2568L207.175 23.8556L207.181 23.8535L206.982 23.2568ZM215.032 22.6265C217.425 22.6265 219.6 22.8334 221.56 23.2428L221.817 22.0114C219.759 21.5814 217.496 21.3685 215.032 21.3685V22.6265ZM221.569 23.2446C223.556 23.6302 225.198 24.0716 226.503 24.5648L226.948 23.3879C225.555 22.8617 223.839 22.4036 221.808 22.0097L221.569 23.2446ZM226.507 24.5663C227.187 24.8176 227.734 25.0427 228.153 25.2417C228.583 25.4454 228.841 25.6049 228.972 25.7158L229.785 24.7554C229.526 24.5365 229.148 24.3212 228.693 24.1052C228.228 23.8844 227.643 23.6448 226.943 23.3864L226.507 24.5663ZM228.828 24.9312L224.376 32.9814L225.477 33.5903L229.929 25.54L228.828 24.9312ZM225.3 32.7795C224.664 32.3112 223.538 31.7471 221.978 31.0875L221.488 32.2461C223.047 32.9057 224.049 33.4209 224.553 33.7922L225.3 32.7795ZM221.982 31.0892C220.365 30.3914 218.569 30.0484 216.606 30.0484V31.3064C218.421 31.3064 220.044 31.6229 221.484 32.2443L221.982 31.0892ZM216.606 30.0484C215.105 30.0484 213.796 30.2825 212.703 30.7794L213.224 31.9246C214.11 31.522 215.229 31.3064 216.606 31.3064V30.0484ZM212.718 30.7729C212.148 31.0147 211.674 31.3496 211.343 31.8008C211.008 32.2579 210.85 32.7929 210.85 33.3758H212.108C212.108 33.0292 212.198 32.7622 212.358 32.5447C212.522 32.3213 212.79 32.109 213.209 31.931L212.718 30.7729ZM210.85 33.3758C210.85 34.6128 211.594 35.5419 212.805 36.1807L213.392 35.0682C212.444 34.5677 212.108 33.9977 212.108 33.3758H210.85ZM212.823 36.1901C214.002 36.7636 215.651 37.2561 217.741 37.68L217.991 36.4472C215.943 36.0316 214.413 35.5646 213.374 35.0588L212.823 36.1901ZM217.742 37.6804C219.496 38.0312 221.285 38.5877 223.109 39.3526L223.596 38.1925C221.702 37.3984 219.833 36.8156 217.989 36.4468L217.742 37.6804ZM223.109 39.3526C224.874 40.0929 226.333 41.1844 227.494 42.6296L228.475 41.8414C227.178 40.2285 225.548 39.0114 223.596 38.1925L223.109 39.3526ZM227.503 42.6401C228.643 43.9967 229.244 45.8482 229.244 48.262H230.502C230.502 45.6387 229.845 43.4726 228.466 41.831L227.503 42.6401ZM229.244 48.262C229.244 50.7516 228.709 52.7507 227.685 54.3014L228.734 54.9949C229.928 53.1876 230.502 50.9293 230.502 48.262H229.244ZM227.685 54.3014C226.637 55.8877 225.251 57.119 223.517 58.0001L224.087 59.1216C226.011 58.1438 227.564 56.7667 228.734 54.9949L227.685 54.3014ZM223.517 58.0001C221.748 58.8993 219.83 59.5248 217.761 59.8745L217.97 61.1149C220.159 60.7451 222.199 60.0813 224.087 59.1216L223.517 58.0001ZM217.752 59.876C215.658 60.2594 213.627 60.4504 211.659 60.4504V61.7084C213.709 61.7084 215.816 61.5095 217.979 61.1134L217.752 59.876ZM211.659 60.4504C208.877 60.4504 206.47 60.1985 204.432 59.7036L204.135 60.926C206.295 61.4505 208.805 61.7084 211.659 61.7084V60.4504ZM204.434 59.7041C202.393 59.2011 200.764 58.6307 199.533 58.0009L198.96 59.1208C200.308 59.8102 202.037 60.4091 204.133 60.9255L204.434 59.7041ZM199.533 58.0009C198.246 57.3426 197.391 56.8396 196.93 56.4871L196.166 57.4864C196.725 57.9135 197.668 58.4599 198.96 59.1208L199.533 58.0009ZM197.113 57.2636L201.52 48.2689L200.391 47.7153L195.983 56.71L197.113 57.2636ZM200.549 48.4723C201.393 49.1859 202.727 49.9634 204.509 50.809L205.048 49.6725C203.292 48.8392 202.078 48.1176 201.362 47.5119L200.549 48.4723ZM204.517 50.8127C206.369 51.6605 208.332 52.0841 210.4 52.0841V50.8261C208.51 50.8261 206.725 50.4401 205.04 49.6688L204.517 50.8127ZM210.4 52.0841C212.367 52.0841 213.971 51.7946 215.152 51.1534L214.552 50.0478C213.635 50.5459 212.271 50.8261 210.4 50.8261V52.0841ZM215.152 51.1534C216.337 50.5102 217.055 49.5796 217.055 48.3519H215.797C215.797 48.9831 215.466 49.5516 214.552 50.0478L215.152 51.1534ZM217.055 48.3519C217.055 47.4426 216.738 46.6635 216.078 46.0813L215.246 47.0246C215.605 47.3419 215.797 47.762 215.797 48.3519H217.055ZM216.078 46.0813C215.487 45.5602 214.687 45.1365 213.714 44.7909L213.293 45.9764C214.178 46.2905 214.817 46.6463 215.246 47.0246L216.078 46.0813ZM213.714 44.7909C212.749 44.4485 211.595 44.1417 210.256 43.868L210.004 45.1004C211.304 45.3664 212.399 45.6592 213.293 45.9764L213.714 44.7909ZM210.254 43.8674C209.093 43.6354 207.852 43.2711 206.53 42.7715L206.085 43.9483C207.461 44.468 208.769 44.8533 210.007 45.101L210.254 43.8674ZM206.53 42.7715C205.234 42.282 204.009 41.6194 202.854 40.7818L202.116 41.8003C203.359 42.7017 204.682 43.4183 206.085 43.9483L206.53 42.7715ZM202.862 40.7879C201.736 39.9431 200.819 38.8869 200.111 37.6126L199.012 38.2236C199.803 39.6477 200.835 40.8402 202.107 41.7943L202.862 40.7879ZM200.111 37.6126C199.425 36.377 199.066 34.8536 199.066 33.016H197.808C197.808 35.0161 198.199 36.7608 199.012 38.2236L200.111 37.6126ZM199.066 33.016C199.066 30.7071 199.806 28.8312 201.27 27.3402L200.372 26.459C198.657 28.2061 197.808 30.4078 197.808 33.016H199.066ZM201.27 27.3402C202.776 25.8051 204.737 24.6391 207.175 23.8556L206.79 22.658C204.19 23.4935 202.043 24.756 200.372 26.459L201.27 27.3402ZM207.181 23.8535C209.631 23.0369 212.247 22.6265 215.032 22.6265V21.3685C212.121 21.3685 209.37 21.7977 206.783 22.6601L207.181 23.8535ZM16.4497 143V143.629H17.0787V143H16.4497ZM2.73279 143H2.10379V143.629H2.73279V143ZM2.73279 81.1167V80.4877H2.10379V81.1167H2.73279ZM16.4497 81.1167H17.0787V80.4877H16.4497V81.1167ZM16.4497 142.371H2.73279V143.629H16.4497V142.371ZM3.36179 143V81.1167H2.10379V143H3.36179ZM2.73279 81.7457H16.4497V80.4877H2.73279V81.7457ZM15.8207 81.1167V143H17.0787V81.1167H15.8207ZM39.8808 130.228L39.3479 130.562L39.3505 130.566L39.8808 130.228ZM51.0791 130.228L50.5463 129.893L50.5447 129.896L51.0791 130.228ZM52.7432 106.077V105.448H52.1142V106.077H52.7432ZM66.2352 106.077H66.8642V105.448H66.2352V106.077ZM63.7616 134.95L63.2131 134.642L63.212 134.644L63.7616 134.95ZM56.7008 141.696L56.9886 142.255L56.9886 142.255L56.7008 141.696ZM34.2591 141.696L33.9713 142.255L33.9713 142.255L34.2591 141.696ZM27.1983 134.95L26.6474 135.253L26.6487 135.256L27.1983 134.95ZM24.7697 106.077V105.448H24.1407V106.077H24.7697ZM38.2168 106.077H38.8458V105.448H38.2168V106.077ZM37.5878 123.167C37.5878 126.177 38.1551 128.66 39.3479 130.562L40.4137 129.893C39.3877 128.257 38.8458 126.033 38.8458 123.167H37.5878ZM39.3505 130.566C40.6063 132.534 42.6989 133.465 45.4575 133.465V132.207C42.9991 132.207 41.3739 131.399 40.4111 129.889L39.3505 130.566ZM45.4575 133.465C48.2686 133.465 50.3849 132.539 51.6136 130.559L50.5447 129.896C49.6147 131.394 47.9831 132.207 45.4575 132.207V133.465ZM51.612 130.562C52.8048 128.66 53.3721 126.177 53.3721 123.167H52.1142C52.1142 126.033 51.5722 128.257 50.5463 129.893L51.612 130.562ZM53.3721 123.167V106.077H52.1142V123.167H53.3721ZM52.7432 106.706H66.2352V105.448H52.7432V106.706ZM65.6062 106.077V124.606H66.8642V106.077H65.6062ZM65.6062 124.606C65.6062 128.475 64.8008 131.813 63.2131 134.642L64.3101 135.258C66.0205 132.21 66.8642 128.652 66.8642 124.606H65.6062ZM63.212 134.644C61.6561 137.439 59.3959 139.602 56.413 141.136L56.9886 142.255C60.1821 140.612 62.6291 138.277 64.3112 135.256L63.212 134.644ZM56.413 141.136C53.4346 142.669 49.791 143.45 45.4575 143.45V144.708C49.9387 144.708 53.7907 143.901 56.9886 142.255L56.413 141.136ZM45.4575 143.45C41.1547 143.45 37.5259 142.669 34.5469 141.136L33.9713 142.255C37.1687 143.9 41.0054 144.708 45.4575 144.708V143.45ZM34.5469 141.136C31.564 139.602 29.3038 137.439 27.7479 134.644L26.6487 135.256C28.3308 138.277 30.7779 140.612 33.9713 142.255L34.5469 141.136ZM27.7492 134.646C26.1899 131.816 25.3987 128.477 25.3987 124.606H24.1407C24.1407 128.651 24.9686 132.207 26.6474 135.253L27.7492 134.646ZM25.3987 124.606V106.077H24.1407V124.606H25.3987ZM24.7697 106.706H38.2168V105.448H24.7697V106.706ZM37.5878 106.077V123.167H38.8458V106.077H37.5878ZM107.507 106.572L107.754 105.993L107.754 105.993L107.507 106.572ZM113.579 111.564L113.063 111.923L113.065 111.927L113.579 111.564ZM115.962 143V143.629H116.591V143H115.962ZM102.245 143H101.616V143.629H102.245V143ZM100.357 116.781L99.8967 117.21L99.9016 117.215L100.357 116.781ZM91.5868 115.836L91.9063 116.378L91.9104 116.375L91.5868 115.836ZM88.7085 118.804L88.1647 118.488L88.1623 118.492L88.7085 118.804ZM87.6291 143V143.629H88.2581V143H87.6291ZM73.9572 143H73.3282V143.629H73.9572V143ZM73.9572 106.077V105.448H73.3282V106.077H73.9572ZM87.6291 106.077H88.2581V105.448H87.6291V106.077ZM87.6291 111.519H87.0001L88.2202 111.734L87.6291 111.519ZM89.8778 108.55L90.2902 109.025L90.2911 109.025L89.8778 108.55ZM94.2402 106.032L94.4633 106.62L94.4687 106.618L94.2402 106.032ZM99.9518 105.627C102.442 105.627 104.877 106.133 107.26 107.15L107.754 105.993C105.221 104.912 102.618 104.369 99.9518 104.369V105.627ZM107.26 107.15C109.606 108.151 111.538 109.737 113.063 111.923L114.095 111.204C112.441 108.833 110.326 107.091 107.754 105.993L107.26 107.15ZM113.065 111.927C114.557 114.038 115.333 116.867 115.333 120.468H116.591C116.591 116.694 115.778 113.586 114.092 111.201L113.065 111.927ZM115.333 120.468V143H116.591V120.468H115.333ZM115.962 142.371H102.245V143.629H115.962V142.371ZM102.874 143V122.717H101.616V143H102.874ZM102.874 122.717C102.874 119.989 102.224 117.826 100.812 116.346L99.9016 117.215C101.008 118.374 101.616 120.168 101.616 122.717H102.874ZM100.816 116.351C99.425 114.861 97.6024 114.128 95.4095 114.128V115.386C97.2942 115.386 98.7696 116.002 99.8967 117.21L100.816 116.351ZM95.4095 114.128C93.942 114.128 92.5564 114.521 91.2632 115.297L91.9104 116.375C93.0157 115.712 94.1786 115.386 95.4095 115.386V114.128ZM91.2672 115.294C89.9961 116.044 88.963 117.115 88.1647 118.488L89.2522 119.12C89.9531 117.915 90.8388 117.007 91.9063 116.378L91.2672 115.294ZM88.1623 118.492C87.3814 119.859 87.0001 121.424 87.0001 123.167H88.2581C88.2581 121.612 88.5964 120.268 89.2546 119.116L88.1623 118.492ZM87.0001 123.167V143H88.2581V123.167H87.0001ZM87.6291 142.371H73.9572V143.629H87.6291V142.371ZM74.5862 143V106.077H73.3282V143H74.5862ZM73.9572 106.706H87.6291V105.448H73.9572V106.706ZM87.0001 106.077V111.519H88.2581V106.077H87.0001ZM88.2202 111.734C88.5311 110.879 89.1987 109.973 90.2902 109.025L89.4654 108.076C88.2782 109.106 87.4467 110.18 87.038 111.304L88.2202 111.734ZM90.2911 109.025C91.3943 108.063 92.7805 107.258 94.4633 106.62L94.0171 105.444C92.222 106.125 90.6999 106.999 89.4644 108.076L90.2911 109.025ZM94.4687 106.618C96.1596 105.959 97.9854 105.627 99.9518 105.627V104.369C97.8407 104.369 95.8587 104.726 94.0117 105.446L94.4687 106.618ZM152.555 143H151.926V143.629H152.555V143ZM152.555 137.019H153.184L151.982 136.76L152.555 137.019ZM150.486 139.627L150.036 139.188L150.03 139.194L150.486 139.627ZM146.169 142.73L146.45 143.293L146.458 143.289L146.169 142.73ZM130.428 141.471L130.083 141.997L130.088 142L130.428 141.471ZM124.132 134.41L123.571 134.694L123.572 134.696L124.132 134.41ZM124.132 114.757L124.692 115.043L124.693 115.04L124.132 114.757ZM130.428 107.651L130.773 108.177L130.773 108.177L130.428 107.651ZM145.944 106.122L145.695 106.7L145.704 106.703L145.944 106.122ZM150.172 108.73L149.74 109.188L149.747 109.194L150.172 108.73ZM152.42 111.474L151.858 111.755L153.049 111.474H152.42ZM152.42 106.077V105.448H151.791V106.077H152.42ZM166.002 106.077H166.631V105.448H166.002V106.077ZM166.002 143V143.629H166.631V143H166.002ZM136.455 129.103L135.91 129.418L135.913 129.423L136.455 129.103ZM139.558 132.206L139.242 132.75L139.247 132.753L139.558 132.206ZM151.251 129.103L150.701 128.798L150.699 128.802L151.251 129.103ZM151.251 120.064L150.696 120.36L150.7 120.367L150.704 120.374L151.251 120.064ZM148.283 116.915L147.952 117.45L147.961 117.456L148.283 116.915ZM139.558 116.915L139.874 117.459L139.878 117.457L139.558 116.915ZM136.455 120.064L136.996 120.384L136.999 120.378L136.455 120.064ZM153.184 143V137.019H151.926V143H153.184ZM151.982 136.76C151.762 137.248 151.146 138.048 150.036 139.188L150.937 140.066C152.045 138.928 152.809 137.988 153.129 137.277L151.982 136.76ZM150.03 139.194C149.011 140.27 147.634 141.265 145.88 142.171L146.458 143.289C148.302 142.336 149.803 141.263 150.943 140.06L150.03 139.194ZM145.888 142.168C144.191 143.016 142.192 143.45 139.873 143.45V144.708C142.35 144.708 144.549 144.244 146.45 143.293L145.888 142.168ZM139.873 143.45C136.381 143.45 133.354 142.608 130.769 140.942L130.088 142C132.9 143.812 136.169 144.708 139.873 144.708V143.45ZM130.773 140.945C128.168 139.237 126.143 136.967 124.692 134.124L123.572 134.696C125.119 137.729 127.291 140.167 130.083 141.997L130.773 140.945ZM124.693 134.127C123.242 131.253 122.512 128.069 122.512 124.561H121.254C121.254 128.249 122.023 131.63 123.571 134.694L124.693 134.127ZM122.512 124.561C122.512 121.053 123.242 117.884 124.692 115.043L123.572 114.471C122.023 117.505 121.254 120.873 121.254 124.561H122.512ZM124.693 115.04C126.144 112.167 128.17 109.884 130.773 108.177L130.083 107.125C127.29 108.956 125.118 111.41 123.571 114.473L124.693 115.04ZM130.773 108.177C133.357 106.483 136.383 105.627 139.873 105.627V104.369C136.167 104.369 132.896 105.281 130.083 107.125L130.773 108.177ZM139.873 105.627C142.114 105.627 144.05 105.99 145.695 106.699L146.193 105.544C144.36 104.754 142.249 104.369 139.873 104.369V105.627ZM145.704 106.703C147.39 107.401 148.729 108.233 149.74 109.188L150.603 108.273C149.456 107.189 147.976 106.282 146.185 105.541L145.704 106.703ZM149.747 109.194C150.797 110.157 151.486 111.012 151.858 111.755L152.983 111.192C152.515 110.257 151.704 109.282 150.597 108.267L149.747 109.194ZM153.049 111.474V106.077H151.791V111.474H153.049ZM152.42 106.706H166.002V105.448H152.42V106.706ZM165.373 106.077V143H166.631V106.077H165.373ZM166.002 142.371H152.555V143.629H166.002V142.371ZM134.656 124.561C134.656 126.342 135.071 127.966 135.91 129.418L136.999 128.789C136.279 127.542 135.914 126.138 135.914 124.561H134.656ZM135.913 129.423C136.746 130.832 137.857 131.945 139.242 132.75L139.874 131.663C138.68 130.969 137.723 130.012 136.996 128.783L135.913 129.423ZM139.247 132.753C140.666 133.559 142.228 133.96 143.92 133.96V132.702C142.435 132.702 141.089 132.353 139.869 131.66L139.247 132.753ZM143.92 133.96C145.668 133.96 147.236 133.561 148.604 132.747L147.961 131.666C146.811 132.351 145.471 132.702 143.92 132.702V133.96ZM148.604 132.747C149.963 131.938 151.031 130.82 151.803 129.404L150.699 128.802C150.032 130.025 149.121 130.976 147.961 131.666L148.604 132.747ZM151.801 129.409C152.607 127.958 153.004 126.337 153.004 124.561H151.746C151.746 126.143 151.394 127.55 150.701 128.798L151.801 129.409ZM153.004 124.561C153.004 122.785 152.607 121.177 151.798 119.753L150.704 120.374C151.394 121.589 151.746 122.979 151.746 124.561H153.004ZM151.806 119.768C151.035 118.322 149.967 117.186 148.604 116.375L147.961 117.456C149.117 118.144 150.028 119.107 150.696 120.36L151.806 119.768ZM148.614 116.381C147.244 115.533 145.673 115.117 143.92 115.117V116.375C145.466 116.375 146.803 116.739 147.952 117.45L148.614 116.381ZM143.92 115.117C142.223 115.117 140.658 115.535 139.238 116.374L139.878 117.457C141.096 116.737 142.439 116.375 143.92 116.375V115.117ZM139.242 116.372C137.853 117.179 136.742 118.309 135.91 119.749L136.999 120.378C137.727 119.12 138.684 118.151 139.874 117.459L139.242 116.372ZM135.913 119.744C135.071 121.169 134.656 122.78 134.656 124.561H135.914C135.914 122.983 136.279 121.597 136.996 120.384L135.913 119.744Z" fill="#0D0E0A" mask="url(#path-1-outside-1_6_41)"/>
</svg>
