<svg width="230" height="145" viewBox="0 0 230 145" fill="none" xmlns="http://www.w3.org/2000/svg">
<path d="M31.4258 60V54.0185C31.1559 54.6182 30.4664 55.4877 29.357 56.627C28.2777 57.7663 26.8385 58.8007 25.0396 59.7302C23.2406 60.6296 21.1419 61.0794 18.7433 61.0794C15.1454 61.0794 11.9973 60.2099 9.2989 58.4709C6.6005 56.702 4.50174 54.3483 3.00263 51.4101C1.50352 48.4418 0.753961 45.1588 0.753961 41.5609C0.753961 37.9631 1.50352 34.695 3.00263 31.7567C4.50174 28.7885 6.6005 26.4199 9.2989 24.6509C11.9973 22.882 15.1454 21.9975 18.7433 21.9975C21.0519 21.9975 23.0757 22.3723 24.8147 23.1219C26.5537 23.8414 27.9628 24.7109 29.0422 25.7303C30.1216 26.7197 30.8711 27.6342 31.2909 28.4737V23.0769H44.8728V60H31.4258ZM14.156 41.5609C14.156 43.2399 14.5458 44.754 15.3253 46.1032C16.1049 47.4225 17.1393 48.4568 18.4285 49.2064C19.7477 49.956 21.2018 50.3307 22.7909 50.3307C24.4399 50.3307 25.8941 49.956 27.1533 49.2064C28.4126 48.4568 29.402 47.4225 30.1216 46.1032C30.8711 44.754 31.2459 43.2399 31.2459 41.5609C31.2459 39.8819 30.8711 38.3828 30.1216 37.0636C29.402 35.7144 28.4126 34.665 27.1533 33.9155C25.8941 33.1359 24.4399 32.7462 22.7909 32.7462C21.2018 32.7462 19.7477 33.1359 18.4285 33.9155C17.1393 34.665 16.1049 35.7144 15.3253 37.0636C14.5458 38.3828 14.156 39.8819 14.156 41.5609ZM73.5616 50.3307C75.2706 50.3307 76.6797 50.0459 77.7891 49.4762C78.8984 48.8766 79.648 48.3969 80.0378 48.0371L86.2891 57.3016C85.8093 57.6914 84.9848 58.2011 83.8155 58.8307C82.6462 59.4303 81.1771 59.955 79.4081 60.4048C77.6692 60.8545 75.6753 61.0794 73.4267 61.0794C69.1992 61.0794 65.4814 60.2848 62.2733 58.6958C59.0652 57.0767 56.5617 54.7981 54.7627 51.8598C52.9938 48.9216 52.1093 45.4736 52.1093 41.516C52.1093 37.5283 52.9938 34.0804 54.7627 31.1721C56.5617 28.2638 59.0652 26.0151 62.2733 24.4261C65.4814 22.807 69.1992 21.9975 73.4267 21.9975C75.6454 21.9975 77.6242 22.2374 79.3632 22.7171C81.1321 23.1668 82.6162 23.6915 83.8155 24.2912C85.0148 24.8608 85.8543 25.3555 86.334 25.7753L79.9478 35.1297C79.7379 34.9199 79.3482 34.62 78.7785 34.2303C78.2388 33.8405 77.5342 33.4957 76.6648 33.1959C75.7953 32.8961 74.7609 32.7462 73.5616 32.7462C72.0925 32.7462 70.7133 33.1209 69.424 33.8705C68.1648 34.62 67.1454 35.6544 66.3659 36.9736C65.5863 38.2929 65.1965 39.807 65.1965 41.516C65.1965 43.2249 65.5863 44.754 66.3659 46.1032C67.1454 47.4225 68.1648 48.4568 69.424 49.2064C70.7133 49.956 72.0925 50.3307 73.5616 50.3307ZM88.3466 23.0769H94.6428V7.92086H108.18V23.0769H116.455V34.3202H108.18V44.6191C108.18 46.1482 108.405 47.3925 108.854 48.3519C109.304 49.2814 110.129 49.7461 111.328 49.7461C112.137 49.7461 112.827 49.5662 113.397 49.2064C113.966 48.8466 114.311 48.6068 114.431 48.4868L119.108 58.2011C118.898 58.381 118.239 58.7108 117.13 59.1905C116.05 59.6702 114.671 60.1049 112.992 60.4947C111.313 60.8845 109.439 61.0794 107.37 61.0794C103.682 61.0794 100.639 60.045 98.2407 57.9762C95.8421 55.8774 94.6428 52.6544 94.6428 48.3069V34.3202H88.3466V23.0769ZM124.62 60V23.0769H138.292V60H124.62ZM131.636 15.4764C129.478 15.4764 127.649 14.7268 126.149 13.2277C124.65 11.6986 123.901 9.8847 123.901 7.78594C123.901 5.68719 124.65 3.87326 126.149 2.34417C127.679 0.785089 129.507 0.00555051 131.636 0.00555051C133.045 0.00555051 134.335 0.365338 135.504 1.08491C136.673 1.7745 137.618 2.70395 138.337 3.87326C139.057 5.04257 139.417 6.34679 139.417 7.78594C139.417 9.8847 138.652 11.6986 137.123 13.2277C135.594 14.7268 133.765 15.4764 131.636 15.4764ZM176.359 60V54.0185C176.09 54.6182 175.4 55.4877 174.291 56.627C173.211 57.7663 171.772 58.8007 169.973 59.7302C168.174 60.6296 166.076 61.0794 163.677 61.0794C160.079 61.0794 156.931 60.2099 154.233 58.4709C151.534 56.702 149.435 54.3483 147.936 51.4101C146.437 48.4418 145.688 45.1588 145.688 41.5609C145.688 37.9631 146.437 34.695 147.936 31.7567C149.435 28.7885 151.534 26.4199 154.233 24.6509C156.931 22.882 160.079 21.9975 163.677 21.9975C165.986 21.9975 168.009 22.3723 169.748 23.1219C171.487 23.8414 172.896 24.7109 173.976 25.7303C175.055 26.7197 175.805 27.6342 176.225 28.4737V23.0769H189.806V60H176.359ZM159.09 41.5609C159.09 43.2399 159.479 44.754 160.259 46.1032C161.039 47.4225 162.073 48.4568 163.362 49.2064C164.681 49.956 166.135 50.3307 167.725 50.3307C169.374 50.3307 170.828 49.956 172.087 49.2064C173.346 48.4568 174.336 47.4225 175.055 46.1032C175.805 44.754 176.18 43.2399 176.18 41.5609C176.18 39.8819 175.805 38.3828 175.055 37.0636C174.336 35.7144 173.346 34.665 172.087 33.9155C170.828 33.1359 169.374 32.7462 167.725 32.7462C166.135 32.7462 164.681 33.1359 163.362 33.9155C162.073 34.665 161.039 35.7144 160.259 37.0636C159.479 38.3828 159.09 39.8819 159.09 41.5609ZM215.032 21.9975C217.461 21.9975 219.68 22.2074 221.688 22.6271C223.697 23.0169 225.376 23.4666 226.725 23.9763C228.105 24.486 228.989 24.9058 229.379 25.2356L224.926 33.2858C224.357 32.8661 223.292 32.3264 221.733 31.6668C220.204 31.0072 218.495 30.6774 216.606 30.6774C215.167 30.6774 213.953 30.9022 212.964 31.352C211.974 31.7717 211.479 32.4463 211.479 33.3758C211.479 34.3052 212.019 35.0548 213.098 35.6244C214.208 36.1641 215.797 36.6438 217.866 37.0636C219.665 37.4234 221.493 37.993 223.352 38.7726C225.211 39.5521 226.755 40.7064 227.985 42.2355C229.244 43.7346 229.873 45.7434 229.873 48.262C229.873 50.8404 229.319 52.9692 228.209 54.6482C227.1 56.3272 225.631 57.6314 223.802 58.5609C221.973 59.4903 219.994 60.1349 217.866 60.4947C215.737 60.8845 213.668 61.0794 211.659 61.0794C208.841 61.0794 206.382 60.8245 204.284 60.3148C202.215 59.8051 200.536 59.2205 199.247 58.5609C197.957 57.9012 197.058 57.3766 196.548 56.9868L200.956 47.9921C201.735 48.6517 203.009 49.4013 204.778 50.2408C206.547 51.0503 208.421 51.4551 210.4 51.4551C212.319 51.4551 213.803 51.1702 214.852 50.6006C215.902 50.0309 216.426 49.2814 216.426 48.3519C216.426 47.6023 216.172 47.0027 215.662 46.553C215.152 46.1032 214.433 45.7135 213.503 45.3837C212.574 45.0539 211.449 44.754 210.13 44.4842C208.931 44.2443 207.657 43.8696 206.307 43.3599C204.958 42.8502 203.684 42.1606 202.485 41.2911C201.285 40.3916 200.311 39.2673 199.561 37.9181C198.812 36.5689 198.437 34.9349 198.437 33.016C198.437 30.5574 199.232 28.5187 200.821 26.8996C202.41 25.2806 204.464 24.0663 206.982 23.2568C209.501 22.4173 212.184 21.9975 215.032 21.9975ZM16.4497 143H2.73279V81.1167H16.4497V143ZM38.2168 123.167C38.2168 126.105 38.7714 128.459 39.8808 130.228C40.9901 131.967 42.849 132.836 45.4575 132.836C48.1259 132.836 49.9998 131.967 51.0791 130.228C52.1885 128.459 52.7432 126.105 52.7432 123.167V106.077H66.2352V124.606C66.2352 128.564 65.4106 132.012 63.7616 134.95C62.1426 137.858 59.789 140.107 56.7008 141.696C53.6126 143.285 49.8649 144.079 45.4575 144.079C41.0801 144.079 37.3473 143.285 34.2591 141.696C31.1709 140.107 28.8173 137.858 27.1983 134.95C25.5792 132.012 24.7697 128.564 24.7697 124.606V106.077H38.2168V123.167ZM99.9518 104.998C102.53 104.998 105.049 105.522 107.507 106.572C109.966 107.621 111.99 109.285 113.579 111.564C115.168 113.812 115.962 116.781 115.962 120.468V143H102.245V122.717C102.245 120.079 101.616 118.1 100.357 116.781C99.0973 115.431 97.4483 114.757 95.4095 114.757C94.0603 114.757 92.7861 115.117 91.5868 115.836C90.4175 116.526 89.458 117.515 88.7085 118.804C87.9889 120.064 87.6291 121.518 87.6291 123.167V143H73.9572V106.077H87.6291V111.519C87.9889 110.529 88.7385 109.54 89.8778 108.55C91.0471 107.531 92.5012 106.692 94.2402 106.032C96.0091 105.342 97.913 104.998 99.9518 104.998ZM152.555 143V137.019C152.285 137.618 151.596 138.488 150.486 139.627C149.407 140.766 147.968 141.801 146.169 142.73C144.37 143.63 142.271 144.079 139.873 144.079C136.275 144.079 133.127 143.21 130.428 141.471C127.73 139.702 125.631 137.348 124.132 134.41C122.633 131.442 121.883 128.159 121.883 124.561C121.883 120.963 122.633 117.695 124.132 114.757C125.631 111.788 127.73 109.42 130.428 107.651C133.127 105.882 136.275 104.998 139.873 104.998C142.181 104.998 144.205 105.372 145.944 106.122C147.683 106.841 149.092 107.711 150.172 108.73C151.251 109.72 152.001 110.634 152.42 111.474V106.077H166.002V143H152.555ZM135.285 124.561C135.285 126.24 135.675 127.754 136.455 129.103C137.234 130.422 138.269 131.457 139.558 132.206C140.877 132.956 142.331 133.331 143.92 133.331C145.569 133.331 147.023 132.956 148.283 132.206C149.542 131.457 150.531 130.422 151.251 129.103C152 127.754 152.375 126.24 152.375 124.561C152.375 122.882 152 121.383 151.251 120.064C150.531 118.714 149.542 117.665 148.283 116.915C147.023 116.136 145.569 115.746 143.92 115.746C142.331 115.746 140.877 116.136 139.558 116.915C138.269 117.665 137.234 118.714 136.455 120.064C135.675 121.383 135.285 122.882 135.285 124.561Z" fill="white"/>
</svg>
